<?xml version="1.0" encoding="UTF-8" standalone="no"?>
<!DOCTYPE svg PUBLIC "-//W3C//DTD SVG 1.1//EN" "http://www.w3.org/Graphics/SVG/1.1/DTD/svg11.dtd">
<svg width="100%" height="100%" viewBox="0 0 200 150" version="1.1" xmlns="http://www.w3.org/2000/svg" xmlns:xlink="http://www.w3.org/1999/xlink" xml:space="preserve" xmlns:serif="http://www.serif.com/" style="fill-rule:evenodd;clip-rule:evenodd;stroke-linejoin:round;stroke-miterlimit:2;">
    <g id="Artboard1" transform="matrix(0.625,0,0,0.46875,0,0)">
        <rect x="0" y="0" width="320" height="320" style="fill:rgb(42,75,128);"/>
        <g transform="matrix(2.24891,0,0,1.5365,-368.504,-153.392)">
            <path d="M306.081,100.712L306.081,308.097L163.859,308.097L306.081,100.712Z" style="fill:rgb(64,94,141);"/>
        </g>
        <g transform="matrix(1.05599,0,0,0.786703,-54.8999,30.1482)">
            <path d="M306.081,100.712L306.081,308.097L163.859,308.097L306.081,100.712Z" style="fill:rgb(42,75,128);"/>
        </g>
        <g transform="matrix(1.6,0,0,2.13333,84.0518,-7.14318)">
            <g transform="matrix(0.892258,0,0,1,-0.799886,0)">
                <text x="-7.424px" y="70.076px" style="font-family:'Optima-Regular', 'Optima';font-size:32px;fill:white;">Design 4</text>
            </g>
            <g transform="matrix(0.892258,0,0,1,-1.73969,0)">
                <text x="-16.147px" y="100.38px" style="font-family:'Optima-Regular', 'Optima';font-size:32px;fill:white;">San Diego</text>
            </g>
        </g>
    </g>
</svg>
