<?xml version="1.0" encoding="UTF-8" standalone="no"?>
<!DOCTYPE svg PUBLIC "-//W3C//DTD SVG 1.1//EN" "http://www.w3.org/Graphics/SVG/1.1/DTD/svg11.dtd">
<svg width="100%" height="100%" viewBox="0 0 64 64" version="1.1" xmlns="http://www.w3.org/2000/svg" xmlns:xlink="http://www.w3.org/1999/xlink" xml:space="preserve" xmlns:serif="http://www.serif.com/" style="fill-rule:evenodd;clip-rule:evenodd;stroke-linecap:round;stroke-linejoin:round;stroke-miterlimit:1.5;">
    <g id="Layer3">
        <path d="M13.225,32C54.81,32.021 12.537,32.033 55.213,32" style="fill:none;stroke:#fff;stroke-width:1.68px;"/>
        <g transform="matrix(2.10266,0,0,2.34161,-16.3175,-39.7342)">
            <path d="M19.059,23.185C20.949,23.185 22.484,24.608 22.484,26.36C22.484,28.112 20.949,29.534 19.059,29.534C17.168,29.534 15.633,28.112 15.633,26.36C15.633,24.608 17.168,23.185 19.059,23.185ZM19.059,23.185C20.949,23.185 22.484,24.608 22.484,26.36C22.484,28.112 20.949,29.534 19.059,29.534C17.168,29.534 15.633,28.112 15.633,26.36C15.633,24.608 17.168,23.185 19.059,23.185Z" style="fill:#fff;stroke:#fff;stroke-width:0.75px;"/>
        </g>
        <g transform="matrix(1.37776,0,0,1.50713,20.5714,-28.2069)">
            <path d="M19.059,23.185C20.949,23.185 22.484,24.608 22.484,26.36C22.484,28.112 20.949,29.534 19.059,29.534C17.168,29.534 15.633,28.112 15.633,26.36C15.633,24.608 17.168,23.185 19.059,23.185ZM19.059,23.185C20.949,23.185 22.484,24.608 22.484,26.36C22.484,28.112 20.949,29.534 19.059,29.534C17.168,29.534 15.633,28.112 15.633,26.36C15.633,24.608 17.168,23.185 19.059,23.185Z" style="fill:#fff;stroke:#fff;stroke-width:1.16px;"/>
        </g>
        <g transform="matrix(-0.0246789,2.27883,-1.58456,-0.0171603,89.7194,2.02653)">
            <path d="M19.074,36.652C16.491,36.652 14.398,38.747 14.398,41.332C14.398,43.917 16.491,46.012 19.074,46.012L19.074,41.332L19.074,36.652Z" style="fill:#fff;stroke:#fff;stroke-width:0.85px;"/>
        </g>
        <g transform="matrix(-0.0246789,2.27883,-1.11675,-0.012094,92.9494,-13.6001)">
            <path d="M19.074,36.652C16.491,36.652 14.398,38.747 14.398,41.332C14.398,43.917 16.491,46.012 19.074,46.012L19.074,41.332L19.074,36.652Z" style="fill:#fff;stroke:#fff;stroke-width:0.93px;"/>
        </g>
        <g transform="matrix(1,0,0,1,-5.71548,-3.08465)">
            <text x="12.466px" y="62.888px" style="font-family:'Helvetica';font-size:12.833px;fill:#fff;">F</text>
            <text x="20.306px" y="62.888px" style="font-family:'Helvetica';font-size:9.356px;fill:#fff;">EEDBACK</text>
        </g>
    </g>
</svg>
