<svg xmlns="http://www.w3.org/2000/svg" width="100%" height="100%" viewBox="0 0 64 64" fill-rule="evenodd" stroke-linecap="round" stroke-linejoin="round" stroke-miterlimit="1.5"><g stroke="#fff"><path d="M13.225 32c41.585.02-.688.033 41.988 0" fill="none" stroke-width="1.68"/><g fill="#fff"><path d="M23.757 14.556c3.974 0 7.202 3.332 7.202 7.435s-3.228 7.432-7.202 7.432-7.204-3.33-7.204-7.432 3.228-7.435 7.204-7.435zm0 0c3.974 0 7.202 3.332 7.202 7.435s-3.228 7.432-7.202 7.432-7.204-3.33-7.204-7.432 3.228-7.435 7.204-7.435z" stroke-width="1.669"/><path d="M46.83 6.736c2.604 0 4.72 2.145 4.72 4.785s-2.115 4.784-4.72 4.784-4.72-2.143-4.72-4.784 2.115-4.785 4.72-4.785zm0 0c2.604 0 4.72 2.145 4.72 4.785s-2.115 4.784-4.72 4.784-4.72-2.143-4.72-4.784 2.115-4.785 4.72-4.785z" stroke-width="1.675"/><path d="M31.17 44.864c.064-5.886-3.204-10.692-7.3-10.736s-7.467 4.69-7.53 10.576l14.83.16z" stroke-width="1.668"/><path d="M51.548 29.423c.064-5.886-2.224-10.68-5.11-10.712s-5.278 4.713-5.342 10.6l10.453.113z" stroke-width="1.669"/></g></g><text x="12.466" y="62.888" font-family="Helvetica" font-size="12.833" fill="#fff" transform="translate(-5.715 -3.085)">F</text><text x="20.306" y="62.888" font-family="Helvetica" font-size="9.356" fill="#fff" transform="translate(-5.715 -3.085)">EEDBACK</text></svg>