<svg xmlns="http://www.w3.org/2000/svg" width="100%" height="100%" viewBox="0 0 64 64" fill-rule="evenodd" stroke-linecap="round" stroke-linejoin="round" stroke-miterlimit="1.5"><g transform="matrix(.033427 0 0 .04457 -3.25802 -7.77194)"><g fill="#121212" stroke="#fff"><path d="M474.444 301.47h1253.878v778.125H474.444z" stroke-width="44.094"/><path d="M927.396 1079.584h348.007V1189.3H927.396z" stroke-width="44.004"/><path d="M700.715 1189.3h801.347v16.356H700.715z" stroke-width="44.422"/></g><path d="M474.46 913.9H1728.34v165.695H474.46z" fill="#fff" stroke="#fff" stroke-width="44.422"/><g fill="#121212"><path d="M1601.707 966.122l2.812.067.957.045.927.067.957.1 1.855.18.957.112 1.855.27.897.157 1.855.36.897.18.897.224.897.202 1.795.494.868.247.868.27 2.603.875.838.337.838.314.808.337.838.36.808.36.808.38.778.38 1.556.808 1.496.853.748.45.718.45 1.436.942.688.47.688.494.658.516.658.494.658.516.628.538 1.197 1.077.598.56.568.56.568.583.538.56.538.583 1.017 1.212.957 1.212.897 1.256.838 1.256.39.65.718 1.3.36.673.33.65.598 1.346.27.696.27.673.24.673.42 1.39.36 1.39.3 1.39.12.718.1.696.1.718.06.696.06.718.03.696v1.997l-.03.135v.426l-.03.135v.292l-.03.135v.135l-.03.157v.27l-.03.157v.135l-.06.27v.157l-.03.135v.135l-.03.157-.03.135v.135l-.03.135-.03.157-.03.135v.135l-.03.135-.03.157-.1.404-.03.157-.1.404-.03.157-.1.404-.03.157-.06.27-.06.135-.03.135-.03.157-.03.135-.06.135-.06.27-.06.135-.03.157-.03.135-.06.135-.03.135-.06.135-.03.135-.06.157-.03.135-.06.135-.03.135-.12.27-.03.135-.12.27-.03.135-.06.135-.06.157-.12.27-.03.135-.778 1.75-.1.135-.06.112-.18.404-.1.135-.12.27-.1.135-.06.135-.06.112-.1.135-.06.135-.1.135-.06.135-.1.135-.06.112-.1.135-.06.135-.1.135-.06.112-.18.27-.06.135-.1.112-.1.135-.06.135-.1.112-.18.27-.1.112-.06.135-.1.135-.1.112-.18.27-.1.112-.1.135-.1.112-.1.135-.1.112-.1.135-.1.112-.1.135-.1.112-.1.135-.1.112-.12.135-.1.112-.1.135-.1.112-.1.135-.12.112-.1.112-.1.135-.12.112-.1.135-.1.112-.12.112-.1.135-.12.112-.1.112-.12.112-.1.135-.12.112-.1.112-.12.112-.1.135-.12.112-.1.112-.24.224-.1.112-.12.135-.12.112-.1.112-.48.45-.1.112-1.197 1.122-.12.1-.598.56-.12.1-.12.112-.15.112-.12.112-.12.1-.24.224-.15.1-.24.224-.15.1-.12.112-.39.292-.12.112-.27.202-.15.1-.12.112-.15.1-.12.112-.15.1-.12.112-.15.1-.39.292-.15.1-.27.202-.3.18-.12.112-.45.27-.27.202-.45.27-.12.1-1.496.897-.15.067-.598.36-.15.067-.45.27-.15.067-.3.18-.18.067-.15.1-.15.067-.3.18-.18.067-.15.1-.15.067-.15.1-.18.067-.15.067-.15.1-.18.067-.15.1-.15.067-.18.067-.15.1-.18.067-.3.135-.18.1-.15.067-.18.067-.15.067-.18.067-.15.067-.18.1-.15.067-.18.067-.15.067-.18.067-.15.067-.18.067-.15.067-.36.135-.15.067-.18.045-.18.067-.15.067-.18.067-.15.067-.18.045-.36.135-.15.067-.18.045-.18.067-.15.067-.18.045-.18.067-.18.045-.15.067-.18.045-.18.067-.18.045-.18.067-.15.045-.18.067-.18.045-.18.067-.36.1-.18.067-.18.045-.15.045-.18.045-.18.067-.897.224-.18.067-1.077.27-.18.022-1.077.27-.18.022-.538.135-.18.022-.21.045-.18.045-.18.022-.18.045-.18.022-.18.045-.18.022-.18.045-.18.022-.21.045-.18.022-.18.045-.36.045-.18.045-.21.022-.18.022-.18.045-.36.045-.21.022-.18.022-.18.045-.36.045-.21.022-.538.067-.21.022-.538.067-.21.022h-.18l-.36.045-.21.022-.18.022h-.18l-.18.022-.21.022-.18.022h-.18l-.21.022h-.18l-.36.045h-.21l-.18.022h-.18l-.21.022h-.36l-.21.022h-.18l-.18.022h-.568l-.18.022h-.778l-.18.022h-3.38l-.21-.022h-.748l-.18-.022h-.568l-.21-.022h-.18l-.18-.022h-.39l-.18-.022h-.18l-.21-.022h-.18l-.18-.022-.21-.022h-.18l-.18-.022h-.18l-.21-.022-.36-.045h-.18l-.21-.022-.36-.045-.21-.022h-.18l-.36-.045-.21-.022-.538-.067-.21-.022-.718-.1-.21-.045-.718-.1-.21-.045-.36-.045-.18-.045-.36-.045-.21-.045-.18-.022-.18-.045-.18-.022-.18-.045-.18-.022-.18-.045-.21-.022-.18-.045-.18-.022-.36-.1-.18-.022-.538-.135-.18-.022-.36-.1-.21-.045-.538-.135-.18-.022-1.077-.27-.18-.067-.15-.045-.718-.18-.18-.067-.538-.135-.18-.067-.18-.045-.15-.045-.18-.067-.18-.045-.18-.067-.18-.045-.18-.067-.15-.045-.18-.067-.18-.045-.18-.067-.15-.045-.18-.067-.18-.045-.18-.067-.15-.067-.18-.045-.36-.135-.15-.067-.18-.045-.18-.067-.15-.067-.36-.135-.15-.045-.18-.067-.15-.067-.36-.135-.15-.067-.18-.067-.15-.067-.18-.067-.15-.067-.18-.067-.15-.1-.18-.067-.15-.067-.18-.067-.15-.067-.18-.067-.15-.1-.15-.067-.18-.067-.15-.067-.18-.1-.3-.135-.18-.1-.15-.067-.15-.1-.18-.067-.15-.067-.15-.1-.15-.067-.18-.1-.15-.067-.3-.18-.18-.067-.15-.1-.15-.067-.3-.18-.15-.067-.15-.1-.18-.1-.15-.1-.15-.067-.598-.36-.15-.067-.897-.538-.12-.1-.897-.538-.27-.202-.3-.18-.12-.1-.15-.1-.27-.202-.3-.18-.12-.112-.3-.18-.12-.112-.15-.1-.927-.696-.15-.1-.24-.224-.15-.1-.12-.112-.15-.1-.12-.112-.27-.202-.12-.112-.12-.1-.12-.112-.27-.202-.36-.337-.12-.1-.12-.112-.15-.112-.36-.337-.12-.1-.718-.673-.1-.112-.598-.56-.1-.112-.36-.337-.1-.112-.12-.135-.12-.112-.1-.112-.24-.224-.1-.112-.12-.135-.1-.112-.12-.112-.1-.112-.12-.135-.1-.112-.12-.112-.1-.112-.12-.135-.18-.224-.12-.135-.1-.112-.1-.135-.12-.112-.1-.112-.1-.135-.1-.112-.12-.135-.1-.112-.1-.135-.1-.112-.1-.135-.1-.112-.1-.135-.12-.112-.1-.135-.1-.112-.1-.135-.1-.112-.1-.135-.1-.112-.06-.135-.1-.135-.1-.112-.18-.27-.1-.112-.06-.135-.1-.135-.1-.112-.1-.135-.06-.135-.1-.112-.1-.135-.06-.135-.1-.135-.1-.112-.06-.135-.1-.135-.06-.135-.1-.112-.06-.135-.1-.135-.06-.135-.1-.135-.06-.135-.06-.112-.1-.135-.12-.27-.1-.135-.18-.404-.1-.135-.06-.112-.957-2.154-.03-.135-.06-.157-.12-.27-.03-.135-.12-.27-.03-.135-.12-.27-.03-.135-.06-.135-.03-.157-.06-.135-.03-.135-.06-.135-.06-.27-.06-.157-.03-.135-.06-.135-.1-.404-.06-.157-.12-.538-.03-.157-.06-.135-.06-.27-.03-.157-.1-.404-.03-.157-.03-.135v-.135l-.03-.135-.03-.157-.1-.404v-.157l-.06-.27v-.135l-.03-.157-.03-.135v-.135l-.03-.157v-.135l-.03-.135v-.135l-.03-.157v-.135l-.03-.135v-.157l-.03-.135v-.292l-.03-.135v-.426l-.03-.135v-.718l-.03-.135v-.853l.03-.135v-.718l.03-.135v-.426l.03-.135v-.292l.03-.135v-.157l.03-.135v-.135l.03-.135v-.157l.03-.135v-.135l.03-.157v-.135l.03-.135.03-.157v-.135l.06-.27v-.157l.1-.404.03-.157.03-.135v-.135l.03-.135.03-.157.1-.404.03-.157.06-.27.06-.135.03-.157.12-.538.06-.157.1-.404.06-.135.03-.135.06-.157.06-.27.06-.135.03-.135.06-.135.03-.135.06-.157.03-.135.12-.27.03-.135.12-.27.03-.135.18-.404.03-.157.897-2.02.06-.112.06-.135.1-.135.18-.404.1-.135.12-.27.1-.135.06-.112.06-.135.1-.135.06-.135.1-.135.06-.112.1-.135.06-.135.1-.135.06-.135.1-.112.1-.135.06-.135.1-.135.1-.112.06-.135.1-.135.1-.112.1-.135.06-.135.1-.112.18-.27.1-.112.1-.135.06-.135.1-.112.1-.135.1-.112.1-.135.1-.112.1-.135.12-.112.1-.135.1-.112.1-.135.1-.112.1-.135.1-.112.12-.135.1-.112.1-.135.1-.112.12-.112.1-.135.1-.112.12-.112.1-.135.1-.112.12-.112.1-.135.12-.112.1-.112.12-.135.1-.112.12-.112.1-.112.12-.135.1-.112.24-.224.1-.112.24-.224.1-.135.36-.337.1-.112.598-.56.1-.112.598-.56.12-.1.48-.45.27-.202.36-.337.12-.1.12-.112.15-.112.12-.112.12-.1.12-.112.15-.1.24-.224.15-.1.12-.112.15-.1.12-.112 1.197-.897.15-.1.12-.112.3-.18.12-.112.3-.18.27-.202.15-.1.12-.1.45-.27.12-.112.897-.538.12-.1.748-.45.15-.067.748-.45.15-.067.15-.1.18-.1.15-.1.15-.067.3-.18.15-.067.15-.1.18-.067.15-.1.15-.067.15-.1.18-.1.3-.135.15-.1.18-.067.15-.1.15-.067.18-.1.3-.135.18-.1.15-.067.18-.067.15-.067.15-.1.18-.067.15-.067.18-.067.15-.067.18-.067.15-.1.18-.067.15-.067.18-.067.15-.067.18-.067.15-.067.36-.135.15-.067.18-.045.15-.067.36-.135.15-.067.18-.067.18-.045.15-.067.36-.135.18-.045.15-.067.18-.067.18-.045.18-.067.15-.045.18-.067.18-.045.18-.067.15-.045.18-.067.18-.045.18-.067.18-.045.18-.067.15-.045.18-.045.18-.067.538-.135.18-.067.718-.18.15-.045.18-.045.18-.067.897-.224.18-.022.538-.135.21-.045.36-.1.18-.022.538-.135.18-.022.18-.045.18-.022.36-.1.21-.022.18-.045.18-.022.18-.045.18-.022.18-.045.18-.022.21-.045.36-.045.18-.045.36-.045.21-.022.18-.045.538-.067.21-.022.18-.045.538-.067.21-.022.538-.067.21-.022.36-.045h.18l.21-.022.36-.045.21-.022h.18l.36-.045h.21l.36-.045h.18l.21-.022.18-.022h.18l.21-.022h.18l.18-.022h.39l.18-.022h.39l.18-.022h.39l.18-.022h.748l.21-.022h2.633z"/><path d="M1493.89 988.447h.598l.598.022.598.045 1.197.135.568.1.598.112 1.137.27 1.137.314.538.18 1.077.404.51.247.51.224.51.247.48.27.45.292.48.292.45.292.42.314.42.337.39.337.39.36.36.36.33.36.658.763.27.404.27.38.27.426.24.404.21.426.36.853.15.45.12.426.12.45.1.45.12.897v.45l.03.224v.224l-.03.112v.45l-.03.112v.224l-.03.112v.112l-.06.224v.112l-.06.224v.112l-.1.337-.03.1-.18.673-.06.112-.06.224-.06.1-.06.224-.06.112-.03.1-.06.112-.03.112-.06.1-.06.112-.03.112-.06.1-.06.112-.06.1-.03.112-.1.112-.03.112-.06.1-.06.112-.12.18-.06.112-.06.1-.1.112-.12.18-.06.112-.06.1-.1.1-.06.1-.06.112-.1.1-.1.135-.03.022-.03.112-.06.1-.12.224-.06.1-.12.224-.06.1-.06.112-.06.1-.06.112-.06.1-.06.112-.06.1-.1.112-.06.1-.06.112-.1.1-.06.112-.1.1-.06.1-.1.112-.06.1-.1.1-.06.1-.1.112-.18.18-.06.1-.18.18-.1.112-.45.45-.21.157-.27.27-.21.157-.1.1-.33.247-.1.1-.12.067-.1.1-.12.067-.21.157-.12.067-.21.157-.12.067-.12.1-1.556.875-.12.045-.15.067-.12.067-.12.045-.12.067-.15.067-.12.045-.12.067-.15.045-.12.045-.15.067-.12.045-.15.045-.12.067-.15.045-.12.045-.15.045-.12.045-.15.045-.12.045-.3.1-.12.045-.3.1-.12.022-.3.1-.15.022-.12.045-.15.045-.3.045-.15.045-.12.022-.15.045-.748.112-.12.045-.3.045h-.15l-.598.1h-.15l-.3.045h-.15l-.15.022h-.15l-.15.022h-.3l-.15.022h-.598l-.15.022h-.3l-.15-.022h-.748l-.15-.022h-.15l-.15-.022h-.15l-.15-.022h-.15l-.15-.022h-.15l-.45-.067h-.15l-.748-.112-.12-.022-.15-.022-.15-.045-.45-.067-.15-.045-.12-.022-.15-.045-.15-.022-.15-.045-.15-.022-.12-.045-.15-.022-.15-.045-.12-.045-.15-.045-.15-.022-.12-.045-.3-.1-.12-.045-.3-.1-.12-.045-.15-.045-.12-.067-.15-.045-.12-.045-.15-.045-.12-.067-.12-.045-.15-.067-.12-.045-.12-.067-.15-.045-.12-.067-.12-.045-.15-.067-.12-.067-.12-.045-.24-.135-.15-.067-.957-.538-.1-.067-.12-.067-.12-.1-.24-.135-.1-.1-.24-.135-.538-.404-.1-.1-.12-.067-.1-.1-.21-.157-.1-.1-.12-.1-.1-.1-.1-.067-.27-.27-.12-.1-.27-.27-.06-.1-.18-.18-.1-.112-.18-.18-.06-.1-.1-.1-.1-.112-.06-.1-.1-.1-.06-.112-.1-.1-.06-.1-.1-.112-.06-.1-.06-.112-.1-.1-.06-.112-.06-.1-.06-.112-.06-.1-.06-.112-.06-.1-.12-.224-.06-.1-.12-.224-.06-.1-.06-.112-.03-.112-.06-.1-.06-.112-.03-.112-.06-.112-.03-.1-.06-.112-.06-.224-.06-.112-.03-.112-.03-.1-.03-.112-.06-.112-.18-.673v-.112l-.1-.337v-.112l-.03-.112v-.1l-.03-.112v-.112l-.03-.112v-.112l-.03-.112v-.36l-.03-.112v-.673l.03-.112v-.224l.03-.224v-.314l.03-.112v-.112l.03-.112v-.1l.06-.224v-.112l.03-.112.03-.1.03-.224.15-.56.03-.1.15-.56.1-.202.03-.1.03-.112.03-.1.06-.1.03-.112.03-.1.06-.1.03-.112.03-.1.06-.112.06-.1.1-.18.03-.112.06-.1.06-.112.03-.1.06-.112.06-.1.06-.112.06-.1.06-.112.06-.1.06-.112.48-.718.06-.112.06-.1.1-.1.12-.18.1-.1.12-.18.1-.1.06-.1.1-.1.42-.516h.03l.06-.112.06-.1.1-.112.06-.1.1-.1.06-.112.18-.18.06-.1.1-.112.27-.27.06-.1.538-.538.12-.1.36-.36.12-.067.18-.18.12-.067.1-.1.538-.404.12-.067.1-.1.12-.067.21-.157.24-.135.12-.1 1.436-.808.12-.045.15-.067.12-.067.12-.045.12-.067.15-.067.12-.045.12-.067.15-.045.12-.067.15-.045.12-.045.12-.067.15-.045.12-.045.15-.045.12-.045.3-.1.12-.045.15-.045.12-.045.3-.1.12-.045.15-.045.15-.022.15-.045.12-.045.15-.022.15-.045.15-.022.12-.045.15-.022.15-.045.45-.067.15-.045.12-.022 1.047-.157h.15l.45-.067h.15l.15-.022h.15l.15-.022h.15l.15-.022h.3l.15-.022h.897zm15.047 15.84v.112l-.03.112v.1l.03-.426v.112zm-31.112-7.112l-.24.74.06-.224.06-.112.03-.112.06-.112.03-.1.03-.112.12-.224.03-.1-.18.337z"/></g><g transform="matrix(29.9155 0 0 22.4367 245.849 262.11)"><text x="10.829" y="55.533" font-family="Helvetica" font-size="12.833" fill="#fff">I</text><text x="14.395" y="55.533" font-family="Helvetica" font-size="9.356" fill="#fff">DEATE</text></g><path d="M1436.334 990.982h.688l1.376.1.778.1.658.1.688.135.658.135.658.157.628.18 1.256.404.598.247.688.292.568.27.568.292.538.292.538.337.51.337.48.337.48.38.45.38.45.404.39.404.39.426.42.47.658.897.27.45.27.47.24.47.21.494.21.47.15.494.15.583.12.494.06.516.06.494.03.516v.606l-.03.1v.337l-.03.067v.18l-.03.1v.157l-.03.1v.1l-.03.1-.03.157v.1l-.03.1v.1l-.03.1v.067l-.06.18v.1l-.03.067-.03.1v.1l-.03.1-.03.067-.06.18-.03.067-.03.1v.1l-.03.067-.06.18-.03.067-.03.1-.06.1-.03.067-.03.1-.24.56-.06.135-.06.18-.03.067-.06.18-.03.067-.03.1-.06.1-.03.067-.06.18-.06.067-.03.1-.03.067-.06.1-.03.067-.06.1-.03.1-.03.067-.06.1-.06.067-.03.1-.06.067-.03.1-.06.067-.03.067-.06.1-.06.067-.06.1-.03.067-.06.1-.12.135-.03.1-.12.135-.06.1-.12.135-.06.1-.18.202-.06.1-.24.27-.1.1-.24.27-.1.067-.12.135-.1.067-.12.135-.1.067-.06.067-.1.067-.06.067-.1.067-.06.067-.1.067-.06.067-.1.045-.06.067-.1.067-.06.067-.1.067-.1.045-.06.067-.42.314-.1.045-.33.247-.1.045-.1.067-.1.045-.1.067-.1.045-.06.067-.18.1-.1.067-.18.1-.12.067-.27.135-.1.067-.36.18-.12.067-.27.135-.12.045-.27.135-.12.045-.1.045-.1.022-.12.045-.18.1-.12.045-.1.045-.1.022-.12.045-.1.045-.12.045-.1.022-.12.045-.1.022-.12.045-.1.045-.12.022-.1.045-.12.022-.1.045-.12.022-.1.045-.12.022-.1.022-.12.045-.12.022-.1.022-.12.045-.1.022-.24.045-.1.022-.12.045-.12.022-.1.022-.24.045-.1.022-.24.045-.1.022-.36.067h-.1l-.24.045-.1.022-.12.022h-.12l-.12.022-.1.022h-.12l-.24.045h-.12l-.1.022h-.12l-.12.022h-.12l-.12.022h-.21l-.12.022h-.24l-.1.022h-.48l-.12.022h-1.256l-.1-.022h-.36l-.12-.022h-.33l-.12-.022h-.12l-.12-.022h-.1l-.12-.022h-.12l-.12-.022h-.12l-.1-.022h-.12l-.24-.045h-.1l-.36-.067h-.1l-.36-.067-.1-.022-.24-.045-.1-.022-.24-.045-.1-.022-.24-.045-.1-.022-.24-.045-.1-.022-.12-.045-.12-.022-.1-.022-.12-.022-.1-.045-.24-.045-.1-.045-.12-.022-.1-.045-.12-.022-.1-.045-.12-.022-.1-.045-.12-.022-.1-.045-.12-.022-.1-.045-.12-.045-.1-.022-.12-.045-.18-.1-.12-.022-.1-.045-.12-.045-.18-.1-.12-.022-.18-.1-.12-.045-.27-.135-.12-.045-.18-.1-.1-.067-.18-.1-.12-.045-.18-.1-.1-.067-.27-.135-.1-.067-.1-.045-.1-.067-.18-.1-.1-.067-.1-.045-.1-.067-.1-.045-.1-.067-.1-.045-.24-.18-.1-.045-.42-.314-.1-.045-.06-.067-.33-.247-.06-.067-.1-.067-.06-.067-.1-.067-.06-.067-.1-.045-.06-.067-.1-.067-.06-.067-.1-.067-.12-.135-.1-.067-.12-.135-.1-.067-.06-.1-.12-.135-.1-.067-.18-.202-.06-.1-.18-.202-.06-.1-.18-.202-.06-.1-.12-.135-.06-.1-.06-.067-.03-.067-.06-.1-.06-.067-.06-.1-.06-.067-.03-.067-.06-.1-.06-.067-.03-.1-.06-.067-.03-.1-.06-.067-.03-.1-.06-.067-.03-.1-.06-.067-.03-.1-.06-.067-.03-.1-.06-.1-.03-.067-.03-.1-.03-.067-.06-.1-.03-.1-.03-.067-.03-.1-.06-.067-.06-.18-.03-.067-.06-.18-.03-.067-.1-.27-.03-.067-.06-.18v-.067l-.1-.27v-.067l-.1-.27v-.1l-.03-.067v-.1l-.03-.1v-.1l-.03-.067v-.1l-.03-.1v-.1l-.03-.1v-.157l-.03-.1v-.18l-.03-.1v-.583l-.03-.1v-.18l.03-.1v-.516l.03-.067v-.27l.03-.1v-.067l.03-.1v-.18l.03-.1v-.067l.03-.1.03-.202.03-.1v-.1l.03-.067v-.1l.03-.1.03-.067v-.18l.03-.1v-.1l.03-.1v-.157l.03-.1v-.1l.03-.1.03-.067v-.1l.03-.1v-.1l.03-.067.06-.18v-.1l.03-.067.1-.27v-.067l.1-.27.03-.067.06-.18.03-.067.06-.18.06-.067.06-.18.03-.067.03-.1.06-.067.06-.18.03-.067.06-.1.03-.067.06-.1.03-.067.03-.1.06-.1.03-.067.06-.1.06-.067.03-.1.06-.067.03-.067.06-.1.06-.067.03-.1.06-.067.06-.1.06-.067.03-.067.06-.1.06-.067.06-.1.12-.135.03-.067.06-.1.12-.135.06-.1.12-.135.1-.067.06-.067.06-.1.24-.27.1-.067.06-.067.06-.1.06-.067.1-.067.12-.135.1-.067.06-.067.1-.067.06-.067.24-.18.06-.067.1-.067.06-.067.1-.067.06-.067.1-.045.1-.067.06-.067.1-.067.1-.045.06-.067.1-.067.1-.045.06-.067.1-.067.1-.045.1-.067.1-.045.1-.067.06-.067.1-.045.1-.067.1-.045.1-.067.18-.1.1-.067.18-.1.1-.067.18-.1.1-.067.18-.1.12-.045.1-.067.36-.18.12-.045.27-.135.12-.045.27-.135.12-.045.18-.1.12-.022.1-.045.12-.045.18-.1.12-.022.1-.045.12-.045.1-.022.12-.045.1-.022.12-.045.1-.045.12-.022.1-.045.12-.022.1-.045.12-.022.1-.022.12-.045.1-.022.12-.022.12-.045.1-.022.12-.022.1-.022.12-.045.12-.022.1-.022.24-.045.1-.022.24-.045.1-.022.36-.067.1-.022.24-.045.1-.022h.12l.24-.045.1-.022h.12l.24-.045h.12l.1-.022.12-.022h.12l.12-.022h.1l.12-.022h.24l.12-.022h.21l.12-.022h.24l.12-.022h1.017zm16.184 15.818v.1l-.03.1v.067l-.06.18v.1l-.03.067-.06.18v.1l-.06.135.12-.292.15-.785-.03.1z" fill="#121212"/></g></svg>