<?xml version="1.0" encoding="UTF-8" standalone="no"?>
<!DOCTYPE svg PUBLIC "-//W3C//DTD SVG 1.1//EN" "http://www.w3.org/Graphics/SVG/1.1/DTD/svg11.dtd">
<svg width="100%" height="100%" viewBox="0 0 64 64" version="1.1" xmlns="http://www.w3.org/2000/svg" xmlns:xlink="http://www.w3.org/1999/xlink" xml:space="preserve" xmlns:serif="http://www.serif.com/" style="fill-rule:evenodd;clip-rule:evenodd;stroke-linecap:round;stroke-linejoin:round;stroke-miterlimit:1.5;">
    <g id="Layer1" transform="matrix(0.0334274,0,0,0.0445699,-3.25802,-7.77194)">
        <g transform="matrix(29.9155,0,0,23.4693,79.3501,60.9103)">
            <rect x="13.207" y="10.25" width="41.914" height="33.155" style="fill:#f4f2ee;stroke:#384c6f;stroke-width:1.64px;"/>
        </g>
        <g transform="matrix(29.9155,0,0,23.7203,98.0483,103.517)">
            <rect x="27.723" y="41.149" width="11.633" height="4.625" style="fill:#f4f2ee;stroke:#384c6f;stroke-width:1.63px;"/>
        </g>
        <g transform="matrix(29.9155,0,0,22.4367,103.482,174.376)">
            <rect x="19.964" y="45.235" width="26.787" height="0.729" style="fill:#f4f2ee;stroke:#384c6f;stroke-width:1.68px;"/>
        </g>
        <g transform="matrix(29.9155,0,0,22.4367,97.4655,174.376)">
            <rect x="12.602" y="32.96" width="41.914" height="7.385" style="fill:#f4f2ee;stroke:#384c6f;stroke-width:1.68px;"/>
        </g>
        <g transform="matrix(29.9155,0,0,22.4367,97.4655,174.376)">
            <path d="M50.283,35.288L50.314,35.289L50.346,35.29L50.377,35.291L50.409,35.293L50.44,35.296L50.472,35.3L50.503,35.304L50.534,35.308L50.566,35.313L50.597,35.319L50.628,35.325L50.658,35.332L50.689,35.34L50.72,35.348L50.75,35.356L50.78,35.366L50.81,35.375L50.84,35.386L50.87,35.397L50.899,35.408L50.928,35.42L50.957,35.433L50.986,35.446L51.015,35.459L51.043,35.474L51.071,35.488L51.098,35.503L51.126,35.519L51.153,35.535L51.18,35.552L51.206,35.569L51.232,35.587L51.258,35.605L51.283,35.624L51.308,35.643L51.333,35.663L51.357,35.683L51.381,35.704L51.405,35.725L51.428,35.746L51.451,35.768L51.473,35.791L51.495,35.813L51.517,35.836L51.538,35.86L51.558,35.884L51.578,35.908L51.598,35.933L51.617,35.958L51.636,35.984L51.654,36.009L51.672,36.035L51.689,36.062L51.706,36.089L51.722,36.116L51.738,36.143L51.753,36.171L51.768,36.199L51.782,36.227L51.796,36.255L51.809,36.284L51.821,36.313L51.833,36.342L51.845,36.372L51.856,36.401L51.866,36.431L51.876,36.461L51.885,36.492L51.894,36.522L51.902,36.552L51.909,36.583L51.916,36.614L51.922,36.645L51.928,36.676L51.933,36.707L51.938,36.738L51.942,36.77L51.945,36.801L51.948,36.833L51.95,36.864L51.952,36.896L51.953,36.927L51.953,36.959L51.953,36.965L51.953,36.971L51.953,36.978L51.953,36.984L51.953,36.99L51.953,36.997L51.953,37.003L51.953,37.009L51.953,37.016L51.952,37.022L51.952,37.028L51.952,37.034L51.952,37.041L51.951,37.047L51.951,37.053L51.951,37.06L51.95,37.066L51.95,37.072L51.949,37.079L51.949,37.085L51.949,37.091L51.948,37.098L51.948,37.104L51.947,37.11L51.946,37.116L51.946,37.123L51.945,37.129L51.945,37.135L51.944,37.142L51.943,37.148L51.943,37.154L51.942,37.16L51.941,37.167L51.94,37.173L51.94,37.179L51.939,37.185L51.938,37.192L51.937,37.198L51.936,37.204L51.935,37.21L51.934,37.217L51.933,37.223L51.932,37.229L51.931,37.235L51.93,37.242L51.929,37.248L51.928,37.254L51.927,37.26L51.926,37.267L51.925,37.273L51.924,37.279L51.922,37.285L51.921,37.291L51.92,37.298L51.919,37.304L51.917,37.31L51.916,37.316L51.915,37.322L51.913,37.328L51.912,37.335L51.911,37.341L51.909,37.347L51.908,37.353L51.906,37.359L51.905,37.365L51.903,37.372L51.902,37.378L51.9,37.384L51.899,37.39L51.897,37.396L51.895,37.402L51.894,37.408L51.892,37.414L51.89,37.42L51.889,37.426L51.887,37.432L51.885,37.439L51.883,37.445L51.881,37.451L51.88,37.457L51.878,37.463L51.876,37.469L51.874,37.475L51.872,37.481L51.87,37.487L51.868,37.493L51.866,37.499L51.864,37.505L51.862,37.511L51.86,37.517L51.858,37.523L51.856,37.529L51.854,37.535L51.851,37.541L51.849,37.546L51.847,37.552L51.845,37.558L51.843,37.564L51.84,37.57L51.838,37.576L51.836,37.582L51.833,37.588L51.831,37.594L51.829,37.599L51.826,37.605L51.824,37.611L51.821,37.617L51.819,37.623L51.816,37.629L51.814,37.634L51.811,37.64L51.809,37.646L51.806,37.652L51.804,37.657L51.801,37.663L51.798,37.669L51.796,37.675L51.793,37.68L51.79,37.686L51.788,37.692L51.785,37.697L51.782,37.703L51.779,37.709L51.776,37.714L51.774,37.72L51.771,37.726L51.768,37.731L51.765,37.737L51.762,37.743L51.759,37.748L51.756,37.754L51.753,37.759L51.75,37.765L51.747,37.77L51.744,37.776L51.741,37.781L51.738,37.787L51.735,37.792L51.732,37.798L51.729,37.803L51.725,37.809L51.722,37.814L51.719,37.82L51.716,37.825L51.713,37.831L51.709,37.836L51.706,37.841L51.703,37.847L51.699,37.852L51.696,37.858L51.693,37.863L51.689,37.868L51.686,37.874L51.682,37.879L51.679,37.884L51.675,37.889L51.672,37.895L51.668,37.9L51.665,37.905L51.661,37.91L51.658,37.916L51.654,37.921L51.651,37.926L51.647,37.931L51.643,37.936L51.64,37.941L51.636,37.947L51.632,37.952L51.629,37.957L51.625,37.962L51.621,37.967L51.617,37.972L51.613,37.977L51.61,37.982L51.606,37.987L51.602,37.992L51.598,37.997L51.594,38.002L51.59,38.007L51.586,38.012L51.582,38.017L51.578,38.022L51.574,38.027L51.57,38.032L51.566,38.036L51.562,38.041L51.558,38.046L51.554,38.051L51.55,38.056L51.546,38.061L51.542,38.065L51.538,38.07L51.533,38.075L51.529,38.08L51.525,38.084L51.521,38.089L51.517,38.094L51.512,38.098L51.508,38.103L51.504,38.108L51.499,38.112L51.495,38.117L51.491,38.121L51.486,38.126L51.482,38.13L51.478,38.135L51.473,38.14L51.469,38.144L51.464,38.148L51.46,38.153L51.455,38.157L51.451,38.162L51.446,38.166L51.442,38.171L51.437,38.175L51.433,38.179L51.428,38.184L51.424,38.188L51.419,38.192L51.414,38.197L51.41,38.201L51.405,38.205L51.4,38.209L51.396,38.214L51.391,38.218L51.386,38.222L51.381,38.226L51.377,38.23L51.372,38.235L51.367,38.239L51.362,38.243L51.357,38.247L51.353,38.251L51.348,38.255L51.343,38.259L51.338,38.263L51.333,38.267L51.328,38.271L51.323,38.275L51.318,38.279L51.313,38.283L51.308,38.287L51.303,38.291L51.298,38.294L51.293,38.298L51.288,38.302L51.283,38.306L51.278,38.31L51.273,38.313L51.268,38.317L51.263,38.321L51.258,38.325L51.253,38.328L51.248,38.332L51.243,38.336L51.237,38.339L51.232,38.343L51.227,38.346L51.222,38.35L51.217,38.354L51.211,38.357L51.206,38.361L51.201,38.364L51.196,38.368L51.19,38.371L51.185,38.374L51.18,38.378L51.174,38.381L51.169,38.385L51.164,38.388L51.158,38.391L51.153,38.395L51.147,38.398L51.142,38.401L51.137,38.404L51.131,38.408L51.126,38.411L51.12,38.414L51.115,38.417L51.109,38.42L51.104,38.423L51.098,38.427L51.093,38.43L51.087,38.433L51.082,38.436L51.076,38.439L51.071,38.442L51.065,38.445L51.06,38.448L51.054,38.451L51.048,38.454L51.043,38.457L51.037,38.459L51.031,38.462L51.026,38.465L51.02,38.468L51.015,38.471L51.009,38.473L51.003,38.476L50.997,38.479L50.992,38.482L50.986,38.484L50.98,38.487L50.975,38.49L50.969,38.492L50.963,38.495L50.957,38.497L50.952,38.5L50.946,38.502L50.94,38.505L50.934,38.507L50.928,38.51L50.923,38.512L50.917,38.515L50.911,38.517L50.905,38.52L50.899,38.522L50.893,38.524L50.887,38.527L50.881,38.529L50.876,38.531L50.87,38.533L50.864,38.536L50.858,38.538L50.852,38.54L50.846,38.542L50.84,38.544L50.834,38.546L50.828,38.549L50.822,38.551L50.816,38.553L50.81,38.555L50.804,38.557L50.798,38.559L50.792,38.561L50.786,38.562L50.78,38.564L50.774,38.566L50.768,38.568L50.762,38.57L50.756,38.572L50.75,38.574L50.744,38.575L50.738,38.577L50.732,38.579L50.726,38.581L50.72,38.582L50.713,38.584L50.707,38.586L50.701,38.587L50.695,38.589L50.689,38.59L50.683,38.592L50.677,38.593L50.671,38.595L50.665,38.596L50.658,38.598L50.652,38.599L50.646,38.601L50.64,38.602L50.634,38.603L50.628,38.605L50.621,38.606L50.615,38.607L50.609,38.609L50.603,38.61L50.597,38.611L50.59,38.612L50.584,38.613L50.578,38.615L50.572,38.616L50.566,38.617L50.559,38.618L50.553,38.619L50.547,38.62L50.541,38.621L50.534,38.622L50.528,38.623L50.522,38.624L50.516,38.625L50.509,38.626L50.503,38.626L50.497,38.627L50.491,38.628L50.484,38.629L50.478,38.63L50.472,38.63L50.466,38.631L50.459,38.632L50.453,38.633L50.447,38.633L50.44,38.634L50.434,38.634L50.428,38.635L50.422,38.636L50.415,38.636L50.409,38.637L50.403,38.637L50.396,38.638L50.39,38.638L50.384,38.638L50.377,38.639L50.371,38.639L50.365,38.64L50.359,38.64L50.352,38.64L50.346,38.64L50.34,38.641L50.333,38.641L50.327,38.641L50.321,38.641L50.314,38.641L50.308,38.642L50.302,38.642L50.295,38.642L50.289,38.642L50.283,38.642L50.276,38.642L50.226,38.642L50.22,38.642L50.214,38.642L50.207,38.642L50.201,38.642L50.195,38.642L50.188,38.641L50.182,38.641L50.176,38.641L50.169,38.641L50.163,38.641L50.157,38.64L50.15,38.64L50.144,38.64L50.138,38.64L50.131,38.639L50.125,38.639L50.119,38.638L50.113,38.638L50.106,38.638L50.1,38.637L50.094,38.637L50.087,38.636L50.081,38.636L50.075,38.635L50.068,38.634L50.062,38.634L50.056,38.633L50.05,38.633L50.043,38.632L50.037,38.631L50.031,38.63L50.025,38.63L50.018,38.629L50.012,38.628L50.006,38.627L49.999,38.626L49.993,38.626L49.987,38.625L49.981,38.624L49.974,38.623L49.968,38.622L49.962,38.621L49.956,38.62L49.949,38.619L49.943,38.618L49.937,38.617L49.931,38.616L49.925,38.615L49.918,38.613L49.912,38.612L49.906,38.611L49.9,38.61L49.894,38.609L49.887,38.607L49.881,38.606L49.875,38.605L49.869,38.603L49.863,38.602L49.857,38.601L49.85,38.599L49.844,38.598L49.838,38.596L49.832,38.595L49.826,38.593L49.82,38.592L49.814,38.59L49.807,38.589L49.801,38.587L49.795,38.586L49.789,38.584L49.783,38.582L49.777,38.581L49.771,38.579L49.765,38.577L49.759,38.575L49.753,38.574L49.747,38.572L49.741,38.57L49.734,38.568L49.728,38.566L49.722,38.564L49.716,38.562L49.71,38.561L49.704,38.559L49.698,38.557L49.692,38.555L49.686,38.553L49.68,38.551L49.674,38.549L49.668,38.546L49.663,38.544L49.657,38.542L49.651,38.54L49.645,38.538L49.639,38.536L49.633,38.533L49.627,38.531L49.621,38.529L49.615,38.527L49.609,38.524L49.603,38.522L49.598,38.52L49.592,38.517L49.586,38.515L49.58,38.512L49.574,38.51L49.568,38.507L49.563,38.505L49.557,38.502L49.551,38.5L49.545,38.497L49.54,38.495L49.534,38.492L49.528,38.49L49.522,38.487L49.517,38.484L49.511,38.482L49.505,38.479L49.499,38.476L49.494,38.473L49.488,38.471L49.482,38.468L49.477,38.465L49.471,38.462L49.465,38.459L49.46,38.457L49.454,38.454L49.449,38.451L49.443,38.448L49.437,38.445L49.432,38.442L49.426,38.439L49.421,38.436L49.415,38.433L49.41,38.43L49.404,38.427L49.399,38.423L49.393,38.42L49.388,38.417L49.382,38.414L49.377,38.411L49.371,38.408L49.366,38.404L49.361,38.401L49.355,38.398L49.35,38.395L49.344,38.391L49.339,38.388L49.334,38.385L49.328,38.381L49.323,38.378L49.318,38.374L49.312,38.371L49.307,38.368L49.302,38.364L49.297,38.361L49.291,38.357L49.286,38.354L49.281,38.35L49.276,38.346L49.27,38.343L49.265,38.339L49.26,38.336L49.255,38.332L49.25,38.328L49.245,38.325L49.24,38.321L49.234,38.317L49.229,38.313L49.224,38.31L49.219,38.306L49.214,38.302L49.209,38.298L49.204,38.294L49.199,38.291L49.194,38.287L49.189,38.283L49.184,38.279L49.179,38.275L49.174,38.271L49.169,38.267L49.165,38.263L49.16,38.259L49.155,38.255L49.15,38.251L49.145,38.247L49.14,38.243L49.135,38.239L49.131,38.235L49.126,38.23L49.121,38.226L49.116,38.222L49.112,38.218L49.107,38.214L49.102,38.209L49.098,38.205L49.093,38.201L49.088,38.197L49.084,38.192L49.079,38.188L49.074,38.184L49.07,38.179L49.065,38.175L49.061,38.171L49.056,38.166L49.052,38.162L49.047,38.157L49.043,38.153L49.038,38.148L49.034,38.144L49.029,38.14L49.025,38.135L49.021,38.13L49.016,38.126L49.012,38.121L49.007,38.117L49.003,38.112L48.999,38.108L48.994,38.103L48.99,38.098L48.986,38.094L48.982,38.089L48.977,38.084L48.973,38.08L48.969,38.075L48.965,38.07L48.961,38.065L48.957,38.061L48.953,38.056L48.948,38.051L48.944,38.046L48.94,38.041L48.936,38.036L48.932,38.032L48.928,38.027L48.924,38.022L48.92,38.017L48.916,38.012L48.912,38.007L48.908,38.002L48.905,37.997L48.901,37.992L48.897,37.987L48.893,37.982L48.889,37.977L48.885,37.972L48.882,37.967L48.878,37.962L48.874,37.957L48.87,37.952L48.867,37.947L48.863,37.941L48.859,37.936L48.856,37.931L48.852,37.926L48.848,37.921L48.845,37.916L48.841,37.91L48.838,37.905L48.834,37.9L48.831,37.895L48.827,37.889L48.824,37.884L48.82,37.879L48.817,37.874L48.813,37.868L48.81,37.863L48.807,37.858L48.803,37.852L48.8,37.847L48.797,37.841L48.793,37.836L48.79,37.831L48.787,37.825L48.784,37.82L48.78,37.814L48.777,37.809L48.774,37.803L48.771,37.798L48.768,37.792L48.765,37.787L48.762,37.781L48.758,37.776L48.755,37.77L48.752,37.765L48.749,37.759L48.746,37.754L48.743,37.748L48.74,37.743L48.738,37.737L48.735,37.731L48.732,37.726L48.729,37.72L48.726,37.714L48.723,37.709L48.721,37.703L48.718,37.697L48.715,37.692L48.712,37.686L48.71,37.68L48.707,37.675L48.704,37.669L48.702,37.663L48.699,37.657L48.696,37.652L48.694,37.646L48.691,37.64L48.689,37.634L48.686,37.629L48.684,37.623L48.681,37.617L48.679,37.611L48.676,37.605L48.674,37.599L48.672,37.594L48.669,37.588L48.667,37.582L48.665,37.576L48.662,37.57L48.66,37.564L48.658,37.558L48.656,37.552L48.653,37.546L48.651,37.541L48.649,37.535L48.647,37.529L48.645,37.523L48.643,37.517L48.641,37.511L48.639,37.505L48.637,37.499L48.635,37.493L48.633,37.487L48.631,37.481L48.629,37.475L48.627,37.469L48.625,37.463L48.623,37.457L48.621,37.451L48.619,37.445L48.618,37.439L48.616,37.432L48.614,37.426L48.612,37.42L48.611,37.414L48.609,37.408L48.607,37.402L48.606,37.396L48.604,37.39L48.602,37.384L48.601,37.378L48.599,37.372L48.598,37.365L48.596,37.359L48.595,37.353L48.593,37.347L48.592,37.341L48.591,37.335L48.589,37.328L48.588,37.322L48.586,37.316L48.585,37.31L48.584,37.304L48.583,37.298L48.581,37.291L48.58,37.285L48.579,37.279L48.578,37.273L48.577,37.267L48.576,37.26L48.574,37.254L48.573,37.248L48.572,37.242L48.571,37.235L48.57,37.229L48.569,37.223L48.568,37.217L48.567,37.21L48.566,37.204L48.566,37.198L48.565,37.192L48.564,37.185L48.563,37.179L48.562,37.173L48.561,37.167L48.561,37.16L48.56,37.154L48.559,37.148L48.559,37.142L48.558,37.135L48.557,37.129L48.557,37.123L48.556,37.116L48.556,37.11L48.555,37.104L48.555,37.098L48.554,37.091L48.554,37.085L48.553,37.079L48.553,37.072L48.552,37.066L48.552,37.06L48.552,37.053L48.551,37.047L48.551,37.041L48.551,37.034L48.551,37.028L48.55,37.022L48.55,37.016L48.55,37.009L48.55,37.003L48.55,36.997L48.55,36.99L48.549,36.984L48.549,36.978L48.549,36.971L48.549,36.965L48.549,36.959L48.549,36.952L48.549,36.946L48.55,36.94L48.55,36.933L48.55,36.927L48.55,36.921L48.55,36.915L48.55,36.908L48.551,36.902L48.551,36.896L48.551,36.889L48.551,36.883L48.552,36.877L48.552,36.87L48.552,36.864L48.553,36.858L48.553,36.851L48.554,36.845L48.554,36.839L48.555,36.833L48.555,36.826L48.556,36.82L48.556,36.814L48.557,36.807L48.557,36.801L48.558,36.795L48.559,36.788L48.559,36.782L48.56,36.776L48.561,36.77L48.561,36.763L48.562,36.757L48.563,36.751L48.564,36.745L48.565,36.738L48.566,36.732L48.566,36.726L48.567,36.72L48.568,36.713L48.569,36.707L48.57,36.701L48.571,36.695L48.572,36.688L48.573,36.682L48.574,36.676L48.576,36.67L48.577,36.663L48.578,36.657L48.579,36.651L48.58,36.645L48.581,36.639L48.583,36.632L48.584,36.626L48.585,36.62L48.586,36.614L48.588,36.608L48.589,36.602L48.591,36.595L48.592,36.589L48.593,36.583L48.595,36.577L48.596,36.571L48.598,36.565L48.599,36.559L48.601,36.552L48.602,36.546L48.604,36.54L48.606,36.534L48.607,36.528L48.609,36.522L48.611,36.516L48.612,36.51L48.614,36.504L48.616,36.498L48.618,36.492L48.619,36.485L48.621,36.479L48.623,36.473L48.625,36.467L48.627,36.461L48.629,36.455L48.631,36.449L48.633,36.443L48.635,36.437L48.637,36.431L48.639,36.425L48.641,36.419L48.643,36.413L48.645,36.407L48.647,36.401L48.649,36.395L48.651,36.39L48.653,36.384L48.656,36.378L48.658,36.372L48.66,36.366L48.662,36.36L48.665,36.354L48.667,36.348L48.669,36.342L48.672,36.336L48.674,36.331L48.676,36.325L48.679,36.319L48.681,36.313L48.684,36.307L48.686,36.302L48.689,36.296L48.691,36.29L48.694,36.284L48.696,36.278L48.699,36.273L48.702,36.267L48.704,36.261L48.707,36.255L48.71,36.25L48.712,36.244L48.715,36.238L48.718,36.233L48.721,36.227L48.723,36.221L48.726,36.216L48.729,36.21L48.732,36.204L48.735,36.199L48.738,36.193L48.74,36.187L48.743,36.182L48.746,36.176L48.749,36.171L48.752,36.165L48.755,36.16L48.758,36.154L48.762,36.149L48.765,36.143L48.768,36.138L48.771,36.132L48.774,36.127L48.777,36.121L48.78,36.116L48.784,36.11L48.787,36.105L48.79,36.099L48.793,36.094L48.797,36.089L48.8,36.083L48.803,36.078L48.807,36.073L48.81,36.067L48.813,36.062L48.817,36.057L48.82,36.051L48.824,36.046L48.827,36.041L48.831,36.035L48.834,36.03L48.838,36.025L48.841,36.02L48.845,36.014L48.848,36.009L48.852,36.004L48.856,35.999L48.859,35.994L48.863,35.989L48.867,35.984L48.87,35.978L48.874,35.973L48.878,35.968L48.882,35.963L48.885,35.958L48.889,35.953L48.893,35.948L48.897,35.943L48.901,35.938L48.905,35.933L48.908,35.928L48.912,35.923L48.916,35.918L48.92,35.913L48.924,35.908L48.928,35.903L48.932,35.899L48.936,35.894L48.94,35.889L48.944,35.884L48.948,35.879L48.953,35.874L48.957,35.87L48.961,35.865L48.965,35.86L48.969,35.855L48.973,35.851L48.977,35.846L48.982,35.841L48.986,35.836L48.99,35.832L48.994,35.827L48.999,35.823L49.003,35.818L49.007,35.813L49.012,35.809L49.016,35.804L49.021,35.8L49.025,35.795L49.029,35.791L49.034,35.786L49.038,35.782L49.043,35.777L49.047,35.773L49.052,35.768L49.056,35.764L49.061,35.759L49.065,35.755L49.07,35.751L49.074,35.746L49.079,35.742L49.084,35.738L49.088,35.733L49.093,35.729L49.098,35.725L49.102,35.721L49.107,35.716L49.112,35.712L49.116,35.708L49.121,35.704L49.126,35.7L49.131,35.696L49.135,35.691L49.14,35.687L49.145,35.683L49.15,35.679L49.155,35.675L49.16,35.671L49.165,35.667L49.169,35.663L49.174,35.659L49.179,35.655L49.184,35.651L49.189,35.647L49.194,35.643L49.199,35.64L49.204,35.636L49.209,35.632L49.214,35.628L49.219,35.624L49.224,35.62L49.229,35.617L49.234,35.613L49.24,35.609L49.245,35.605L49.25,35.602L49.255,35.598L49.26,35.594L49.265,35.591L49.27,35.587L49.276,35.584L49.281,35.58L49.286,35.577L49.291,35.573L49.297,35.569L49.302,35.566L49.307,35.563L49.312,35.559L49.318,35.556L49.323,35.552L49.328,35.549L49.334,35.545L49.339,35.542L49.344,35.539L49.35,35.535L49.355,35.532L49.361,35.529L49.366,35.526L49.371,35.522L49.377,35.519L49.382,35.516L49.388,35.513L49.393,35.51L49.399,35.507L49.404,35.503L49.41,35.5L49.415,35.497L49.421,35.494L49.426,35.491L49.432,35.488L49.437,35.485L49.443,35.482L49.449,35.479L49.454,35.476L49.46,35.474L49.465,35.471L49.471,35.468L49.477,35.465L49.482,35.462L49.488,35.459L49.494,35.457L49.499,35.454L49.505,35.451L49.511,35.448L49.517,35.446L49.522,35.443L49.528,35.44L49.534,35.438L49.54,35.435L49.545,35.433L49.551,35.43L49.557,35.428L49.563,35.425L49.568,35.423L49.574,35.42L49.58,35.418L49.586,35.415L49.592,35.413L49.598,35.41L49.603,35.408L49.609,35.406L49.615,35.403L49.621,35.401L49.627,35.399L49.633,35.397L49.639,35.394L49.645,35.392L49.651,35.39L49.657,35.388L49.663,35.386L49.668,35.384L49.674,35.382L49.68,35.379L49.686,35.377L49.692,35.375L49.698,35.373L49.704,35.371L49.71,35.369L49.716,35.368L49.722,35.366L49.728,35.364L49.734,35.362L49.741,35.36L49.747,35.358L49.753,35.356L49.759,35.355L49.765,35.353L49.771,35.351L49.777,35.349L49.783,35.348L49.789,35.346L49.795,35.345L49.801,35.343L49.807,35.341L49.814,35.34L49.82,35.338L49.826,35.337L49.832,35.335L49.838,35.334L49.844,35.332L49.85,35.331L49.857,35.329L49.863,35.328L49.869,35.327L49.875,35.325L49.881,35.324L49.887,35.323L49.894,35.322L49.9,35.32L49.906,35.319L49.912,35.318L49.918,35.317L49.925,35.316L49.931,35.314L49.937,35.313L49.943,35.312L49.949,35.311L49.956,35.31L49.962,35.309L49.968,35.308L49.974,35.307L49.981,35.306L49.987,35.305L49.993,35.304L49.999,35.304L50.006,35.303L50.012,35.302L50.018,35.301L50.025,35.3L50.031,35.3L50.037,35.299L50.043,35.298L50.05,35.298L50.056,35.297L50.062,35.296L50.068,35.296L50.075,35.295L50.081,35.294L50.087,35.294L50.094,35.293L50.1,35.293L50.106,35.292L50.113,35.292L50.119,35.292L50.125,35.291L50.131,35.291L50.138,35.291L50.144,35.29L50.15,35.29L50.157,35.29L50.163,35.289L50.169,35.289L50.176,35.289L50.182,35.289L50.188,35.289L50.195,35.288L50.201,35.288L50.207,35.288L50.214,35.288L50.22,35.288L50.226,35.288L50.283,35.288Z" style="fill:#384c6f;"/>
        </g>
        <g transform="matrix(29.9155,0,0,22.4367,97.4655,174.376)">
            <path d="M46.679,36.283L46.699,36.283L46.719,36.284L46.739,36.286L46.759,36.289L46.779,36.292L46.798,36.296L46.818,36.301L46.837,36.307L46.856,36.313L46.875,36.32L46.894,36.327L46.912,36.335L46.93,36.344L46.948,36.353L46.965,36.364L46.982,36.374L46.999,36.385L47.015,36.397L47.03,36.41L47.046,36.423L47.061,36.436L47.075,36.45L47.089,36.465L47.102,36.48L47.115,36.496L47.127,36.512L47.138,36.528L47.149,36.545L47.16,36.562L47.169,36.58L47.178,36.597L47.187,36.616L47.195,36.634L47.202,36.653L47.208,36.672L47.214,36.691L47.219,36.711L47.223,36.73L47.227,36.75L47.23,36.77L47.232,36.79L47.234,36.81L47.234,36.83L47.235,36.84L47.235,36.845L47.235,36.85L47.234,36.855L47.234,36.86L47.234,36.865L47.234,36.87L47.234,36.875L47.233,36.88L47.233,36.885L47.233,36.89L47.232,36.895L47.232,36.9L47.231,36.905L47.23,36.91L47.23,36.915L47.229,36.92L47.228,36.925L47.228,36.93L47.227,36.935L47.226,36.94L47.225,36.945L47.224,36.949L47.223,36.954L47.222,36.959L47.221,36.964L47.22,36.969L47.219,36.974L47.218,36.979L47.216,36.984L47.215,36.989L47.214,36.994L47.212,36.998L47.211,37.003L47.21,37.008L47.208,37.013L47.207,37.017L47.205,37.022L47.204,37.027L47.202,37.031L47.2,37.036L47.199,37.041L47.197,37.045L47.195,37.05L47.193,37.054L47.192,37.059L47.189,37.064L47.188,37.069L47.186,37.073L47.184,37.078L47.182,37.082L47.18,37.086L47.178,37.091L47.176,37.095L47.173,37.1L47.171,37.104L47.169,37.108L47.167,37.113L47.165,37.117L47.162,37.121L47.16,37.125L47.158,37.13L47.155,37.134L47.152,37.14L47.151,37.141L47.15,37.146L47.148,37.15L47.146,37.155L47.144,37.16L47.142,37.164L47.14,37.169L47.138,37.174L47.136,37.178L47.134,37.183L47.132,37.187L47.13,37.192L47.128,37.196L47.126,37.201L47.124,37.205L47.121,37.21L47.119,37.214L47.117,37.219L47.114,37.223L47.112,37.228L47.109,37.232L47.107,37.236L47.104,37.241L47.102,37.245L47.099,37.249L47.097,37.253L47.094,37.258L47.091,37.262L47.088,37.266L47.086,37.27L47.083,37.274L47.08,37.278L47.077,37.283L47.074,37.287L47.071,37.291L47.068,37.295L47.065,37.299L47.062,37.303L47.059,37.306L47.055,37.31L47.052,37.314L47.049,37.318L47.046,37.322L47.042,37.326L47.039,37.329L47.036,37.333L47.032,37.337L47.029,37.34L47.025,37.344L47.022,37.348L47.018,37.351L47.015,37.355L47.011,37.358L47.007,37.362L47.004,37.365L47,37.368L46.996,37.372L46.993,37.375L46.989,37.378L46.985,37.382L46.981,37.385L46.977,37.388L46.973,37.391L46.969,37.394L46.965,37.397L46.961,37.4L46.957,37.403L46.953,37.406L46.949,37.409L46.945,37.412L46.941,37.415L46.937,37.418L46.933,37.421L46.929,37.423L46.924,37.426L46.92,37.429L46.916,37.431L46.912,37.434L46.907,37.437L46.903,37.439L46.899,37.442L46.894,37.444L46.89,37.446L46.885,37.449L46.881,37.451L46.876,37.453L46.872,37.456L46.867,37.458L46.863,37.46L46.858,37.462L46.854,37.464L46.849,37.466L46.845,37.468L46.84,37.47L46.835,37.472L46.831,37.474L46.826,37.476L46.821,37.478L46.817,37.479L46.812,37.481L46.807,37.483L46.802,37.484L46.798,37.486L46.793,37.488L46.788,37.489L46.783,37.49L46.778,37.492L46.774,37.493L46.769,37.495L46.764,37.496L46.759,37.497L46.754,37.498L46.749,37.499L46.744,37.5L46.74,37.502L46.735,37.503L46.73,37.504L46.725,37.504L46.72,37.505L46.715,37.506L46.71,37.507L46.705,37.508L46.7,37.508L46.695,37.509L46.69,37.51L46.685,37.51L46.68,37.511L46.675,37.511L46.67,37.512L46.665,37.512L46.66,37.512L46.655,37.513L46.65,37.513L46.645,37.513L46.64,37.513L46.635,37.513L46.63,37.514L46.625,37.514L46.62,37.514L46.615,37.513L46.61,37.513L46.605,37.513L46.6,37.513L46.595,37.513L46.59,37.513L46.585,37.512L46.58,37.512L46.575,37.511L46.57,37.511L46.565,37.51L46.56,37.51L46.555,37.509L46.55,37.509L46.545,37.508L46.54,37.507L46.535,37.506L46.53,37.506L46.525,37.505L46.52,37.504L46.515,37.503L46.51,37.502L46.505,37.501L46.501,37.5L46.496,37.499L46.491,37.497L46.486,37.496L46.481,37.495L46.476,37.494L46.471,37.492L46.467,37.491L46.462,37.489L46.457,37.488L46.452,37.486L46.447,37.485L46.443,37.483L46.438,37.482L46.433,37.48L46.429,37.478L46.424,37.476L46.419,37.475L46.415,37.473L46.41,37.471L46.405,37.469L46.401,37.467L46.396,37.465L46.391,37.463L46.387,37.461L46.382,37.459L46.378,37.456L46.373,37.454L46.369,37.452L46.364,37.45L46.36,37.447L46.356,37.445L46.351,37.442L46.347,37.44L46.343,37.437L46.338,37.435L46.334,37.432L46.33,37.43L46.325,37.427L46.321,37.424L46.317,37.422L46.313,37.419L46.309,37.416L46.304,37.413L46.3,37.41L46.296,37.407L46.292,37.404L46.288,37.401L46.284,37.398L46.28,37.395L46.276,37.392L46.272,37.389L46.269,37.386L46.265,37.383L46.261,37.379L46.257,37.376L46.253,37.373L46.25,37.369L46.246,37.366L46.242,37.363L46.238,37.359L46.235,37.356L46.231,37.352L46.228,37.349L46.224,37.345L46.221,37.341L46.217,37.338L46.214,37.334L46.21,37.33L46.207,37.327L46.204,37.323L46.2,37.319L46.197,37.315L46.194,37.312L46.191,37.308L46.188,37.304L46.185,37.3L46.181,37.296L46.178,37.292L46.175,37.288L46.172,37.284L46.17,37.28L46.167,37.276L46.164,37.272L46.161,37.267L46.158,37.263L46.155,37.259L46.153,37.255L46.15,37.251L46.147,37.246L46.145,37.242L46.142,37.238L46.14,37.233L46.137,37.229L46.135,37.225L46.132,37.22L46.13,37.216L46.128,37.211L46.125,37.207L46.123,37.202L46.121,37.198L46.119,37.193L46.117,37.189L46.115,37.184L46.113,37.18L46.111,37.175L46.109,37.17L46.107,37.166L46.105,37.161L46.103,37.156L46.101,37.152L46.099,37.147L46.098,37.142L46.096,37.138L46.094,37.133L46.093,37.128L46.091,37.123L46.09,37.119L46.088,37.114L46.087,37.109L46.086,37.104L46.084,37.099L46.083,37.094L46.082,37.09L46.081,37.085L46.079,37.08L46.078,37.075L46.077,37.07L46.076,37.065L46.075,37.06L46.074,37.055L46.073,37.05L46.073,37.045L46.072,37.04L46.071,37.035L46.07,37.03L46.07,37.025L46.069,37.02L46.069,37.016L46.068,37.011L46.068,37.006L46.067,37.001L46.067,36.996L46.066,36.991L46.066,36.986L46.066,36.98L46.066,36.975L46.065,36.97L46.065,36.965L46.065,36.96L46.065,36.955L46.065,36.95L46.065,36.945L46.065,36.94L46.066,36.935L46.066,36.93L46.066,36.925L46.067,36.915L46.067,36.91L46.067,36.906L46.067,36.901L46.068,36.896L46.068,36.891L46.069,36.886L46.069,36.882L46.07,36.877L46.071,36.872L46.071,36.867L46.072,36.862L46.073,36.858L46.074,36.848L46.075,36.843L46.076,36.838L46.077,36.833L46.078,36.828L46.079,36.823L46.08,36.819L46.081,36.814L46.082,36.809L46.083,36.804L46.084,36.799L46.085,36.794L46.088,36.785L46.089,36.781L46.09,36.776L46.091,36.772L46.093,36.768L46.094,36.763L46.095,36.759L46.097,36.755L46.098,36.75L46.099,36.746L46.101,36.741L46.103,36.737L46.106,36.729L46.107,36.724L46.109,36.72L46.111,36.715L46.112,36.711L46.114,36.706L46.116,36.702L46.118,36.697L46.12,36.693L46.122,36.688L46.124,36.684L46.126,36.679L46.128,36.675L46.13,36.671L46.138,36.655L46.14,36.651L46.142,36.647L46.144,36.642L46.146,36.638L46.149,36.634L46.151,36.63L46.153,36.626L46.156,36.622L46.158,36.618L46.16,36.614L46.163,36.61L46.165,36.606L46.168,36.602L46.182,36.579L46.183,36.579L46.185,36.574L46.187,36.57L46.19,36.565L46.192,36.561L46.195,36.557L46.197,36.552L46.2,36.548L46.203,36.544L46.205,36.54L46.208,36.535L46.211,36.531L46.214,36.527L46.217,36.523L46.219,36.519L46.222,36.515L46.225,36.511L46.228,36.507L46.231,36.503L46.234,36.499L46.237,36.495L46.241,36.491L46.244,36.487L46.247,36.483L46.25,36.479L46.253,36.475L46.257,36.472L46.26,36.468L46.263,36.464L46.267,36.461L46.27,36.457L46.274,36.453L46.277,36.45L46.281,36.446L46.284,36.443L46.288,36.439L46.292,36.436L46.295,36.432L46.299,36.429L46.303,36.425L46.306,36.422L46.31,36.419L46.314,36.416L46.318,36.412L46.322,36.409L46.326,36.406L46.33,36.403L46.334,36.4L46.338,36.397L46.342,36.394L46.346,36.391L46.35,36.388L46.354,36.385L46.358,36.382L46.362,36.379L46.366,36.376L46.37,36.374L46.375,36.371L46.379,36.368L46.383,36.366L46.387,36.363L46.392,36.36L46.396,36.358L46.4,36.355L46.405,36.353L46.409,36.35L46.414,36.348L46.418,36.346L46.422,36.343L46.427,36.341L46.431,36.339L46.436,36.337L46.44,36.335L46.445,36.333L46.45,36.331L46.454,36.329L46.459,36.327L46.463,36.325L46.468,36.323L46.473,36.321L46.477,36.319L46.482,36.317L46.487,36.316L46.492,36.314L46.496,36.312L46.501,36.311L46.506,36.309L46.511,36.308L46.515,36.306L46.52,36.305L46.525,36.303L46.53,36.302L46.535,36.301L46.54,36.3L46.545,36.298L46.549,36.297L46.554,36.296L46.559,36.295L46.564,36.294L46.569,36.293L46.574,36.292L46.579,36.291L46.584,36.29L46.589,36.29L46.594,36.289L46.599,36.288L46.604,36.287L46.609,36.287L46.614,36.286L46.619,36.286L46.624,36.285L46.629,36.285L46.634,36.284L46.639,36.284L46.644,36.284L46.649,36.283L46.654,36.283L46.659,36.283L46.664,36.283L46.669,36.283L46.674,36.283L46.679,36.283ZM47.182,36.989L47.182,36.994L47.181,36.999L47.181,37.004L47.181,37.008L47.181,37.003L47.182,36.984L47.182,36.989ZM46.142,36.672L46.134,36.705L46.135,36.7L46.136,36.695L46.138,36.69L46.139,36.685L46.141,36.68L46.142,36.676L46.143,36.671L46.145,36.666L46.147,36.661L46.148,36.657L46.142,36.672Z" style="fill:#384c6f;"/>
        </g>
        <g transform="matrix(29.9155,0,0,22.4367,245.849,262.11)">
            <text x="10.829px" y="55.533px" style="font-family:'Helvetica';font-size:12.833px;fill:#384c6f;">I</text>
            <text x="14.395px" y="55.533px" style="font-family:'Helvetica';font-size:9.356px;fill:#384c6f;">DEATE</text>
        </g>
        <g transform="matrix(29.9155,0,0,22.4367,97.4655,174.376)">
            <path d="M44.755,36.396L44.778,36.396L44.801,36.398L44.824,36.4L44.85,36.404L44.872,36.408L44.895,36.414L44.917,36.42L44.939,36.427L44.96,36.435L44.981,36.444L45.002,36.453L45.022,36.464L45.045,36.477L45.064,36.489L45.083,36.502L45.101,36.515L45.119,36.53L45.136,36.545L45.152,36.56L45.168,36.577L45.183,36.594L45.198,36.612L45.211,36.63L45.224,36.649L45.238,36.67L45.249,36.69L45.26,36.71L45.269,36.73L45.278,36.751L45.286,36.772L45.293,36.794L45.3,36.815L45.305,36.837L45.31,36.863L45.314,36.885L45.316,36.908L45.318,36.93L45.319,36.953L45.319,36.961L45.319,36.965L45.319,36.968L45.319,36.972L45.319,36.976L45.319,36.98L45.318,36.984L45.318,36.987L45.318,36.991L45.318,36.995L45.318,36.999L45.317,37.002L45.317,37.006L45.317,37.01L45.316,37.014L45.316,37.018L45.316,37.021L45.315,37.025L45.315,37.029L45.314,37.033L45.313,37.04L45.313,37.044L45.312,37.048L45.312,37.052L45.311,37.056L45.311,37.059L45.31,37.063L45.309,37.067L45.309,37.071L45.308,37.074L45.307,37.078L45.307,37.082L45.306,37.086L45.305,37.089L45.304,37.093L45.303,37.097L45.302,37.1L45.301,37.104L45.301,37.108L45.3,37.111L45.299,37.115L45.298,37.119L45.297,37.122L45.296,37.126L45.294,37.13L45.293,37.133L45.292,37.137L45.284,37.162L45.283,37.165L45.282,37.168L45.281,37.172L45.28,37.176L45.279,37.179L45.278,37.183L45.277,37.187L45.276,37.19L45.275,37.194L45.273,37.198L45.272,37.201L45.271,37.205L45.27,37.209L45.268,37.212L45.267,37.216L45.266,37.219L45.264,37.223L45.263,37.226L45.261,37.23L45.26,37.234L45.259,37.237L45.257,37.241L45.255,37.244L45.254,37.248L45.252,37.251L45.251,37.255L45.249,37.258L45.248,37.261L45.246,37.265L45.244,37.268L45.242,37.272L45.241,37.275L45.239,37.279L45.237,37.282L45.235,37.285L45.234,37.289L45.232,37.292L45.23,37.295L45.228,37.299L45.226,37.302L45.224,37.305L45.222,37.309L45.22,37.312L45.218,37.315L45.216,37.318L45.214,37.322L45.212,37.325L45.21,37.328L45.208,37.331L45.206,37.334L45.203,37.338L45.201,37.341L45.199,37.344L45.197,37.347L45.195,37.35L45.192,37.353L45.19,37.356L45.188,37.359L45.185,37.362L45.183,37.365L45.181,37.368L45.178,37.371L45.176,37.374L45.173,37.377L45.171,37.38L45.168,37.383L45.166,37.386L45.163,37.389L45.161,37.392L45.158,37.394L45.156,37.397L45.153,37.4L45.151,37.403L45.148,37.406L45.145,37.408L45.143,37.411L45.14,37.414L45.137,37.417L45.135,37.419L45.132,37.422L45.129,37.425L45.126,37.427L45.123,37.43L45.121,37.432L45.118,37.435L45.115,37.438L45.112,37.44L45.109,37.443L45.106,37.445L45.103,37.448L45.1,37.45L45.098,37.453L45.095,37.455L45.092,37.457L45.089,37.46L45.086,37.462L45.083,37.464L45.079,37.467L45.076,37.469L45.073,37.471L45.07,37.473L45.067,37.476L45.064,37.478L45.061,37.48L45.058,37.482L45.055,37.484L45.051,37.487L45.048,37.489L45.045,37.491L45.042,37.493L45.038,37.495L45.035,37.497L45.032,37.499L45.029,37.501L45.025,37.503L45.022,37.505L45.019,37.506L45.015,37.508L45.012,37.51L45.009,37.512L45.005,37.514L45.002,37.516L44.999,37.517L44.995,37.519L44.992,37.521L44.988,37.523L44.985,37.524L44.981,37.526L44.978,37.527L44.974,37.529L44.971,37.531L44.967,37.532L44.964,37.534L44.96,37.535L44.957,37.537L44.953,37.538L44.95,37.54L44.946,37.541L44.943,37.542L44.939,37.544L44.935,37.545L44.932,37.546L44.928,37.548L44.925,37.549L44.921,37.55L44.917,37.551L44.914,37.552L44.91,37.554L44.906,37.555L44.903,37.556L44.899,37.557L44.895,37.558L44.892,37.559L44.888,37.56L44.884,37.561L44.881,37.562L44.877,37.563L44.873,37.564L44.869,37.565L44.866,37.565L44.862,37.566L44.858,37.567L44.855,37.568L44.851,37.569L44.847,37.569L44.843,37.57L44.84,37.571L44.836,37.571L44.832,37.572L44.828,37.573L44.824,37.573L44.821,37.574L44.817,37.574L44.813,37.575L44.809,37.575L44.805,37.576L44.802,37.576L44.798,37.576L44.794,37.577L44.79,37.577L44.786,37.577L44.783,37.578L44.779,37.578L44.775,37.578L44.771,37.578L44.767,37.578L44.763,37.579L44.76,37.579L44.756,37.579L44.752,37.579L44.748,37.579L44.744,37.579L44.741,37.579L44.737,37.579L44.733,37.579L44.729,37.579L44.725,37.579L44.721,37.579L44.718,37.578L44.714,37.578L44.71,37.578L44.706,37.578L44.702,37.577L44.698,37.577L44.695,37.577L44.691,37.577L44.687,37.576L44.683,37.576L44.679,37.575L44.676,37.575L44.672,37.574L44.668,37.574L44.664,37.573L44.66,37.573L44.657,37.572L44.653,37.572L44.649,37.571L44.645,37.57L44.642,37.57L44.638,37.569L44.634,37.568L44.63,37.567L44.627,37.567L44.623,37.566L44.619,37.565L44.615,37.564L44.612,37.563L44.608,37.562L44.604,37.561L44.601,37.56L44.597,37.559L44.593,37.558L44.59,37.557L44.586,37.556L44.582,37.555L44.579,37.554L44.575,37.553L44.571,37.552L44.568,37.551L44.564,37.549L44.56,37.548L44.557,37.547L44.553,37.546L44.55,37.544L44.546,37.543L44.542,37.542L44.539,37.54L44.535,37.539L44.532,37.537L44.528,37.536L44.525,37.534L44.521,37.533L44.518,37.531L44.514,37.53L44.511,37.528L44.507,37.527L44.504,37.525L44.5,37.523L44.497,37.522L44.493,37.52L44.49,37.518L44.487,37.516L44.483,37.515L44.48,37.513L44.476,37.511L44.473,37.509L44.47,37.507L44.466,37.506L44.463,37.504L44.46,37.502L44.456,37.5L44.453,37.498L44.45,37.496L44.447,37.494L44.443,37.492L44.44,37.49L44.437,37.488L44.434,37.485L44.431,37.483L44.428,37.481L44.424,37.479L44.421,37.477L44.418,37.475L44.415,37.472L44.412,37.47L44.409,37.468L44.406,37.466L44.403,37.463L44.4,37.461L44.397,37.458L44.394,37.456L44.391,37.454L44.388,37.451L44.385,37.449L44.382,37.446L44.379,37.444L44.376,37.441L44.373,37.439L44.37,37.436L44.368,37.434L44.365,37.431L44.362,37.429L44.359,37.426L44.356,37.423L44.354,37.421L44.351,37.418L44.348,37.415L44.345,37.413L44.343,37.41L44.34,37.407L44.337,37.404L44.335,37.402L44.332,37.399L44.33,37.396L44.327,37.393L44.325,37.39L44.322,37.387L44.32,37.384L44.317,37.382L44.315,37.379L44.312,37.376L44.31,37.373L44.307,37.37L44.305,37.367L44.303,37.364L44.3,37.361L44.298,37.358L44.296,37.355L44.293,37.352L44.291,37.348L44.289,37.345L44.287,37.342L44.284,37.339L44.282,37.336L44.28,37.333L44.278,37.33L44.276,37.326L44.274,37.323L44.272,37.32L44.27,37.317L44.268,37.313L44.266,37.31L44.264,37.307L44.262,37.304L44.26,37.3L44.258,37.297L44.256,37.294L44.254,37.29L44.252,37.287L44.251,37.284L44.249,37.28L44.247,37.277L44.245,37.273L44.243,37.27L44.242,37.267L44.24,37.263L44.238,37.26L44.237,37.256L44.235,37.253L44.234,37.249L44.232,37.246L44.231,37.242L44.229,37.239L44.228,37.235L44.226,37.232L44.225,37.228L44.223,37.225L44.222,37.221L44.22,37.217L44.219,37.214L44.218,37.21L44.217,37.207L44.215,37.203L44.214,37.199L44.213,37.196L44.212,37.192L44.21,37.189L44.209,37.185L44.208,37.181L44.207,37.178L44.206,37.174L44.205,37.17L44.204,37.167L44.203,37.163L44.202,37.159L44.201,37.155L44.2,37.152L44.199,37.148L44.198,37.144L44.198,37.141L44.197,37.137L44.196,37.133L44.195,37.129L44.195,37.126L44.194,37.122L44.193,37.118L44.192,37.114L44.192,37.11L44.191,37.107L44.191,37.103L44.19,37.099L44.19,37.095L44.189,37.092L44.189,37.088L44.188,37.084L44.188,37.08L44.187,37.076L44.187,37.073L44.187,37.069L44.186,37.065L44.186,37.061L44.186,37.057L44.185,37.053L44.185,37.05L44.185,37.046L44.185,37.042L44.185,37.038L44.185,37.034L44.185,37.031L44.185,37.027L44.184,37.023L44.184,37.019L44.184,37.015L44.185,37.011L44.185,37.008L44.185,37.004L44.185,37L44.185,36.996L44.185,36.992L44.185,36.988L44.186,36.985L44.186,36.981L44.186,36.977L44.186,36.973L44.187,36.969L44.187,36.966L44.188,36.962L44.188,36.958L44.188,36.954L44.189,36.95L44.189,36.947L44.19,36.943L44.191,36.934L44.192,36.93L44.192,36.926L44.193,36.923L44.193,36.919L44.194,36.915L44.195,36.912L44.195,36.91L44.195,36.908L44.195,36.904L44.196,36.9L44.196,36.896L44.197,36.892L44.197,36.889L44.197,36.885L44.198,36.881L44.198,36.877L44.199,36.873L44.2,36.87L44.2,36.866L44.201,36.862L44.201,36.858L44.202,36.855L44.203,36.851L44.204,36.847L44.204,36.843L44.205,36.84L44.206,36.836L44.207,36.832L44.208,36.828L44.208,36.825L44.209,36.821L44.21,36.817L44.211,36.813L44.212,36.81L44.213,36.806L44.214,36.802L44.215,36.799L44.216,36.795L44.217,36.791L44.219,36.788L44.22,36.784L44.221,36.78L44.222,36.777L44.223,36.773L44.225,36.77L44.226,36.766L44.227,36.762L44.228,36.759L44.23,36.755L44.231,36.752L44.233,36.748L44.234,36.745L44.235,36.741L44.237,36.737L44.238,36.734L44.24,36.73L44.242,36.727L44.243,36.723L44.245,36.72L44.246,36.717L44.248,36.713L44.25,36.71L44.251,36.706L44.253,36.703L44.255,36.699L44.257,36.696L44.258,36.693L44.26,36.689L44.262,36.686L44.264,36.682L44.266,36.679L44.268,36.676L44.269,36.673L44.271,36.669L44.273,36.666L44.275,36.663L44.277,36.659L44.279,36.656L44.281,36.653L44.284,36.65L44.286,36.647L44.288,36.643L44.29,36.64L44.292,36.637L44.294,36.634L44.296,36.631L44.299,36.628L44.301,36.625L44.303,36.621L44.305,36.618L44.308,36.615L44.31,36.612L44.312,36.609L44.315,36.606L44.317,36.603L44.32,36.6L44.322,36.597L44.325,36.594L44.327,36.592L44.33,36.589L44.332,36.586L44.335,36.583L44.337,36.58L44.34,36.577L44.342,36.574L44.345,36.572L44.348,36.569L44.35,36.566L44.353,36.563L44.356,36.561L44.358,36.558L44.361,36.555L44.364,36.553L44.366,36.55L44.369,36.547L44.372,36.545L44.375,36.542L44.378,36.54L44.381,36.537L44.383,36.534L44.386,36.532L44.389,36.529L44.392,36.527L44.395,36.524L44.398,36.522L44.401,36.52L44.404,36.517L44.407,36.515L44.41,36.513L44.413,36.51L44.416,36.508L44.419,36.506L44.422,36.503L44.425,36.501L44.428,36.499L44.432,36.497L44.435,36.494L44.438,36.492L44.441,36.49L44.444,36.488L44.447,36.486L44.451,36.484L44.454,36.482L44.457,36.48L44.46,36.478L44.464,36.476L44.467,36.474L44.47,36.472L44.473,36.47L44.477,36.468L44.48,36.466L44.483,36.464L44.487,36.463L44.49,36.461L44.494,36.459L44.497,36.457L44.5,36.455L44.504,36.454L44.507,36.452L44.511,36.45L44.514,36.449L44.518,36.447L44.521,36.446L44.525,36.444L44.528,36.442L44.532,36.441L44.535,36.439L44.539,36.438L44.542,36.436L44.546,36.435L44.549,36.434L44.553,36.432L44.556,36.431L44.56,36.43L44.564,36.428L44.567,36.427L44.571,36.426L44.574,36.425L44.578,36.423L44.582,36.422L44.585,36.421L44.589,36.42L44.593,36.419L44.596,36.418L44.6,36.417L44.604,36.416L44.607,36.415L44.611,36.414L44.615,36.413L44.619,36.412L44.622,36.411L44.626,36.41L44.63,36.409L44.633,36.408L44.637,36.408L44.641,36.407L44.645,36.406L44.648,36.405L44.652,36.405L44.656,36.404L44.66,36.403L44.664,36.403L44.667,36.402L44.671,36.401L44.675,36.401L44.679,36.4L44.682,36.4L44.686,36.399L44.69,36.399L44.694,36.399L44.698,36.398L44.702,36.398L44.705,36.398L44.709,36.397L44.713,36.397L44.717,36.397L44.721,36.396L44.724,36.396L44.728,36.396L44.732,36.396L44.736,36.396L44.74,36.396L44.744,36.396L44.747,36.396L44.751,36.396L44.755,36.396ZM45.296,37.101L45.296,37.105L45.295,37.109L45.295,37.112L45.294,37.116L45.293,37.12L45.293,37.124L45.292,37.127L45.291,37.131L45.29,37.135L45.29,37.139L45.289,37.142L45.288,37.145L45.292,37.132L45.297,37.097L45.296,37.101Z" style="fill:#384c6f;"/>
        </g>
    </g>
</svg>
