<svg xmlns="http://www.w3.org/2000/svg" width="512" height="512" viewBox="0 0 430.117 430.118"><path d="M398.355 0H31.782C14.23 0 .002 13.793.002 30.817v368.47c0 17.025 14.232 30.83 31.78 30.83h366.573c17.55 0 31.76-13.814 31.76-30.83V30.817c0-17.02-14.21-30.817-31.76-30.817zM130.4 360.038H65.413V165.845H130.4v194.193zM97.913 139.315h-.437c-21.793 0-35.92-14.904-35.92-33.563 0-19.035 14.542-33.535 36.767-33.535s35.9 14.496 36.33 33.535c0 18.663-14.1 33.563-36.74 33.563zM364.66 360.038h-64.966v-103.9c0-26.107-9.413-43.92-32.907-43.92-17.973 0-28.642 12.018-33.327 23.62-1.736 4.144-2.166 9.94-2.166 15.728v108.468H166.34V165.842h64.964v27.53c8.624-13.23 24.035-32.1 58.534-32.1 42.76 0 74.822 27.74 74.822 87.414v111.35zM230.883 194c.11-.182.266-.4.42-.614V194h-.42z" fill="#fff"/></svg>