<svg xmlns="http://www.w3.org/2000/svg" width="100%" height="100%" viewBox="0 0 64 64" fill-rule="evenodd" stroke-linecap="round" stroke-linejoin="round" stroke-miterlimit="1.5"><path d="M62.393 63.493c0 .134-4.996-39.872-4.996-39.872l-.005-.074 2.194-21.9-19.9 9.403.014-.027-20.08-9.376 3.388 21.9h-.044l-6.097 20v.687L33.524 32l-3.2 18.773.018.135 3.384 11.917C39.7 85.18 62.24 64.31 62.393 64" fill="#f4f2ee" stroke="#0a0000" stroke-width="2.75"/><path d="M32.36 15.722l.084.006.04.006.042.006.082.016.08.02.04.012.04.014.04.015.04.017.038.017.037.018.038.02.036.02.036.022.035.023.034.024.034.025.033.026.032.027.03.028.06.06.056.062.052.066.024.034.024.035.022.035.022.036.04.074.018.038.017.04.015.038.015.04.013.04.012.04.02.08.008.04.007.042.006.04.005.042.003.042.002.042-.002 3.365-.003.042-.005.042-.006.04-.007.042-.008.04-.02.08-.012.04-.013.04-.03.078-.017.04-.018.038-.04.074-.022.036-.022.035-.024.035-.024.034-.052.066-.056.062-.06.06-.03.028-.032.027-.033.026-.034.025-.034.024-.035.023-.036.022-.036.02-.038.02-.037.02-.038.017-.04.017-.04.015-.08.026-.12.03-.04.008-.042.006-.04.005-.042.004-.042.003-.042.001h-.042l-.042-.001-.04-.003-.042-.004-.042-.005-.04-.006-.04-.008-.12-.03-.08-.026-.04-.015-.04-.017-.038-.017-.038-.02-.037-.02-.036-.02-.036-.022-.035-.023-.034-.024-.034-.025-.033-.026-.032-.027-.03-.028-.06-.06-.056-.062-.027-.033-.025-.033-.025-.034-.046-.07-.02-.036-.04-.074-.018-.038-.017-.04-.016-.04-.014-.04-.013-.04-.012-.04-.03-.12-.007-.042-.005-.04-.005-.042-.003-.042-.002-.042-.001-.042v-3.24l.001-.042.002-.042.003-.042.005-.042.005-.04.007-.042.018-.082.01-.04.012-.04.013-.04.014-.04.016-.038.017-.04.018-.038.04-.074.02-.036.046-.07.025-.034.025-.033.027-.033.056-.062.06-.06.03-.028.032-.027.033-.026.034-.025.034-.024.035-.023.036-.022.036-.02.037-.02.038-.018.038-.017.04-.017.04-.015.04-.014.04-.012.082-.022.082-.016.04-.006.042-.006.042-.003.04-.003.042-.001h.042l.042.001zm14.512 0l.042.003.04.003.042.006.04.006.042.008.04.008.08.02.04.012.04.014.04.015.04.017.038.017.038.018.037.02.036.02.036.022.035.023.035.024.033.025.033.026.032.027.03.028.1.1.027.03.027.033.025.033.025.034.046.07.02.036.04.074.018.038.017.04.016.038.014.04.013.04.012.04.02.08.008.04.007.042.006.04.004.042.003.042v.042l.001.042-.001 3.28v.042l-.003.042-.004.042-.006.04-.007.042-.008.04-.02.08-.012.04-.013.04-.014.04-.016.04-.017.04-.018.038L48 21l-.02.036-.046.07-.025.034-.025.033-.027.033-.027.03-.1.1-.03.028-.032.027-.033.026-.033.025-.035.024-.035.023-.036.022-.036.02-.037.02-.038.02-.038.017-.04.017-.04.015-.08.026-.12.03-.042.008-.04.006-.042.005-.04.004-.042.003-.042.001h-.042l-.042-.001-.042-.003-.042-.004-.04-.005-.042-.006-.04-.008-.12-.03-.08-.026-.04-.015-.04-.017-.038-.017-.074-.038-.037-.02-.036-.022-.035-.023-.034-.024-.034-.025-.033-.026-.032-.027-.03-.028-.1-.1-.028-.03-.052-.066-.024-.034-.024-.035-.022-.035-.02-.036-.04-.074-.018-.038-.017-.04-.03-.078-.013-.04-.012-.04-.02-.08-.008-.04-.007-.042-.006-.04-.008-.084-.002-.042V17.05l.002-.042.008-.084.006-.04.007-.042.008-.04.02-.08.012-.04.013-.04.015-.04.015-.038.017-.04.018-.038.04-.074.02-.036.022-.035.024-.035.024-.034.052-.066.028-.03.1-.1.03-.028.032-.027.033-.026.034-.025.034-.024.035-.023.036-.022.074-.04.037-.018.038-.017.04-.017.04-.015.04-.014.04-.012.08-.02.082-.016.042-.006.04-.006.084-.006.042-.001h.042l.042.001z" fill="#151515"/><path d="M17.42 43.82c-.017.006 15.8-11.81 15.8-11.752l-.01.208-3.345 18.696-.016-.013 3.365 12.622-.108-.198s.67 2.614-.4 4.202c-.17.25-32.015-.913-31.88-1.588l.522-2.614c.012-.035.075-.165.044-.203l.03-.137L5.49 50.6c-.017.077-3.444-18.89-3.328-18.775L2.158 32c.046.06 14.604 12.15 14.604 12.15" fill="#d8dee0"/><path d="M33.512 30.727l.132.037.128.05.123.063.115.074.108.085.098.096.09.105.078.113.066.12.053.127.04.13.027.135.014.136v.138l-.01.208-.007.088-.013.088-1.642 9.14-1.535 8.59-.12.69.092.35.388 1.493.823 3.157.607 2.31.293 1.1.276 1.035.248.923.21.775.09.32.076.268.062.21.023.077.018.06.001.003.01.02.047.13.034.135.02.137.006.14-.008.14-.004.027.013.086.02.144.02.153.017.162.014.17.012.174.006.095.004.093.003.095.002.097.001.098v.1l-.001.1-.002.102-.004.104-.005.105-.007.106-.008.107-.01.108-.012.11-.014.11-.015.11-.018.112-.02.112-.022.114-.025.114-.027.114-.03.115-.033.116-.036.116-.04.116-.042.116-.045.117-.05.116-.053.116-.056.116-.06.115-.064.114-.07.114-.06.094-.08.1-.1.1-.1.093-.003.003-.105.08-.112.07-.125.06-.085.034-.086.027-.058.017-.104.022-.108.015-.095.01-.086.006-.086.004-.09.003h-.1l-.217.003-.252.001h-.287l-.322-.003-.355-.004-.387-.006-.866-.017-.477-.01-.503-.012-1.084-.03-1.175-.035-1.256-.04-1.324-.045-2.81-.1-1.46-.057-1.484-.06-1.494-.063-2.237-.1-.74-.035-.732-.034-1.44-.072-.706-.036-.694-.036-1.348-.074-1.283-.075-1.207-.075-.572-.038-.55-.038-.524-.038-.5-.037-.472-.038-.443-.038-.414-.037-.382-.038-.182-.02-.172-.018-.165-.02-.156-.02-.15-.02-.275-.04-.128-.02-.12-.02-.116-.023-.114-.024-.114-.028-.11-.03-.073-.025-.072-.026-.082-.034-.095-.046-.058-.033-.112-.073-.012-.008-.075-.057-.08-.07-.094-.1-.084-.107-.006-.008-.07-.108-.058-.114-.048-.118-.003-.008-.034-.116-.025-.118-.014-.12-.003-.12v-.008l.007-.12.017-.12.1-.466.076-.4.087-.448.088-.45.082-.405.036-.175.033-.152.03-.127.02-.075.015-.053.02-.1.03-.138.018-.07.02-.07.175-.517L1.4 58.78l.747-2.235.38-1.14.71-2.157.158-.486.148-.458.136-.423.122-.385.107-.34.09-.29.07-.238.013-.046-.032-.173-.065-.344-.17-.927-.48-2.633-1.226-6.823-.583-3.297-.25-1.427-.1-.633-.182-1.073-.126-.772-.01-.067-.013-.04-.03-.13-.017-.13-.004-.132.001-.078v-.113l.006-.093.001-.007.02-.137.034-.135.05-.13.06-.125.073-.118v-.001l.08-.105.1-.096.1-.088.107-.077.114-.067.12-.056.124-.044.13-.032.13-.02.132-.007.132.006.13.02.13.03.125.044.126.058.12.07.11.082.103.092.092.102.082.11.07.12.035.076.268.225 1.66 1.382 10.026 8.335 1.545 1.283 7.578-5.66 2.9-2.163 1.336-.994 1.197-.89 1.013-.75.782-.577.293-.215.22-.16.153-.11.08-.054.04-.024.104-.056.108-.047.113-.037.002-.001.134-.03.136-.018.138-.004.137.01.135.023zm-3.146 5.147l-2.76 2.056-4.373 3.262-4.81 3.597-.174.13h0l-.087.06-.12.07-.128.056v.001l-.13.042-.1.022-.01.008-.108.087-.117.076-.125.063-.13.05-.135.038-.137.023-.14.01-.14-.005-.138-.018-.135-.033-.132-.046-.126-.06-.12-.07-.112-.084-11.73-9.748.078.448.28 1.6.303 1.7.63 3.518.307 1.704.288 1.592.26 1.425.22 1.202.233 1.26.046.242.026.13-.006-.02.024.102.017.124.006.125v.054l-.007.107-.015.107-.022.108-.024.1-.026.1-.03.105-.033.117-.078.262-.095.3-.11.353-.125.394-.138.43-.15.463-.16.492-.714 2.167-.38 1.145-.75 2.24-.344 1.026-.906 2.684-.004.05-.008.06-.023.107-.033.117-.038.11-.01.04-.027.12-.032.157-.078.39-.08.406.027.003.166.017.364.036.396.036.43.036.46.037.488.037.515.037.54.037.564.037.588.038.608.037.627.037 1.307.074 2.07.11 1.434.07 1.465.07.74.033 1.49.066 1.5.063 1.48.06 1.456.057 1.423.052 1.377.05 2.568.084 1.17.034.55.015 1.025.026.914.02.41.008.38.006.344.004.31.003h.208l.015-.056.014-.06.014-.06.012-.062.01-.063.01-.064.01-.065.008-.065.008-.067.006-.066.005-.068.004-.067.004-.068.004-.135v-.202l-.004-.133-.003-.065-.003-.06-.01-.13-.01-.122-.012-.117-.014-.11-.014-.104-.014-.097-.015-.088-.014-.08-.013-.07-.012-.06-.01-.045-.014-.066-.005-.02-.026-.134-.01-.1-.01-.036-.08-.285-.092-.33-.102-.375-.113-.414-.25-.93-.277-1.04-.294-1.115-.608-2.313-1.39-5.33-.028-.136-.015-.138v-.138l.013-.138.028-.135.028-.093.016-.092.117-.666.4-2.196 1.146-6.402 1.074-5.977-.913.678zM.11 63.725l.085.146-.06-.114-.05-.12-.013-.042.036.13zm2.528.117l.004-.012-.004.012zm-2.606-.4l.012.045-.014-.073v.028zm34.415-.446l-.02-.047-.013-.022.033.07z"/><g fill="#151515"><path d="M12.694 49.772h.04l.04.002.04.003.04.004.04.005.078.014.04.008.078.02.038.012.037.013.038.013.037.015.037.016.036.017.035.018.035.02.035.02.034.02.034.022.032.023.033.023.062.05.03.026.03.027.03.028.028.03.027.03.026.03.025.03.048.064.044.066.02.034.02.035.018.035.018.036.017.036.016.037.028.074.013.038.01.038.01.04.01.038.01.04.007.04.006.04.005.04.004.04.003.04.002.04v.08l-.001.003v.023l-.001.004v.016l-.001.003v.01l-.001.004v.01l-.001.003v.01l-.001.003v.007l-.001.003v.007l-.001.003v.007l-.001.003v.007l-.001.003v.003l-.001.003v.007l-.001.003v.004l-.001.003v.003l-.001.004v.003.003.003.004.003l-.001.003v.004l-.001.003v.003l-.001.003v.004l-.001.003v.003l-.001.003v.004l-.002.006v.004l-.001.003v.003l-.001.003-.001.004v.003l-.002.006v.004l-.002.006v.003l-.001.004-.001.003v.003l-.001.003-.001.004v.003.006l-.001.004v.003l-.002.006-.001.004-.001.003v.003l-.002.006-.001.004v.003.003.003l-.001.004-.004.012v.004l-.004.012v.004l-.003.01-.006.02v.003l-.004.012-.001.004-.004.012v.004l-.003.01-.002.003-.002.006-.001.004-.006.018-.001.004-.002.003-.005.015-.002.003-.001.003-.001.004-.002.006-.002.003-.004.012-.002.003-.002.006-.002.003v.004l-.002.006-.002.003-.002.006-.002.003v.006l-.002.003-.002.006-.002.003-.002.006v.003l-.001.003-.002.003-.002.006-.002.003-.001.003v.003l-.001.003-.002.003-.002.006-.002.003-.001.003v.003l-.001.003-.002.003-.001.003-.002.003-.001.003-.002.003v.003l-.004.006-.001.003-.002.003-.001.003v.003l-.001.002-.004.006-.001.003-.002.003v.003l-.004.006-.001.003-.002.003-.002.002v.003l-.004.006-.001.003-.004.006-.001.003-.002.002-.002.003-.001.003-.006.01-.001.002-.006.01-.001.003v.003l-.002.002-.002.003-.001.003-.004.006-.002.002-.004.006-.001.003-.002.002-.008.012-.001.002-.004.006-.002.002-.006.01-.002.002-.004.006-.002.002-.001.003-.004.006-.002.002-.004.006v.002l-.004.006-.002.002-.004.006h-.002l-.002.003-.002.002-.004.006-.002.002-.004.006-.003.002-.002.003-.002.002-.004.006-.002.002-.002.003-.002.002-.002.003-.005.005-.002.003-.002.002-.002.003-.002.002v.003l-.007.007-.002.003-.002.002-.002.003-.007.007-.002.003-.007.007-.002.003-.01.01-.002.003-.003.002-.002.003-.01.01-.002.003-.003.002-.002.002-.002.003-.003.002v.003l-.002.002h-.003l-.002.003-.002.002-.003.002-.002.003-.002.002-.003.002-.002.003-.002.002-.003.002-.002.003-.003.002-.01.01-.003.002-.002.003-.003.002-.01.01-.003.002-.002.002-.003.002-.002.003-.003.002-.002.002-.003.002-.007.007-.003.002-.002.002-.003.002-.007.007-.006.004-.002.002-.003.002-.007.007-.006.004-.002.002-.003.002-.002.002-.006.004-.002.002-.003.002-.002.002-.006.004-.002.002-.006.004-.002.002-.006.004-.002.002-.006.004-.002.002-.006.004-.002.002-.006.004-.002.002v.006.002l-.003.001-.006.004-.002.002-.01.006h-.002l-.003.001-.006.004-.002.002-.006.004-.003.001-.002.002-.01.006-.003.001-.003.002-.002.002-.003.002-.003.001-.01.006-.002.001-.006.004h-.003l-.006.004-.002.001-.006.004h-.003l-.006.004-.003.001-.006.004h-.002l-.003.002-.003.001-.006.004-.003.001h-.003l-.003.001-.006.004-.003.001-.003.002h-.003l-.003.002-.002.001-.003.002-.003.001-.003.002-.003.001h-.003l-.003.001-.003.002-.003.001-.003.002-.003.001-.003.002-.006.002-.003.002-.003.001-.003.002-.006.002h-.003l-.003.001-.003.002-.006.002-.003.002-.006.002-.004.002-.006.002-.003.002-.006.002-.003.002-.01.003-.003.002-.01.003-.003.002h-.004l-.006.002-.003.002-.015.005-.003.002-.004.001-.015.005-.003.002h-.003l-.004.001-.018.006-.004.001-.015.005-.004.001-.015.005h-.004l-.012.004-.004.001-.012.004h-.004l-.012.004-.004.001-.003.001h-.003l-.003.001-.004.001-.006.002h-.003-.003l-.004.001-.006.002h-.003l-.004.001-.006.002h-.003l-.004.001-.003.001h-.003l-.003.001-.004.001h-.003l-.006.002h-.004l-.006.002h-.003l-.004.001-.003.001h-.003l-.003.001h-.004l-.006.002h-.004-.003-.003l-.003.001h-.004l-.003.001h-.003l-.003.001h-.004l-.003.001h-.003l-.004.001h-.003l-.003.001h-.003l-.004.001h-.003l-.003.001h-.004-.003-.007-.003-.003l-.003.001h-.007l-.003.001h-.007l-.003.001h-.007l-.003.001h-.007l-.003.001h-.007l-.003.001h-.01l-.003.001h-.014l-.003.001h-.013-.003-.024-.003-.086-.004-.02-.003-.017l-.003-.001h-.01l-.003-.001h-.01l-.003-.001h-.01l-.004-.001h-.006l-.004-.001h-.006l-.004-.001h-.006l-.003-.001h-.004l-.003-.001h-.007-.003-.003-.004-.006l-.003-.001h-.004l-.003-.001h-.003l-.004-.001h-.003l-.003-.001h-.003l-.004-.001h-.003l-.003-.001h-.004l-.003-.001h-.003l-.003-.001h-.004-.003-.003-.004l-.003-.001h-.003l-.003-.001-.004-.001h-.003l-.006-.002h-.004l-.003-.001H12.4l-.003-.001-.004-.001-.003-.001h-.003l-.003-.001-.004-.001h-.003l-.006-.002-.004-.001h-.003l-.006-.002-.004-.001h-.003l-.006-.002h-.004-.003l-.01-.003-.004-.001-.003-.001h-.003l-.006-.002-.004-.001-.012-.004-.004-.001H12.3l-.01-.003-.004-.001-.012-.004-.004-.001-.015-.005-.004-.001-.018-.006-.004-.001-.003-.002-.015-.005-.004-.001-.006-.002-.003-.002-.015-.005-.004-.002-.01-.003-.003-.002-.01-.003-.003-.002-.01-.003-.004-.002-.01-.003-.003-.002-.006-.002-.003-.002h-.006l-.003-.002-.003-.001-.003-.002-.006-.002-.003-.002-.006-.002-.003-.002-.003-.001-.003-.002-.003-.001-.003-.002-.006-.002-.003-.002-.003-.001-.003-.002-.003-.001-.003-.002-.003-.001-.003-.002-.003-.001-.003-.002-.003-.001-.003-.002h-.003l-.006-.004-.003-.001-.003-.002-.002-.001-.003-.002h-.003L12 52.465l-.003-.001-.003-.002L12 52.46l-.006-.004-.003-.001v-.002l-.003-.002-.003-.001-.006-.004-.003-.001-.006-.004-.002-.001-.006-.004-.003-.001-.01-.006h-.002l-.01-.006-.003-.001-.002-.002-.01-.006-.003-.001-.002-.002-.01-.006-.003-.001-.002-.002-.01-.006-.002-.002-.003-.002-.003-.001h-.003l-.002-.002-.006-.004-.002-.002-.01-.006-.002-.002-.006-.004-.002-.001-.006-.004-.002-.002-.006-.004v-.002l-.006-.004-.002-.002-.006-.004-.002-.002-.003-.002-.002-.003-.006-.004-.002-.002-.006-.004-.002-.002-.003-.002-.002-.002-.003-.002h-.002l-.006-.004-.002-.003-.003-.002v-.002l-.003-.002-.002-.002-.003-.002-.007-.007-.003-.002v-.002h-.003l-.002-.003-.003-.002v-.002l-.003-.002-.007-.007-.003-.002-.007-.007-.003-.002-.002-.002-.002-.003-.003-.002-.002-.002-.003-.002-.002-.003-.003-.002-.002-.002-.002-.003h-.003l-.002-.002-.002-.003-.003-.002-.028-.028-.002-.003h-.002l-.003-.002-.002-.003-.007-.007v-.003l-.002-.002-.003-.002-.002-.003-.002-.002-.002-.003-.003-.002-.002-.003-.002-.002v-.003l-.007-.007-.002-.003-.002-.002-.002-.003-.003-.002-.002-.003v-.002l-.002-.003-.002-.002-.002-.003-.005-.005-.002-.003-.002-.002-.002-.003-.002-.002-.002-.003-.002-.002-.004-.006-.007-.007-.004-.006v-.002l-.002-.003-.002-.002-.004-.006v-.002l-.004-.006-.002-.002-.004-.006-.002-.002-.004-.006-.002-.002-.004-.006-.001-.003-.002-.002-.004-.006-.002-.002-.006-.01-.002-.002-.004-.006-.001-.003-.002-.002-.006-.01-.002-.002-.001-.003-.004-.006-.002-.002-.004-.006-.001-.003-.002-.003v-.002l-.002-.003-.001-.003-.006-.01v-.002l-.006-.01-.001-.003-.002-.003-.002-.002-.001-.003-.004-.006-.001-.003-.004-.006-.001-.003-.002-.002-.002-.003-.001-.003-.002-.003v-.003l-.004-.006-.001-.003-.002-.003-.001-.003-.004-.006-.001-.002-.002-.003-.001-.003-.002-.003v-.003l-.002-.003-.001-.003-.002-.003-.001-.003-.002-.003-.001-.003v-.003l-.001-.003-.002-.003-.001-.003-.002-.003-.001-.003-.002-.003v-.003l-.002-.003-.002-.006-.002-.003-.001-.003-.002-.003-.002-.006-.002-.003-.002-.006-.002-.003-.001-.003v-.003l-.003-.01-.002-.003-.002-.006-.002-.004-.002-.006-.002-.003-.003-.01-.002-.003-.004-.012-.002-.004-.004-.012v-.003l-.003-.01-.001-.004-.003-.01-.002-.003-.003-.01-.001-.004-.005-.015v-.004l-.005-.015-.001-.004-.005-.015-.001-.004-.004-.012-.001-.004-.002-.006v-.003l-.001-.003-.001-.004-.004-.012v-.004l-.003-.01-.001-.004v-.003l-.003-.01-.001-.004v-.003l-.002-.006-.001-.004v-.003l-.002-.006v-.004l-.003-.01v-.004l-.002-.006v-.003l-.001-.004v-.003l-.002-.006v-.004l-.002-.006v-.004l-.001-.003v-.003-.003-.004l-.002-.006v-.003l-.001-.004v-.003l-.001-.003v-.004l-.001-.003v-.003l-.001-.003v-.004l-.001-.003v-.007l-.001-.003v-.003l-.001-.003v-.004-.003-.007-.003-.003l-.001-.004v-.006l-.001-.003v-.007l-.001-.003v-.007l-.001-.003v-.007l-.001-.003v-.01l-.001-.004v-.01l-.001-.004v-.013l-.001-.003v-.02-.004-.033-.003-.037-.003-.033-.004-.016l.001-.003v-.014l.001-.003v-.013l.001-.004v-.006l.001-.004v-.01l.001-.003v-.006l.001-.004v-.006l.001-.004v-.003l.001-.003v-.007-.003-.003-.004-.006l.001-.004v-.003l.001-.003v-.004l.001-.003v-.003l.001-.003v-.004l.001-.003V51l.001-.004v-.003l.001-.003v-.003l.001-.004v-.003-.003-.003-.004-.003l.001-.003.001-.004v-.003l.002-.006v-.004l.001-.003v-.003l.001-.003.001-.004v-.003l.002-.006v-.004l.003-.01v-.004l.002-.006v-.003l.001-.004.002-.006v-.003l.001-.004.003-.01v-.004l.004-.012.001-.004v-.003l.003-.01.001-.004.004-.012v-.004l.003-.01.006-.02.004-.012.001-.004.005-.015.001-.004.006-.018.001-.004.003-.01.002-.003.002-.006v-.004l.003-.01.002-.003.004-.012v-.004l.002-.003.004-.012.002-.003.003-.01.002-.003.001-.003.001-.004.002-.003.003-.01.002-.003.002-.006.002-.003.002-.006.002-.003.001-.003.002-.003.002-.006.002-.003.002-.006V50.6l.001-.003.002-.003.001-.003.002-.003.001-.003.002-.003.002-.006.002-.003.001-.003.002-.003.001-.003.002-.003v-.003l.002-.003.001-.003.002-.003.001-.003.004-.006.001-.003.002-.003.001-.003h.002l.001-.003.004-.006.001-.003.002-.003.001-.003.004-.006v-.003l.002-.002.002-.003.001-.003.004-.006v-.003l.004-.006.001-.002.006-.01.001-.003.002-.003.002-.002.002-.003v-.003l.006-.01.001-.002.008-.012h.001l.006-.01.002-.002.001-.003.006-.01.002-.002.004-.006.002-.002v-.003l.004-.006.002-.002.004-.006.002-.002.006-.01.002-.002.004-.006.002-.002.004-.006.002-.002.004-.006.002-.002.002-.003.002-.002.004-.006h.002l.004-.006.002-.002.002-.003.002-.002.004-.006.007-.007V50.3l.002-.002.004-.006.002-.002v-.003l.003-.002.002-.003.002-.002.002-.003.002-.002.002-.003.003-.002.002-.003v-.002l.002-.003.007-.007.002-.003.002-.002.002-.003.003-.002v-.003l.01-.01.002-.003.003-.002.002-.002.002-.003.014-.014.002-.003.003-.002.002-.002.002-.003.003-.002.002-.002.002-.003.003-.002.014-.014.003-.002v-.002l.002-.003.003-.002.007-.007.003-.002.002-.002.002-.003.003-.002h.002l.003-.002.007-.007.003-.002.002-.002.003-.002.002-.003h.003l.002-.002.003-.002.007-.007.003-.002.002-.002.006-.004.002-.002.003-.002.002-.003.003-.002h.002l.006-.004v-.002l.003-.002h.002l.006-.004.002-.002.003-.002h.002l.006-.004.002-.002.006-.004.002-.002.006-.004.002-.002.006-.004v-.002l.006-.004h.002l.01-.006.002-.002.006-.004.003-.001v-.002l.006-.004.002-.002.01-.006.002-.001.012-.008.002-.002h.003l.01-.006.002-.002.003-.001.01-.006.002-.001.01-.006.003-.001.006-.004.002-.001.006-.004.003-.001.006-.004.003-.001.002-.002.003-.002.003-.001.006-.004.003-.001.003-.002h.003l.006-.004.003-.001.002-.002.003-.001.006-.004.003-.001.003-.002.003-.001.003-.002h.003l.003-.002.003-.001.003-.002.003-.001.003-.002.003-.001h.003l.003-.001.003-.002.003-.001.003-.002.006-.002h.003l.003-.001.003-.002.006-.002.003-.002.003-.001h.003l.006-.002.003-.002.006-.002.003-.002h.006l.003-.002.006-.002.003-.002.006-.002h.004l.003-.002.01-.003.003-.002.01-.003.003-.002.006-.002.004-.001.006-.002.003-.002.012-.004.004-.001.003-.001.003-.002.015-.005.004-.001.015-.005.004-.001.015-.005.004-.001.012-.004h.004l.015-.005.004-.001.003-.001h.003l.006-.002h.004l.01-.003h.004l.012-.004h.004l.01-.003.004-.001h.003l.006-.002.004-.001h.003l.006-.002h.004l.006-.002h.003l.004-.001h.003.003.003l.004-.001h.003l.006-.002h.004l.003-.001h.003l.003-.001.004-.001h.003l.003-.001h.004l.003-.001h.003l.003-.001h.004l.003-.001h.003l.004-.001h.003l.003-.001h.003l.004-.001h.003l.003-.001h.004l.003-.001h.003l.003-.001h.007l.003-.001h.004l.003-.001h.007.003.006.004.006l.004-.001h.006l.004-.001h.006l.004-.001h.01l.004-.001h.013l.003-.001h.014l.003-.001h.023l.004-.001h.046z"/><path d="M20.532 49.298l.066.002.033.002.066.006.066.01.032.006.033.006.064.016.064.018.03.01.032.01.03.012.03.012.03.013.03.014.03.015.03.015.03.016.03.017.028.017.028.018.054.038.027.02.026.02.025.02.05.044.024.023.023.023.023.024.023.025.022.025.02.025.02.026.02.027.02.026.02.028.018.027.017.03.02.032.016.03.015.03.015.03.014.03.026.06.012.03.01.03.01.032.006.02.01.033.01.032.008.033.008.032.006.032.006.033.005.033.008.066.003.033.002.033.001.033v.083l-.001.006v.016l-.001.006v.017l-.001.005v.006l-.001.005v.006l-.001.005v.01l-.001.006-.001.005v.006.005.006.005l-.001.006v.005l-.001.006-.001.005v.006l-.001.005-.001.006-.001.005v.006l-.002.01v.006.005l-.001.006-.001.005-.001.006-.001.005-.001.006-.002.01-.001.006v.003.005.006l-.001.005-.001.006-.001.005-.002.005-.001.006-.001.005-.001.006v.005.006l-.001.005-.002.005-.001.006-.001.005-.001.006-.002.005-.001.005-.001.006-.002.005-.001.005-.001.006-.002.005-.001.005-.002.006v.005l-.002.005-.001.006-.002.005-.001.005-.002.006v.005l-.001.005-.002.006-.001.005-.004.01v.006l-.001.005-.004.01-.002.006-.002.005v.005l-.004.01-.002.006-.01.025-.002.006-.01.025-.003.005-.004.01-.002.006-.002.005-.003.005-.006.015-.003.005-.004.01-.003.005v.005l-.003.005-.002.005-.003.005v.005l-.003.005-.002.005-.003.004v.005l-.003.005-.002.005-.006.01-.002.005-.003.005-.003.004-.002.005-.01.015-.002.004-.01.015-.003.004-.003.005-.002.005-.003.005-.003.004-.006.01-.003.004-.006.01-.003.004-.003.005-.003.004-.004.005-.003.005-.003.004-.003.005-.003.004-.003.005-.003.004-.004.005-.003.004-.003.005-.003.004-.004.005-.003.004-.003.005-.004.004-.003.004-.003.005-.004.004-.003.004-.004.005-.003.004-.004.004-.003.005-.003.004-.004.004-.004.005-.003.004-.004.004-.003.004-.004.005-.003.004-.008.008-.003.004-.004.004-.004.005-.003.004-.012.012-.003.004-.016.016-.003.004-.024.024-.004.003-.02.02-.004.003-.012.012-.004.003-.008.008-.004.003-.005.004-.004.004-.004.003-.004.004-.004.003-.005.004-.004.004-.004.003-.004.004-.005.003-.004.004-.004.003-.005.004-.008.006-.005.004-.004.003-.004.004-.005.003-.004.003-.005.004-.008.006-.005.003-.004.004-.005.003-.004.003-.005.003-.004.004-.01.006-.004.003-.005.003-.004.003-.005.003-.004.003-.01.006-.004.003-.01.006-.004.003-.015.01-.004.003-.01.006-.005.002-.004.003-.015.01-.004.002-.01.006-.005.002-.01.006-.005.002-.004.003-.005.002-.01.006-.005.002-.005.003-.01.004-.005.003-.005.002-.005.003-.01.004-.005.003-.01.004-.005.003-.015.006-.005.003-.015.006-.006.002-.005.002-.005.003-.02.008-.006.002-.015.006-.005.001-.006.002v.008l-.006.001-.015.006-.006.001-.01.004-.005.001-.006.002-.005.002-.005.001-.006.002-.005.001-.005.002-.006.001h-.005l-.005.001-.006.002-.005.001-.005.002-.006.001-.005.001h-.005l-.006.001-.005.001-.006.002-.01.002-.006.001-.005.001h-.006l-.01.002-.006.001-.005.001-.006.001-.005.001-.006.001-.01.002h-.006l-.005.001-.006.001-.005.001-.006.001-.005.001h-.006l-.005.001-.006.001-.005.001h-.006l-.005.001-.006.001-.005.001h-.006l-.005.001h-.006l-.005.001-.006.001h-.005l-.006.001h-.005l-.006.001h-.005l-.006.001h-.01l-.005.001h-.006-.005-.017-.005-.022l-.006.001h-.072l-.005-.001h-.023-.005-.01-.006-.01l-.005-.001h-.006l-.005-.001h-.006l-.005-.001h-.006l-.005-.001h-.006l-.005-.001h-.006l-.005-.001h-.006l-.005-.001-.006-.001h-.005l-.006-.001-.005-.001-.006-.001h-.005l-.006-.001-.005-.001-.006-.001-.005-.001-.006-.001-.005-.001h-.006l-.01-.002h-.006l-.005-.001-.006-.001-.005-.001-.006-.002-.01-.002-.006-.001h-.005-.006l-.005-.001-.005-.002-.006-.001-.005-.001-.006-.001-.005-.002h-.005-.006l-.005-.002-.005-.001-.006-.002-.005-.001-.006-.001-.005-.002h-.005l-.005-.002-.006-.001-.01-.004-.006-.001h-.005l-.005-.001-.006-.002-.005-.002-.005-.001-.005-.002h-.006l-.005-.002-.005-.001-.005-.002-.006-.002-.02-.008-.006-.001-.025-.01-.006-.002h-.005l-.005-.003-.03-.012-.006-.003-.015-.006-.005-.003-.01-.004-.005-.003-.005-.002-.005-.003-.01-.004-.005-.003-.005-.002-.005-.003-.004-.002-.005-.003-.005-.002-.01-.006-.005-.002-.005-.003-.005-.002-.005-.003-.004-.003-.005-.002-.015-.01H19.8l-.015-.01-.004-.003-.01-.006h-.005l-.004-.003-.01-.006-.004-.003-.01-.006-.004-.003-.01-.006-.004-.003-.005-.004-.004-.003-.005-.003-.004-.003-.005-.003-.004-.003-.005-.004-.004-.003-.005-.003-.004-.003-.005-.004-.004-.003-.005-.003-.004-.003-.005-.004-.004-.003-.004-.004-.005-.003-.004-.003-.004-.004-.005-.003-.004-.004-.004-.003-.005-.004-.004-.003-.004-.004-.004-.003-.005-.004-.004-.003-.008-.008-.004-.003-.005-.004-.004-.004-.004-.003-.008-.008-.004-.003-.012-.012-.004-.003-.024-.024-.004-.003-.02-.02-.003-.004-.016-.016-.003-.004-.008-.008-.004-.005-.003-.004-.008-.008-.003-.004-.004-.004-.004-.005-.003-.004-.004-.004-.003-.004-.004-.004-.003-.005-.004-.004-.003-.004-.004-.005-.003-.004-.004-.004-.003-.005-.004-.004-.003-.004-.003-.005-.004-.004-.003-.004-.003-.005-.004-.004-.003-.005-.003-.004-.004-.005-.003-.004-.003-.005-.003-.004-.003-.005-.004-.004-.003-.005-.003-.004-.003-.005-.003-.004-.006-.01-.003-.004-.006-.01-.003-.004-.006-.01-.003-.004-.006-.01-.003-.004-.006-.01-.002-.005-.003-.004-.01-.015-.002-.005-.003-.004-.003-.005v-.005l-.006-.01-.002-.005-.003-.005-.003-.004-.002-.005-.003-.005-.002-.005-.003-.005-.002-.005-.003-.005-.002-.005-.003-.005-.004-.01-.003-.005-.004-.01-.003-.005-.004-.01-.003-.005-.008-.02-.003-.005-.002-.006-.014-.035-.002-.006-.008-.02-.002-.006-.002-.005-.001-.005-.004-.01-.002-.006-.002-.005-.001-.005-.002-.006v-.005l-.001-.005-.002-.005-.002-.006-.001-.005-.002-.005v-.006l-.004-.01-.001-.005-.002-.006-.002-.01v-.006l-.001-.005-.002-.006-.002-.01-.002-.006-.002-.01-.002-.006-.001-.005-.001-.006-.002-.01-.002-.006-.001-.005v-.006l-.002-.01-.001-.006-.001-.005-.001-.006-.001-.005-.001-.006-.001-.005-.001-.006v-.005V51l-.001-.005v-.005l-.001-.006-.001-.005-.001-.006-.001-.005v-.006l-.001-.005-.001-.006v-.005l-.001-.006-.001-.005v-.006l-.001-.005v-.006l-.001-.005v-.006l-.001-.005v-.006l-.001-.005v-.006l-.001-.005v-.01l-.001-.006v-.01l-.001-.006v-.016l-.001-.006v-.005l-.001-.027v-.04-.005-.033-.005-.033l.001-.006v-.016l.001-.006v-.01l.001-.007v-.005l.001-.006v-.005l.001-.006h0l.001-.005.001-.006v-.005l.001-.006v-.005l.001-.006v-.005l.001-.006.001-.005v-.006l.001-.005.001-.006.001-.005v-.006l.001-.005.001-.006.001-.005.001-.006v-.005-.006-.005l.001-.005.001-.006.001-.005.001-.006.001-.005.001-.006.002-.005v-.005-.006l.001-.005.001-.006.002-.01.002-.006.001-.005.001-.006v-.005l.002-.005.001-.006.001-.005.002-.005.001-.006.002-.005v-.005-.006l.002-.005.001-.005.002-.006v-.002l.004-.01v-.006l.002-.005.001-.005.002-.005.002-.006.001-.005.004-.01.001-.006.006-.015.002-.006.001-.005.006-.015v-.006l.01-.025.002-.006.01-.025.003-.005.008-.02.003-.005.002-.006v-.005l.003-.005.004-.01.003-.005.004-.01.003-.004.002-.005.003-.005.002-.005.003-.005.002-.005.003-.005.002-.005.006-.01.002-.005.003-.004.002-.005.01-.015.002-.005.003-.004.006-.01.002-.005.003-.004.01-.015.003-.004.006-.01.003-.004.006-.01.003-.004.006-.01.003-.004.003-.005.003-.004.003-.005.003-.004.003-.005.003-.004.004-.005.003-.005.006-.008.004-.005.003-.004.003-.005.003-.004.004-.005.006-.008.004-.005.003-.004.004-.005.006-.008.004-.005.003-.004.004-.004.003-.004.004-.005.003-.004.008-.008.003-.005.004-.004.003-.004.008-.008.003-.004.004-.004.004-.005.004-.004.003-.004.012-.012.003-.004.02-.02.003-.004.004-.003.024-.024.004-.003.012-.012.004-.003.004-.004.005-.004.004-.004.004-.003.008-.008.004-.003.004-.004.005-.003.008-.008.004-.003.005-.004.004-.003.004-.004.004-.003.005-.004.008-.006.005-.004.004-.003.004-.004.005-.003.004-.003.005-.004.008-.006.005-.004.004-.003.005-.003.004-.003.005-.003.004-.004.005-.003.004-.003.01-.006.004-.003.005-.003.004-.003.005-.004.005-.003.004-.003.005-.003.004-.003.005-.003.005-.002.005-.003.004-.003.01-.006.004-.003.01-.006.005-.002.004-.003.01-.006h.001l.005-.003h.004l.01-.006.005-.002.01-.006.005-.002.004-.003.005-.002.005-.003.005-.002.005-.003.005-.002.005-.003.005-.002.005-.003.01-.004.005-.003.01-.004.005-.003.01-.004.005-.003.025-.01.006-.003.035-.014.006-.002.015-.006.005-.001.006-.002.02-.008.006-.001.01-.004.005-.001.006-.002.005-.002.005-.001.006-.002.005-.002.005-.001.005-.002.006-.001.005-.002.005-.001h.006l.005-.001.005-.002.006-.001.005-.001.005-.002.006-.001h.005l.005-.001.006-.001.005-.001.006-.002.01-.002.006-.001h.005l.006-.002.01-.002.006-.001.005-.001.006-.001.005-.001.006-.001h.01l.006-.001.005-.001.006-.001h.005l.006-.001.005-.001.006-.001.005-.001h.006l.01-.002.006-.001h.005l.006-.001.005-.001h.006l.005-.001h.006l.005-.001h.006l.005-.001h.006l.005-.001h.006l.005-.001h.006l.005-.001h.01.006.017.005.028l.005-.001h.028zm-1.318 2l.04.07-.003-.006-.003-.005-.004-.01-.003-.005-.004-.01-.003-.005-.006-.015-.003-.005-.002-.005-.002-.006-.006-.015-.003-.005-.006-.015-.002-.006-.008-.02-.001-.005-.002-.006-.006-.015-.002-.006-.002-.005-.001-.005-.002-.005v-.006l-.002-.005-.001-.005-.002-.005-.002-.006-.001-.005.043.14z"/></g></svg>