<svg xmlns="http://www.w3.org/2000/svg" width="100%" height="100%" viewBox="0 0 64 64" fill-rule="evenodd" stroke-linejoin="round" stroke-miterlimit="2"><g transform="matrix(.033427 0 0 .04457 -3.25802 -7.77194)"><g transform="matrix(29.9155 0 0 22.4367 -26.2039 116.791)"><text x="10.342" y="62.597" font-family="Helvetica" font-size="12.833" fill="#fff">R</text><text x="19.61" y="62.597" font-family="Helvetica" font-size="9.356" fill="#fff">EDESIGN</text></g><g fill="#fff"><path d="M1632.005 276.005l2.623.528 2.464.84 2.28 1.128 1.96 1.392 1.67 1.632 1.245 1.8.874 1.944.397 2.016-.026 2.04-.477 1.992-.9 1.92-1.325 1.776-1.696 1.608-2.014 1.368-.106.048-2.014 1.368-3.895 2.735-5.5 3.9-7.02 5.015-8.426 6.047-20.958 15.092-91.5 66.296-38.66 28.068-87.014 63.297-415.83 303.167-363.13 265.304-104.633 76.757-2.57 1.92-.53.408.424-.384-1.908 1.464-2.2 1.2-2.438.912-2.597.6-2.676.288-2.73-.072-2.65-.384-2.544-.72-2.358-1.032-2.093-1.296-1.775-1.536-1.404-1.752-1.033-1.896-.583-1.992-.132-2.04.3-2.016.742-1.968 1.192-1.824 1.537-1.68.45-.384 1.616-1.248 2.8-2.1 26.072-19.195 21.356-15.668 131.5-96.217 503.825-367.807 201.08-146.5 160.567-116.708 30.683-22.22 26.02-18.8 36.574-26.273 5.617-3.983 4.16-2.927 2.782-1.896 1.43-.888.715-.384 2.173-.96 2.305-.696 2.438-.432.053-.024 2.73-.144 2.703.192zm6.412 22.3l.106-.024.344-.192-.45.216zm98.7 80.112l2.597.6 2.438.912 2.2 1.2 1.908 1.44v.024l1.5 1.584 1.14 1.776.768 1.872.37 1.968-.08 1.944-.477 1.944-.874 1.848-.026.048-1.245 1.728-.132.144-.874.912-.742.696-1.22 1.08-1.484 1.248-3.92 3.215-5.326 4.343-6.73 5.423-28.165 22.4-24.96 19.7-29.437 23.154-33.518 26.298-77.687 60.705-43.374 33.76-93.77 72.798-49.6 38.367-50.873 39.255-103.998 79.95-26.178 20.035-52.198 39.878-51.694 39.326-25.516 19.363-50.13 37.9-48.594 36.567-46.686 34.912-22.495 16.724-21.86 16.196-41.626 30.64-29.2 21.26-18.415 13.293-8.876 6.382-17.037 12.14-8.16 5.783-7.896 5.567-7.657 5.35-7.392 5.135-13.963 9.622-6.57 4.463-6.306 4.223-5.988 3.983-5.723 3.743-5.405 3.503-5.14 3.263-4.822 3-4.504 2.735-4.213 2.47-2.014 1.176-1.934 1.08-1.88 1.032-1.802.96-1.75.912-1.696.84-1.67.792-1.616.744-1.643.696-1.643.648-1.722.6-1.855.552-1.35.336-1.537.312-.715.12-1.563.192-.954.072-.954.048-1.563-.024h-.265l-2.093-.192-2.12-.384-.212-.048-2.305-.696-.212-.072-1.192-.48-1.166-.576-.16-.072-1.14-.672-1.06-.744-.132-.12-1.75-1.56-1.378-1.752-.954-1.92-.53-1.992-.08-2.04.344-2.016.82-1.944 1.22-1.824 1.6-1.656 1.934-1.416 2.226-1.176 2.464-.888 2.597-.552 2.703-.24h.08l.53-.24 1.06-.504 1.192-.6 1.325-.672 1.43-.768 1.563-.864 1.643-.912 5.564-3.263 4.186-2.543 4.557-2.83 4.875-3.095 5.22-3.36 5.538-3.647 5.856-3.887 6.174-4.15 6.44-4.367 6.757-4.63 7.02-4.847 7.313-5.087 7.578-5.303 7.843-5.52 16.428-11.66 8.585-6.143 17.885-12.86 18.733-13.605 19.607-14.3 20.402-14.948 21.117-15.572 21.806-16.172 22.47-16.7 23.025-17.18 23.555-17.66 24.06-18.068 24.5-18.452 24.853-18.787 25.224-19.1 25.5-19.34 25.7-19.555 51.96-39.614 26.125-19.963 78.35-60.105 25.966-19.963 25.78-19.843 25.542-19.723 25.304-19.53L1372.375 656l137.06-106.5 77.634-60.657 33.5-26.274 29.384-23.13 35.53-28.097 9.38-7.462 8.028-6.406 6.65-5.35 5.193-4.2 3.656-3.047 1.166-.984.583-.504.16-.192 1.775-1.536 2.093-1.32 2.332-1.032 2.544-.72 2.676-.408 2.703-.048 2.703.264zM618.844 1227.97l-.848-.648-.9-.48 1.75 1.128zm-2.464-1.512l-.53-.288-.424-.168.954.456zm1103.726-843.036l-1.007 1.152-.503.84.026.048.265-.528 1.245-1.512h-.026z"/><path d="M1627.342 274.665l.715.02.742.037.715.056.715.093.715.11.69.13.69.167.132.02.69.186.69.204.636.223.662.24.397.15.662.28.636.316.9.446 1.06.576.662.37.636.41.61.427.583.446 1.06.966.477.52.45.52.397.557.37.557.265.446 1.272 1.003 2.782 2.154 3.26 2.49 3.656 2.767 8.32 6.222 9.353 6.946 10.042 7.4 39.824 29.307 8.16 6.017 6.704 5.033 2.782 2.08 2.28 1.764 1.88 1.486 1.245 1.02.53.483.503.483.477.52.45.54.397.54.37.557.318.576.29.594.238.594.212.613.16.613.132.613.08.63.026.613v.63l-.026.613-.106.63-.132.613-.16.613-.212.613-.238.594-.29.576-.344.576-.37.557-.397.557-.45.52-.477.52-.503.483-.556.483-.583.446-.61.427-.61.41-.662.4-.69.353-.715.334-.742.297-.742.28-.768.24-.768.204-.795.186-.82.167-.82.11-.82.093-.82.074-.848.02h-.82l-.82-.037-.848-.056-.82-.093-.82-.13-.795-.167-.795-.186-.795-.223-.742-.24-.768-.28-.715-.297-.715-.334-1.325-.743-.636-.41-.61-.446-.556-.446-.927-.76-1.404-1.114-2.067-1.58-2.597-1.97-6.598-4.922-8.055-5.962-49.892-36.736-9.433-7.002-8.452-6.315-3.762-2.842-3.392-2.6-2.994-2.303-2.57-2.024-2.146-1.764-1.75-1.523-1.007-.966-.61-.65-.37-.41-.636-.854-.29-.446-.132-.204-.318-.5-.265-.52-.238-.54-.212-.54-.185-.54-.132-.557-.106-.557-.08-.557-.053-.557v-.65l.026-.594.08-.594.106-.594.132-.594.185-.576.212-.576.265-.557.29-.557.318-.54.37-.54.397-.52.424-.5.477-.483.477-.464.53-.446.556-.446.026-.02.583-.427.61-.4.662-.37.662-.353.662-.316.715-.297.715-.28.742-.24.768-.223.768-.186.795-.15.768-.13.82-.11.795-.074.795-.037.82-.02h.08z"/><path d="M1737.082 230.328l1.813.067 1.842.1 1.842.112 1.813.156 1.842.18 1.842.223 1.842.268 1.813.3 1.842.335 1.813.38 1.813.402 1.813.447 1.785.5 1.813.514 1.756.558 1.785.603 1.756.647 1.756.67 1.727.714 1.698.76 1.698.78 1.698.848 1.67.87 1.64.893 1.612.938 1.612.982 1.583 1.027 1.583 1.072 1.554 1.094 1.525 1.116 1.497 1.183 1.497 1.206 1.44 1.228 1.468 1.273 1.4 1.317 1.4 1.362 1.382 1.384 1.353 1.43 1.324 1.474 1.324 1.496 1.295 1.54 1.295 1.563 1.238 1.608 1.238 1.652 1.2 1.697 1.2 1.72 1.18 1.786 1.15 1.786 1.123 1.853 1.123 1.898 1.123 1.942.72 1.34.7 1.384.662 1.384.604 1.362.547 1.384.518 1.384.46 1.384.403 1.362.403 1.384.317 1.362.288 1.384.23 1.362.2 1.362.173 1.362.115 1.34.086 1.362.03 1.34v1.34l-.03 1.317-.086 1.317-.115 1.317-.144 1.317-.173 1.295-.23 1.295-.518 2.545-.317 1.25-.345 1.273-.374 1.228-.403 1.228-.432 1.228-.46 1.228-.46 1.183-.547 1.25-1.065 2.3-1.15 2.322-1.266 2.277-1.324 2.233-1.4 2.188-1.468 2.143-1.525 2.1-1.583 2.076-1.64 2-1.67 1.987-1.727 1.942-1.727 1.898-1.785 1.875-1.813 1.808-1.813 1.786-1.842 1.74-1.842 1.697-1.87 1.652-1.842 1.608-1.87 1.585-1.842 1.518-3.655 2.97-3.54 2.724-3.454 2.6-3.28 2.4-3.08 2.2-7.57 5.314-1.756 1.273-1.324 1.005-.058.022-.144.223-.604.67-.633.647-.7.625-.777.58-.777.536-.863.5-.892.47-.92.402-.95.38-1.007.313-1.007.268-1.036.223-1.036.156-1.065.112-1.094.067-1.065.022-1.094-.045-1.065-.112-1.036-.134-1.065-.2-1.007-.246-1.007-.313-.98-.335-.92-.402-.92-.447-.863-.47-.806-.536-.777-.558-.72-.603-.662-.647-.604-.647-.547-.714-.5-.714-.432-.737-.345-.76-.317-.78-.2-.78-.173-.804-.086-.804v-.804l.058-.804.115-.804.2-.804.288-.78.317-.76.144-.3.345-.647.374-.625.432-.625.26-.313.432-.536.46-.514.662-.714 1.007-.938.98-.826 1.007-.804 1.928-1.45 2.16-1.54 2.33-1.652 8.145-5.76 2.993-2.2 3.108-2.322 3.195-2.456 1.583-1.25 1.583-1.317 1.612-1.317 3.166-2.724 1.583-1.407 1.554-1.43 1.525-1.45 1.525-1.474 1.468-1.496 1.44-1.496 1.4-1.54 1.353-1.54 1.324-1.563 1.266-1.563 1.2-1.585 1.15-1.585 1.094-1.585 1.036-1.608.95-1.608.892-1.608.806-1.608.777-1.675.317-.76.633-1.608.288-.804.26-.804.46-1.608.2-.804.173-.804.288-1.608.115-.78.086-.804.115-1.608.03-.804v-.804l-.03-.804-.115-1.608-.086-.804-.115-.804-.144-.804-.173-.804-.2-.826-.23-.826-.26-.804-.26-.826-.317-.848-.345-.826-.748-1.697-.432-.848-1.382-2.456-.92-1.563-1.87-2.992-.95-1.407-.95-1.384-.98-1.34-.95-1.273-.98-1.25-.98-1.206-.98-1.16-.98-1.116-.98-1.072-.98-1.027-.98-1.005-1.007-.938-.98-.915-.98-.893-1.987-1.63-.98-.76-1.007-.737-.98-.692-.98-.67-.98-.625-.98-.603-.98-.558-.98-.536-.95-.514-.98-.5-.98-.447-.98-.424-.95-.402-.98-.38-.98-.335-.95-.335-.98-.313-.98-.3-1.957-.5-.98-.223-.98-.2-1.007-.18-2.015-.313-2.015-.223-1.036-.1-1.036-.067-2.13-.1h-2.13l-1.094.022-2.216.1-2.245.18-1.123.112-1.15.134-1.15.156-2.36.357-1.18.2-1.18.223-1.2.246-2.418.536-1.238.3-1.238.313-1.238.335-1.18.335-2.562.737-2.504.826-2.533.848-2.533.938-2.562.982-2.562 1.05-2.562 1.094-2.562 1.16-2.533 1.183-2.562 1.25-2.533 1.273-2.504 1.34-2.533 1.362-2.475 1.384-2.475 1.43-2.446 1.45-2.418 1.474-2.4 1.518-2.36 1.518-2.33 1.518-2.303 1.563-2.274 1.563-2.216 1.563-4.317 3.126-4.116 3.148-2.044 1.585-.777.558-.806.536-.863.5-.92.424-.92.402-.98.357-1.007.3-1.007.246-1.065.2-1.036.156-1.094.1-1.065.045-1.065-.022-1.094-.045-1.065-.134-1.036-.156-1.036-.223-1.036-.268-.98-.313-.95-.38-.92-.402-.892-.47-.863-.5-.777-.536-.777-.58-.7-.625-.633-.647-.604-.67-.518-.692-.46-.737-.403-.76-.317-.76-.288-.78-.2-.804-.115-.804-.058-.804.03-.804.058-.804.173-.804.23-.78.288-.78.345-.76.432-.737.5-.737.547-.692.604-.647.662-.647.72-.603 2.16-1.675 2.274-1.74 2.33-1.74 2.36-1.74 2.418-1.74 2.504-1.764 2.504-1.74 2.6-1.74 2.62-1.72 2.677-1.72 2.706-1.697 2.763-1.697 2.792-1.652 2.85-1.652 2.878-1.608 2.936-1.585 2.965-1.563 2.993-1.518 3.022-1.474 3.08-1.45 3.108-1.384 3.137-1.34 3.195-1.295 3.195-1.25 3.252-1.183 3.28-1.14 3.3-1.05 3.28-.982 1.756-.47 1.698-.47 1.698-.424 1.698-.402 1.727-.402 3.454-.714 1.756-.335 3.5-.58 1.756-.246 1.785-.246 1.756-.2 1.813-.18 1.785-.156 3.598-.223 1.813-.067 1.813-.045h1.813l1.842.022zm20.32 154.813l-.144.2.2-.246.345-.714-.403.76zM470.65 1119.93l1.113.096 1.113.12 1.086.192 1.086.24 1.033.312 1.033.36.98.408.954.456.9.504.848.528.795.6.742.624.7.672.636.696.556.744.503.744.424.792.344.792.265.816.212.84.132.816.053.864-.026.84-.106.84-.185.816-.265.84-.318.792-1.96 4.295-2.226 4.655-2.4 4.895-2.57 5.135-2.703 5.327-2.8 5.52-15.076 29.153-6.014 11.853-2.888 5.83-2.8 5.76-2.703 5.615-2.517 5.447-2.385 5.28-1.086 2.52-1.06 2.495-.98 2.4-.954 2.35-.874 2.255-.795 2.16-.742 2.087-.662 1.992-.6 1.872-.397 1.44 3.445-.648 10.466-1.992 11.287-2.1 11.95-2.207 65.234-11.853 26.178-4.727 24.64-4.44 22.018-4.007 1.086-.168 1.113-.12 1.14-.048h1.113l1.113.072 1.113.096 1.113.192 1.086.216 1.06.288 1.033.336.98.384.954.456.927.48.874.528.82.576.768.624.7.648.662.696.583.72.503.744.45.768.37.792.318.816.212.84.16.816.08.84v.864l-.08.84-.16.816-.238.84-.3.816-.397.792-.45.768-.503.744-.583.72-.662.696-.715.648-.768.6-.82.576-.874.528-.9.504-.98.432-.98.384-1.033.336-1.06.288-1.086.216-161.044 29.297-10.36 1.944-9.406 1.824-8.558 1.68-1.43.24-1.802.216-1.908.12h-2.014l-.768-.048-.53-.024-.848-.072-.82-.12-.503-.072-.874-.144-.874-.192-.477-.12-.874-.216-.874-.264-.45-.168-.848-.312-.848-.336-.424-.192-.795-.384-.768-.408-.397-.216-.715-.432-.662-.48-.37-.24-.6-.48-.583-.48-.318-.288-.503-.48-.477-.48-.3-.336-.397-.456-.37-.48-.583-.792-.768-1.224-.6-1.224-.477-1.152-.344-1.128-.3-1.104-.212-1.056-.132-1.032-.08-1.032-.053-1.008v-1.008l.026-.984.08-1.056.185-1.944.318-2.016.397-2.064.477-2.1.583-2.16.636-2.207.715-2.255.768-2.35.848-2.375.927-2.447.954-2.495 2.093-5.16 1.14-2.64 1.192-2.735 2.464-5.495 2.623-5.687 2.782-5.807 2.888-5.88 2.968-5.975 3.02-6 3.074-6.023 3.074-6 12.002-23.178 2.782-5.447 2.676-5.23 2.5-5.015 2.305-4.727 2.12-4.415 1.88-4.15.424-.768.45-.768.556-.744.6-.72.662-.672.742-.648.768-.6.848-.552.9-.504.927-.48.954-.432 1.033-.36 1.033-.312 1.06-.264 1.086-.216 1.113-.144 1.113-.096 1.113-.048 1.14.024z"/><path d="M490.58 1114.105l1.954.068 1.954.136 1.954.16 1.988.182 1.954.25 1.988.273 1.988.318 1.988.34 1.988.387 2.022.432 1.988.455 2.022.478 2.056.523 2.022.546 2.022.6 2.056.614 2.056.637 2.056.682 2.056.705 2.056.728 2.056.75 2.056.796 2.056.842 2.022.842 2.056.887 2.056.9 2.022.932 2.056.955 2.022 1 2.022 1.023 1.988 1.046 1.988 1.07 1.988 1.092 1.988 1.137 1.92 1.137 1.954 1.183 1.92 1.205 1.885 1.228 1.885 1.274 1.85 1.274 1.817 1.32 1.817 1.342 1.782 1.342 1.748 1.387 3.427 2.866 1.645 1.456 3.222 3.002 1.542 1.547 1.474 1.547 3.907 4.14 1.782 1.956 1.645 1.865 1.6 1.797 1.474 1.774 1.44 1.75 1.337 1.73 1.302 1.706 1.2 1.75 1.13 1.73 1.097 1.774.994 1.774.96 1.82.857 1.842.857 1.888.754 1.9.754 1.98.72 2.024.685 2.115 1.337 4.48.685 2.4.685 2.547 1.44 5.504 1.577 6.2 1.817 7.05 1.337 5.117.17.296.377.6.343.614.274.614.103.25.343 1 .206.75.137.682.07.705.034.227v.478l.034.5-.034.5-.034.205-.07.682-.137.66-.17.682-.034.16-.48 1.274-.308.614-.377.614-.377.6-.514.682-.514.57-.548.57-.583.523-.617.523-.65.478-.685.455-.72.4-.788.387-.754.364-.823.34h-.034l-.857.296-.857.273-.857.205-.9.182-.9.16-.925.114-.925.068-.925.023h-.925l-.9-.045h-.07l-.96-.1-.925-.136-.925-.16-.925-.227-.9-.25-.857-.273-.857-.34-.823-.364-.07-.023-.754-.387-.754-.4-1.37-.9-.617-.5-.07-.068-.617-.523-.548-.57-.514-.57-.48-.614-.548-.728-.343-.57-.308-.57-.377-.82-.48-1.32-.343-1.114-2.125-8.165-3.393-13.237-1.405-5.4-.65-2.388-1.2-4.276-.583-1.888-.583-1.75-.583-1.638-.548-1.478-.583-1.4-.548-1.296-.583-1.228-.617-1.183-.65-1.137-.685-1.137-.754-1.137-.823-1.183-.9-1.205-1.028-1.274-1.097-1.365-1.234-1.433-1.337-1.547-1.474-1.66-1.6-1.75-3.667-3.912-1.13-1.183-1.165-1.16-1.2-1.137-1.234-1.114-2.536-2.23-1.337-1.092-1.37-1.07-1.37-1.046-1.405-1.046-1.44-1.046-2.948-2-1.508-.978-1.542-.955-3.085-1.865-1.577-.9-1.577-.864-1.6-.864-1.6-.842-1.6-.82-1.6-.796-1.645-.773-1.6-.75-1.645-.728-1.6-.682-1.645-.682-3.222-1.274-1.6-.6-1.6-.57-1.577-.546-1.577-.523-3.085-.955-1.508-.432-2.948-.773-1.44-.34-1.405-.318-1.37-.273-1.337-.273-1.302-.227-1.268-.205-1.2-.16-1.165-.136-1.097-.114-1.063-.1-.994-.068-.925-.023-.857-.023-.788.023-.72.023-.65.045-.548.045-.48.068-.377.068-.274.068-.206.045-.137.023v.023l-.377.182-.857.387-.857.34-.857.296-.925.273-.925.227-.96.182-.925.136-.994.114-.96.045-.96.023-.994-.045-.96-.068-.96-.114-.96-.16-.925-.205-.925-.25-.9-.273-.9-.318-.857-.364-.823-.4-.788-.432-.72-.455-.72-.5-.685-.546-.617-.546-.583-.6-.548-.614-.48-.637-.823-1.32-.308-.682-.274-.705-.206-.728-.17-.705-.103-.728-.07-.728.034-.75.07-.728.137-.728.17-.705.24-.705.308-.705.343-.682.4-.66.446-.66.514-.614.548-.614.583-.57.65-.546.685-.523.754-.478.754-.455.788-.432 1.337-.66 1.885-.773 1.92-.705 1.92-.57 1.954-.5 1.954-.4 1.954-.34 1.954-.25 1.92-.205 1.954-.136 1.954-.068 1.954-.023 1.92.023zm113.345 132.96l1.474.1-.96-.1-.96-.114-.446-.1.9.205zm-2.948-.682l.377.1-.583-.16.206.068zM1628.796 367.9l2.556.365 2.424.632 2.266.924h.026l1.897 1.095 1.687 1.265 1.423 1.435 1.107 1.58.817 1.68.474 1.776.132 1.776-.237 1.776v.024l-.448 1.508-.712 1.435-.922 1.362-.08.097-1.37 1.46-.685.632-1.186.997-1.37 1.095-3.505 2.75-4.85 3.722-6.114 4.622-7.38 5.57-18.315 13.744-49.86 37.098-102.116 75.582-39.82 29.4-178.25 131.387-283 208.162L663.1 1108.615l-44.72 32.622-1.45.9-1.555.778-1.687.632v.024l-2.45.632-2.53.34-2.583.024-2.556-.268-2.477-.56-2.32-.85-2.135-1.095-1.845-1.362-1.555-1.533-1.212-1.703-.843-1.85-.448-1.897-.053-1.946.343-1.897.764-1.873 1.133-1.727 1.476-1.58 1.555-1.216-.105.05.738-.5 2.16-1.58 8.644-6.3 32.704-23.913 50.676-37.122L920.36 885.252l375.13-276.057 227.95-168.412 26.96-20.045 22.795-17.004 18.262-13.696 7.326-5.498 6.008-4.573 4.664-3.576 3.24-2.53.975-.778.395-.34.817-.803 1.87-1.314 2.108-1.12 2.32-.827 2.477-.56 2.556-.243 2.583.024zm-17.893 10.3l.026.024.026-.122-.053.097zm2.082-4.28v.024l.053-.097-.053.073zm.527-.657l-.08.122.58-.584-.5.462z"/></g></g><g fill="#fff"><path d="M10.317 7.396l.06.01.057.017.055.023.052.03.05.034.045.04 16.44 16.334.035.048.03.052.024.055.018.057.01.058.005.06-.002.06-.007.06-.014.058-.02.056-.026.054-.032.05-.037.046-.042.042-.046.038-.05.032-.053.026-.056.02-.058.015-.06.008h-.06l-.06-.005-.06-.01-.057-.017-.055-.023-.052-.03-.05-.034-.044-.04L9.782 8.228l-.03-.05-.024-.055-.018-.057v-.058l-.005-.06.002-.06.007-.06.014-.058.02-.056.026-.054.032-.05.037-.047.042-.042.046-.038.05-.032.053-.027.056-.02.058-.015.06-.008h.06l.06.005zM35.895 33.04l.055.007.054.012.053.018.05.023.048.028.045.033.042.037L50.58 47.48l.033.045.028.048.024.05.018.053.013.054.007.055.002.056-.004.056-.01.055-.015.054-.02.052-.026.05-.03.047-.035.043-.04.04-.043.035-.047.03-.05.026-.052.02-.053.015-.055.01-.056.004-.056-.001-.055-.007-.054-.012-.053-.018-.05-.023-.048-.028-.045-.033-.042-.037-14.37-14.328-.028-.048-.024-.05-.018-.053-.013-.054-.007-.055-.002-.056.004-.056.01-.055.015-.053.02-.052.026-.05.03-.047.035-.043.04-.04.043-.035.047-.03.05-.026.05-.02.054-.015.055-.01.056-.004h.056zM16.177 2.14l.058.013h.002l.044.014.043.018.04.02.04.025.005.003.043.033.026.022.04.037.046.042.113.1.152.15.2.2.788.795.696.707.823.837 13.108 13.37.035.05.028.052.023.055.017.057.01.06.005.06-.002.06-.01.06-.015.058-.02.056-.027.053-.033.05-.038.047-.043.042-.047.036-.05.032-.054.025-.056.02-.058.014-.06.008h-.06l-.06-.005-.058-.012-.057-.018-.055-.024-.052-.03-.048-.036-.044-.04-1.56-1.586L15.758 3.1l-.02-.017-.043-.04-.04-.045-.033-.05-.028-.053-.022-.056-.015-.057-.01-.06-.003-.06.003-.06.01-.06.015-.057.022-.056.027-.053.034-.05.04-.045.044-.04.047-.036.052-.03.054-.025.056-.02.06-.013.06-.007h.06l.06.007zm-.416.984l.005.003-.005-.004zm26.02 24.452l.056.006.055.012.002.001.043.013.04.017.04.02.043.026.043.032.026.022.076.068.103.097.137.13.17.164.204.198.504.492 1.366 1.34 11.816 11.652.03.048.024.05.018.052.013.055.008.055.002.055-.004.056-.01.055-.015.054-.02.052-.026.05-.03.046-.035.043-.04.04-.043.036-.047.03-.048.026-.052.02-.054.016-.055.01-.055.004-.056-.001-.056-.007-.055-.013-.053-.017-.05-.023-.048-.028-.046-.032-.04-.038-14.368-14.13-.03-.047-.024-.05-.02-.052-.014-.054-.008-.055-.002-.055.004-.056.008-.055.015-.054.02-.052.025-.05.03-.047.035-.043.038-.04.043-.036.046-.032.05-.027.05-.02.054-.016.055-.01.055-.005h.056zm-.353.996l.01.006-.015-.01.005.004z"/><path d="M16.122 2.134l.035.004.035.006.034.007.034.01.033.012.032.015.03.016.06.04.027.02.026.024.025.025.023.027.02.028.02.03.018.03.015.032.013.032.012.033.008.034.007.034.005.035.002.035V2.7l-.002.035-.004.035-.007.034-.01.034-.01.033-.013.032-.015.032-.017.03-.02.03-.02.028-.022.027-.025.026-.026.023-.027.022-.03.02.026-.017.007-.006-.05.043-.192.17-.67.596-.94.837-2.625 2.354-.437.395-.368.335-.28.258-.1.094-.07.067-.024.024-.008.01-.025.025-.026.025-.027.022-.028.02-.03.02-.03.017-.03.015-.033.013-.033.01-.035.008-.034.006-.036.004h-.07l-.036-.003-.035-.005-.034-.007-.034-.01-.033-.012-.032-.014-.032-.016-.03-.018-.03-.02-.028-.02-.026-.023-.025-.025-.024-.027-.02-.028-.02-.03-.018-.03-.016-.03-.014-.032-.012-.033-.01-.033-.008-.035L9.698 8l-.003-.035-.001-.035.002-.035.003-.035.006-.035.01-.034.01-.033h.001l.012-.03.014-.03.015-.03.017-.028.018-.027.003-.004.017-.022.018-.02.02-.024.062-.06.083-.08.108-.1.286-.263.37-.338.44-.397 1.015-.914 3.227-2.88.197-.173.06-.052.026-.022.025-.02.027-.02.03-.02.03-.016.032-.015.033-.012.033-.01.035-.008.034-.006.036-.003.035-.002.036.001zm-5.448 6.15zM56.1 41.627l.036.003.035.006.034.008.033.01.033.013.033.014.03.017.03.02.028.02.028.022.026.024.023.025.023.027.02.027.02.03.016.03.015.03.014.032.01.033.01.034.006.035.005.035.002.035v.035l-.002.035-.004.035-.007.034-.008.035-.012.033-.013.032-.015.03-.016.03-.02.03-.02.028-.023.027-.036.04-.057.055-.192.183-.297.28-1.895 1.774-1.116 1.05-.792.752-.47.453-.406.394-.17.17-.147.148-.12.124-.048.05-.04.043-.022.024-.003.008-.04.06-.022.03-.023.027-.026.026-.027.024-.03.022-.03.02-.03.018-.033.016-.033.014-.034.012-.035.01-.036.007-.035.005h-.036-.036-.036l-.035-.005-.036-.007-.034-.01-.035-.012-.033-.013h-.003l-.03-.016-.03-.017-.06-.04-.052-.048-.023-.027-.022-.027-.02-.03-.017-.03-.016-.03-.014-.032-.012-.033-.01-.034v-.004l-.008-.033-.005-.034-.003-.034-.001-.034.001-.034.004-.034.005-.034.008-.038.008-.027.008-.026.01-.026.012-.026.003-.007.01-.022.013-.022.04-.06.043-.054.042-.05.045-.05.05-.054.057-.06.13-.133.154-.155.373-.367.216-.208.23-.223.502-.48.54-.5 1.12-1.055 2.375-2.228.037-.036.022-.023.027-.024.028-.023.06-.04.03-.017.033-.014.034-.013.035-.01.035-.008.035-.005.036-.003h.036l.036.002zM18.125 10.244l.02.001.02.002.04.006.02.004.02.005.04.012.02.008.02.007.02.01.054.03.017.01.017.012.048.04.014.015.015.014.04.048.012.017.01.017.03.054.01.02.007.02.008.02.012.04.005.02.004.02.006.04.002.02.001.02v.04l-.001.02-.002.02-.006.04-.004.02-.005.02-.012.04-.008.02-.007.02-.01.018-.01.02-.01.018-.022.034-.012.017-.013.017-.013.015-.013.016-1.973 1.972-.015.014-.016.013-.016.012-.017.012-.017.01-.054.03-.02.01-.02.008-.02.007-.04.012-.02.005-.02.004-.04.006-.02.002-.04.002-.04-.002-.02-.002-.04-.006-.02-.004-.02-.005-.04-.012-.02-.007-.02-.008-.018-.01-.02-.01-.018-.01-.034-.022-.034-.024-.015-.013-.016-.014-.015-.014-.014-.015-.014-.016-.013-.015-.024-.034-.022-.034-.01-.018-.01-.02-.01-.018-.008-.02-.007-.02-.012-.04-.005-.02-.004-.02-.006-.04-.002-.02-.002-.04.002-.04.002-.02.006-.04.004-.02.005-.02.012-.04.007-.02.008-.02.01-.02.03-.054.01-.017.012-.017.012-.016.013-.016.028-.03 1.99-1.983.017-.013.017-.012.034-.022.018-.01.02-.01.018-.01.02-.007.02-.008.04-.012.02-.005.02-.004.04-.006.02-.002.02-.001h.04zm6.525 3.1l.028.001.027.003.027.004.027.006.027.007.026.008.025.01.026.01.024.012.048.028.044.032.02.018.04.04.018.02.017.022.016.022.015.023.013.024.012.024.012.026.01.025.01.026.007.027.006.026.005.027.003.028.002.027.001.027-.001.028-.002.027-.004.027-.005.027-.006.027-.008.026-.02.052-.01.025-.013.024-.014.024-.015.023-.016.022-.017.02-.018.02-.02.02-3.512 3.387-.02.017-.022.017-.023.015-.024.014-.024.013-.025.012-.025.01-.026.01-.026.008-.027.006-.026.006-.028.004-.027.002H21.1l-.027-.003-.027-.004-.027-.006L21 17.8l-.026-.008-.026-.01-.025-.01-.025-.012-.024-.013-.023-.014-.023-.016-.02-.016-.02-.018-.04-.04-.018-.02-.017-.022-.016-.022-.015-.023-.013-.024-.013-.025-.02-.05-.008-.026-.008-.027-.006-.027-.004-.027-.003-.027-.002-.027-.001-.028.001-.027.002-.027.004-.028.005-.027.006-.026.007-.027.01-.026.01-.025.012-.025.026-.048.015-.023.017-.022.017-.02.018-.02.02-.02 3.534-3.405.022-.016.046-.03.024-.013.025-.01h.026l.025-.01.027-.008.026-.007.027-.005.027-.004.028-.002.027-.002.027.001z"/><path d="M27.812 19.026l.022.001.044.006.022.004.022.006.042.012.02.008.04.018.04.02.02.012.018.012.018.013.017.014.017.015.016.015.016.016.014.016.015.017.026.036.012.02.04.08.008.02.007.02.006.022.006.02.008.044.003.022.002.022.001.022v.022l-.002.044-.006.044-.004.022-.006.02-.006.022-.006.02-.008.02-.04.08-.012.02-.012.018-.013.018-.014.017-.015.017-.015.016-.016.015-2.294 2.147-.017.014-.017.013-.018.013-.02.012-.04.02-.04.018-.02.008-.02.007-.022.007-.02.005-.022.005-.044.006h-.022l-.022.001h-.044l-.022-.002-.044-.006-.022-.004-.02-.005-.022-.006-.02-.007-.04-.016h-.04l-.02-.01-.02-.012-.018-.012-.018-.013-.017-.014-.017-.015-.016-.015-.03-.032-.014-.017-.014-.018-.013-.018-.01-.02h-.012l-.03-.06L25 21.9h-.007l-.006-.02-.006-.022-.004-.022-.004-.02-.003-.022-.002-.022-.001-.023v-.04l.002-.044.006-.044.005-.022.005-.02.006-.02.014-.042.04-.08.012-.02.026-.036.028-.034.015-.016 2.293-2.147.017-.015.017-.014.017-.013.02-.013.018-.012.08-.04.02-.008.02-.007.042-.012.044-.008.022-.003.022-.002.022-.001h.022l.022.001zm11.084 12.14h.02l.02.002.04.006.02.004.04.01.02.006.02.007.02.008.02.01.018.01.02.01.018.01.05.036.016.013.03.028.015.015.014.016.026.032.012.017.012.018.01.017.01.02.01.018.01.02.008.02.007.02.012.04.005.02.008.04.004.04.002.042-.002.04v.02l-.003.02-.008.04-.005.02-.006.02-.014.04-.008.02-.01.02-.03.054-.024.034-.013.017-.013.015-.014.016-.015.015-2.057 1.995-.016.012-.018.012-.017.01-.018.01-.02.01-.018.01-.02.01-.04.014-.04.012-.04.008-.04.006-.042.002h-.02l-.02-.001-.04-.004-.06-.012-.04-.012-.02-.007-.02-.008-.038-.018-.036-.02-.018-.012-.017-.01-.032-.026-.016-.014-.015-.014-.015-.015-.013-.016-.014-.016-.013-.016-.012-.017-.01-.017v-.018l-.01-.018-.018-.038-.008-.02-.014-.04-.006-.02-.005-.02-.004-.02-.006-.04-.002-.02-.001-.02v-.04l.004-.042.006-.04.01-.04.012-.04.016-.04.01-.02.03-.054.024-.034.013-.016.028-.032.014-.014 2.024-1.97.016-.014.016-.013.034-.024.054-.03.038-.018.04-.014.04-.012.04-.008.02-.003.042-.004h.02.02zm6.2 3.445l.027.003.027.004.026.005.026.006.026.008.026.01.025.01.024.01.024.013.023.014.023.015.022.016.02.017.02.018.02.02.018.02.017.02.032.044.014.023.024.048.01.025.01.026.008.025.006.027.006.026.004.027.003.027.001.027v.027l-.001.027-.002.026-.004.027-.005.027-.014.052-.01.025-.022.05-.013.024-.013.023-.015.022-.016.022-.017.02-.018.02-.02.02-3.4 3.282-.02.017-.02.016-.023.015-.023.014-.023.013-.025.012-.05.02-.026.008-.026.007-.026.006-.027.004-.054.004h-.054l-.027-.003-.026-.003-.027-.006-.026-.006-.026-.008-.026-.01-.025-.01-.024-.01-.024-.013-.046-.028-.02-.016-.02-.017-.02-.018-.02-.02-.018-.02-.017-.02-.016-.022-.015-.022-.014-.023-.013-.024-.012-.024-.01-.025-.01-.026-.008-.025-.006-.026-.006-.027-.004-.027-.003-.026v-.08l.002-.027.004-.027.005-.026.007-.027.007-.026.01-.025.022-.05.013-.023.013-.024.015-.022.016-.022.017-.02.018-.02.02-.02 3.432-3.3.02-.016.023-.015.023-.014.024-.013.024-.012.05-.02.026-.008.026-.007.027-.005.026-.004.027-.003.027-.002h.027l.027.001zm3.868 6.485l.022.002.02.002.02.003.02.004.04.01.04.014.04.016.038.02.036.022.018.013.017.012.032.028.016.015.014.015.015.016.026.034.012.017.012.018.01.02.01.018.02.04.008.02.007.02.012.04.008.042.003.02.004.042.001.022-.002.042-.002.02-.002.022-.008.042-.005.02-.006.02-.014.04-.01.02-.018.038-.01.02-.01.018-.012.017-.013.018-.013.016-.014.017-.014.015-1.7 1.782-.226.24-.06.063-.012.015-.015.016-.015.015-.015.014-.016.014-.017.014-.017.013-.017.012-.018.01-.06.03-.04.016-.02.007-.02.006-.042.01-.042.006-.042.004h-.03l-.02-.002h-.022l-.042-.006-.04-.01-.02-.006-.02-.007-.04-.016-.02-.01-.018-.01-.02-.01-.018-.01-.017-.013-.018-.012-.048-.042-.015-.016-.014-.015-.014-.017-.013-.017-.012-.017-.012-.018-.01-.018-.02-.038-.01-.02-.008-.02-.014-.04-.006-.02-.004-.02-.005-.02-.003-.02-.002-.02-.002-.022-.001-.02v-.02l.001-.022.004-.042.004-.022.004-.02.005-.02.006-.02.014-.04.008-.02.01-.02.02-.038.01-.018.012-.018.026-.034.014-.016h.008l.02-.024.3-.317 1.73-1.8.032-.028.034-.026.018-.012.018-.01.038-.02.02-.01.04-.016.02-.007.02-.005.02-.006.02-.004.042-.006v-.002l.022-.001h.042z"/></g></svg>