<?xml version="1.0" encoding="UTF-8" standalone="no"?>
<!DOCTYPE svg PUBLIC "-//W3C//DTD SVG 1.1//EN" "http://www.w3.org/Graphics/SVG/1.1/DTD/svg11.dtd">
<svg width="100%" height="100%" viewBox="0 0 64 64" version="1.1" xmlns="http://www.w3.org/2000/svg" xmlns:xlink="http://www.w3.org/1999/xlink" xml:space="preserve" xmlns:serif="http://www.serif.com/" style="fill-rule:evenodd;clip-rule:evenodd;stroke-linejoin:round;stroke-miterlimit:2;">
    <g id="Layer1" transform="matrix(0.0334274,0,0,0.0445699,-3.25802,-7.77194)">
        <g transform="matrix(40.8809,0,0,33.3397,-159.525,-63.7844)">
            <path d="M34.316,9.579C40.784,9.579 46.034,14.417 46.034,20.375C46.034,26.334 40.784,31.171 34.316,31.171C27.849,31.171 22.598,26.334 22.598,20.375C22.598,14.417 27.849,9.579 34.316,9.579ZM34.316,11.392C39.697,11.392 44.066,15.417 44.066,20.375C44.066,25.333 39.697,29.358 34.316,29.358C28.935,29.358 24.566,25.333 24.566,20.375C24.566,15.417 28.935,11.392 34.316,11.392Z" style="fill:#384c6f;"/>
        </g>
        <g transform="matrix(29.9155,0,0,22.4367,97.4655,174.376)">
            <path d="M27.208,32.742L27.305,32.752L27.402,32.767L27.497,32.787L27.591,32.813L27.683,32.845L27.774,32.882L27.862,32.924L27.947,32.971L28.03,33.023L28.109,33.08L28.185,33.141L28.257,33.206L28.326,33.276L28.39,33.349L28.45,33.426L28.505,33.507L28.555,33.59L28.601,33.676L28.641,33.765L28.676,33.856L28.706,33.949L28.731,34.044L28.75,34.139L28.763,34.236L28.77,34.333L28.772,34.431L28.769,34.528L28.759,34.625L28.744,34.722L28.724,34.817L28.698,34.911L28.666,35.003L28.629,35.094L28.587,35.182L28.54,35.267L28.488,35.35L28.432,35.429L28.37,35.505L28.305,35.577L28.235,35.645L28.189,35.688L28.113,35.755L27.946,35.896L27.716,36.086L27.425,36.325L27.076,36.611L26.672,36.94L25.722,37.711L24.615,38.609L23.39,39.599L20.756,41.729L19.429,42.803L18.149,43.84L16.959,44.805L15.899,45.668L15.432,46.049L15.014,46.393L14.649,46.693L14.345,46.945L14.106,47.145L14.017,47.221L13.949,47.279L13.94,47.288L13.888,47.342L13.816,47.408L13.74,47.47L13.661,47.527L13.579,47.58L13.494,47.627L13.407,47.67L13.316,47.708L13.224,47.74L13.131,47.767L13.035,47.788L12.939,47.804L12.842,47.814L12.745,47.819L12.647,47.817L12.55,47.81L12.453,47.798L12.357,47.78L12.263,47.756L12.261,47.756L12.171,47.728L12.082,47.694L11.996,47.656L11.911,47.613L11.83,47.565L11.751,47.513L11.675,47.457L11.602,47.396L11.533,47.331L11.468,47.262L11.407,47.19L11.35,47.115L11.297,47.036L11.249,46.955L11.205,46.871L11.166,46.784L11.133,46.696L11.104,46.606L11.08,46.514L11.062,46.421L11.049,46.327L11.041,46.233L11.038,46.138L11.038,46.137L11.041,46.039L11.05,45.942L11.064,45.846L11.084,45.75L11.11,45.656L11.14,45.564L11.177,45.473L11.218,45.385L11.264,45.299L11.316,45.217L11.319,45.211L11.368,45.141L11.42,45.074L11.476,45.009L11.515,44.966L11.582,44.9L11.66,44.827L11.743,44.754L11.835,44.674L11.942,44.583L12.197,44.37L12.513,44.108L12.885,43.801L13.309,43.454L13.78,43.069L14.844,42.203L16.037,41.234L17.319,40.196L18.647,39.122L21.281,36.992L22.504,36.002L23.61,35.107L24.556,34.338L24.956,34.013L25.299,33.732L25.581,33.5L25.794,33.324L25.928,33.21L25.947,33.194L25.956,33.185L26.029,33.121L26.106,33.061L26.187,33.006L26.27,32.956L26.357,32.91L26.445,32.87L26.536,32.835L26.629,32.805L26.724,32.78L26.819,32.762L26.916,32.748L27.013,32.741L27.111,32.739L27.208,32.742ZM14.024,47.191L14.048,47.165L14.072,47.129L14.024,47.191Z" style="fill:#384c6f;"/>
        </g>
        <g transform="matrix(29.9155,0,0,22.4367,-26.2039,116.791)">
            <text x="10.342px" y="62.597px" style="font-family:'Helvetica';font-size:12.833px;fill:#384c6f;">R</text>
            <text x="19.61px" y="62.597px" style="font-family:'Helvetica';font-size:9.356px;fill:#384c6f;">ESEARCH</text>
        </g>
    </g>
</svg>
