<svg xmlns="http://www.w3.org/2000/svg" width="100%" height="100%" viewBox="0 0 64 64" fill-rule="evenodd" stroke-linejoin="round" stroke-miterlimit="2"><g transform="matrix(.033427 0 0 .04457 -3.25802 -7.77194)"><path d="M1243.344 255.577c264.418 0 479.042 161.297 479.042 359.935 0 198.67-214.625 359.935-479.042 359.935-264.377 0-479.042-161.264-479.042-359.935 0-198.638 214.666-359.935 479.042-359.935zm0 60.445c219.98 0 398.6 134.192 398.6 299.5s-178.6 299.5-398.6 299.5-398.6-134.192-398.6-299.5 178.6-299.5 398.6-299.5zM911.406 908.998l2.902.224 2.902.337 2.842.45 2.812.583 2.752.718 2.722.83 2.633.942 2.543 1.055 2.483 1.167 2.363 1.28 2.274 1.37 2.154 1.458 2.064 1.57 1.915 1.638 1.795 1.728 1.645 1.817 1.496 1.862 1.376 1.93 1.197 1.997 1.047 2.042.897 2.087.748 2.13.568 2.13.4 2.176.2 2.176.06 2.2-.1 2.176-.3 2.176-.45 2.176-.598 2.13-.778 2.1-.957 2.064-1.107 2.042-1.256 1.974-1.406 1.907-1.556 1.862-1.675 1.772-1.855 1.705-1.945 1.615-2.094 1.526-1.376.965-2.274 1.503-4.996 3.164-6.88 4.263-19.146 11.78-12.086 7.382-61.536 37.447-36.646 22.212-224.097 136.168-13.97 8.548-23.424 14.45-9.094 5.654-7.15 4.487-4.697 3.007-.27.202-1.556 1.212-2.154 1.48-2.274 1.4-2.363 1.28-2.453 1.2-2.543 1.055-2.603.965-2.722.853-2.752.718-2.782.606-2.872.47-2.872.36-2.902.224-2.902.112-2.932-.045-2.902-.157-2.902-.27-2.872-.404-2.812-.538h-.06l-2.692-.628-2.662-.763-2.573-.853-2.543-.965-2.423-1.077-2.363-1.167-2.274-1.256-2.184-1.37-2.064-1.458-1.945-1.548-1.825-1.615-1.705-1.683-1.586-1.772-1.436-1.817-1.316-1.885-1.167-1.952-.987-1.974-.868-2.02-.718-2.064-.538-2.087-.4-2.1-.24-2.1-.1-2.13v-.022l.1-2.2.27-2.176.42-2.154.598-2.154.778-2.1.897-2.064 1.107-2.042 1.227-1.974 1.376-1.93 1.556-1.84.1-.135 1.466-1.57 1.556-1.503 1.675-1.458 1.167-.965 2.004-1.48 2.333-1.638 2.483-1.638 2.752-1.795 3.2-2.042 7.628-4.78 9.453-5.878 11.13-6.888 12.684-7.786 14.1-8.638 67.52-41.17 38.352-23.3 188.2-114.18 28.3-17.254 11.966-7.292 10.26-6.305 8.436-5.205 6.372-3.95 4-2.558.568-.36.27-.202 2.184-1.436 2.303-1.346 2.423-1.234 2.483-1.122 2.603-1.032 2.633-.897 2.722-.785 2.782-.673 2.842-.56 2.842-.404 2.902-.314 2.902-.157 2.932-.045 2.902.067zM517 1233.186l.718-.583.718-.808-1.436 1.4z" fill="#fff"/><g transform="matrix(29.9155 0 0 22.4367 -26.2039 116.791)"><text x="10.342" y="62.597" font-family="Helvetica" font-size="12.833" fill="#fff">R</text><text x="19.61" y="62.597" font-family="Helvetica" font-size="9.356" fill="#fff">ESEARCH</text></g></g></svg>