<svg xmlns="http://www.w3.org/2000/svg" width="100%" height="100%" viewBox="0 0 200 150" fill-rule="evenodd" stroke-linecap="round" stroke-linejoin="round" stroke-miterlimit="1.5"><g transform="scale(.625 .46875)"><path d="M0 0h320v320H0z" fill="#b4819e"/><path d="M125.662 230.214l.078.017.077.023.075.034.074.04.07.05.067.055.064.064.06.07.054.077.05.083.043.087.04.092.032.096.027.1.02.102.014.105.008.105.002.105-.006.107-.01.105-.02.102-.114.542-.117.563-.118.585-.122.604-1.08 5.453-.304 1.49-.158.757-.162.764-.165.77-.17.774-.173.777-.18.78-.182.783-.186.78-.192.78-.098.4-.198.78-.307 1.158-.106.384-.214.764-.11.38-.1.375-.112.375-.114.373-.114.37-.117.37-.117.365-.118.363-.12.356-.035.096-.04.1-.048.085-.05.08-.056.075-.06.068-.066.06-.067.053-.072.047-.074.038-.077.03-.078.02-.078.013-.078.004-.08-.004-.078-.015-.078-.02-.075-.032-.074-.038-.07-.047-.07-.055-.064-.062-.06-.068-.056-.075-.05-.08-.046-.087-.04-.1-.035-.096-.027-.098-.022-.102-.016-.105-.01-.105-.003-.105.003-.107.01-.105.016-.105.024-.1.03-.098.117-.348.112-.346.112-.35.112-.352.11-.354.11-.358.107-.36.107-.363.312-1.103.202-.745.198-.75.096-.378.192-.76.094-.38.09-.382.184-.766.178-.764.174-.766.17-.764.166-.762.163-.76.158-.753.157-.75.152-.742.15-.732.288-1.438.792-4.01.243-1.205.118-.572.115-.55.026-.1.03-.096.037-.094.042-.1.048-.085.053-.08.058-.073.062-.066.066-.06.07-.05.072-.045.075-.036.077-.026.077-.02.08-.01.078-.002.08.006z" fill="#c36d15"/><path d="M69.984 230.214l.078.015.077.023.075.032.074.04.072.047.067.055.064.064.06.068.054.077.05.08.045.087.04.092.034.096.73 2.336.91 2.912 4.517 14.496.71 2.25.264.832.03.098.02.102.016.105.008.105.003.105-.005.107-.01.105-.018.102-.024.102-.03.098-.035.094-.042.1-.046.085-.053.08-.056.073-.06.068-.066.06-.07.053-.072.045-.074.038-.077.028-.078.02-.078.013-.078.002-.08-.006-.078-.013-.077-.023-.077-.032-.074-.038-.07-.05-.067-.055-.064-.062-.06-.07-.054-.075-.05-.08-.045-.087-.04-.092-.034-.096-.267-.834-.328-1.04-.382-1.218-1.39-4.446-3.13-10.057-1.638-5.24-.03-.1-.02-.102-.014-.102-.01-.107-.002-.105.005-.107.01-.105.018-.102.024-.102.03-.096.035-.096.042-.1.048-.085.053-.08.056-.073.062-.068.064-.06.07-.053.072-.045.075-.036.077-.028.077-.02.08-.01.078-.002.08.006z" fill="#e9851d"/><g stroke="#eb861e"><circle cx="8.077" cy="22.901" r="62.627" fill="url(#A)" stroke-opacity=".01" stroke-width="1.64" transform="matrix(1.16879 0 0 1.55839 88.417 105.232)"/><path d="M61.16 130.193H7.19l13.493-23.843h26.984l13.493 23.843z" fill="url(#B)" stroke-opacity=".01" stroke-width="1.19" transform="matrix(1.48521 0 0 -2.29978 47.0986 553.734)"/></g><text x="-26.553" y="81.561" font-family="Optima-Regular, Optima" font-size="32" fill="#fff" transform="matrix(1.6 0 0 2.13333 96.2958 2.62627)">Vennpool</text></g><defs><linearGradient id="A" x1="-54.55" y1="22.901" x2="70.705" y2="22.901" gradientUnits="userSpaceOnUse"><stop offset="0" stop-color="#eb861e"/><stop offset=".59" stop-color="#d47819"/><stop offset=".8" stop-color="#a2590d"/><stop offset="1" stop-color="#713a02"/></linearGradient><linearGradient id="B" x1="7.191" y1="118.272" x2="61.161" y2="118.272" gradientUnits="userSpaceOnUse"><stop offset="0" stop-color="#eb861e"/><stop offset=".59" stop-color="#d47819"/><stop offset=".8" stop-color="#a2590d"/><stop offset="1" stop-color="#713a02"/></linearGradient></defs></svg>