<?xml version="1.0" encoding="UTF-8" standalone="no"?>
<!DOCTYPE svg PUBLIC "-//W3C//DTD SVG 1.1//EN" "http://www.w3.org/Graphics/SVG/1.1/DTD/svg11.dtd">
<svg width="100%" height="100%" viewBox="0 0 64 64" version="1.1" xmlns="http://www.w3.org/2000/svg" xmlns:xlink="http://www.w3.org/1999/xlink" xml:space="preserve" xmlns:serif="http://www.serif.com/" style="fill-rule:evenodd;clip-rule:evenodd;stroke-linecap:round;stroke-linejoin:round;stroke-miterlimit:1.5;">
    <g id="Layer1">
        <path d="M62.393,63.493C62.393,63.627 57.397,23.621 57.397,23.621L57.392,23.547L59.586,1.646L39.685,11.049L39.699,11.022L19.619,1.646L23.007,23.547L22.963,23.547C22.963,23.547 16.806,43.516 16.866,43.557L16.866,44.244L33.524,32L30.324,50.773L30.342,50.908L33.726,62.825C39.699,85.18 62.239,64.309 62.393,64" style="fill:rgb(244,242,238);stroke:rgb(10,0,0);stroke-width:2.75px;"/>
        <path d="M32.361,15.722L32.403,15.725L32.445,15.728L32.486,15.734L32.528,15.74L32.569,15.748L32.61,15.756L32.651,15.767L32.691,15.778L32.731,15.79L32.771,15.804L32.81,15.819L32.849,15.836L32.887,15.853L32.924,15.871L32.962,15.891L32.998,15.912L33.034,15.934L33.069,15.957L33.103,15.981L33.137,16.006L33.17,16.032L33.202,16.059L33.233,16.087L33.263,16.116L33.293,16.146L33.321,16.177L33.349,16.208L33.375,16.241L33.401,16.274L33.425,16.308L33.449,16.343L33.471,16.378L33.493,16.414L33.513,16.451L33.532,16.488L33.55,16.526L33.567,16.565L33.582,16.603L33.597,16.643L33.61,16.683L33.622,16.723L33.633,16.763L33.642,16.804L33.65,16.845L33.657,16.887L33.663,16.928L33.668,16.97L33.671,17.012L33.673,17.054L33.673,17.096L33.673,20.335L33.673,20.377L33.671,20.419L33.668,20.461L33.663,20.503L33.657,20.544L33.65,20.586L33.642,20.627L33.633,20.667L33.622,20.708L33.61,20.748L33.597,20.788L33.582,20.827L33.567,20.866L33.55,20.905L33.532,20.943L33.513,20.98L33.493,21.017L33.471,21.053L33.449,21.088L33.425,21.123L33.401,21.157L33.375,21.19L33.349,21.223L33.321,21.254L33.293,21.285L33.263,21.315L33.233,21.344L33.202,21.372L33.17,21.399L33.137,21.425L33.103,21.45L33.069,21.474L33.034,21.497L32.998,21.519L32.962,21.54L32.924,21.559L32.887,21.578L32.849,21.595L32.81,21.612L32.771,21.627L32.731,21.64L32.691,21.653L32.651,21.664L32.61,21.674L32.569,21.683L32.528,21.691L32.486,21.697L32.445,21.702L32.403,21.706L32.361,21.709L32.319,21.71L32.277,21.71L32.235,21.709L32.194,21.706L32.152,21.702L32.11,21.697L32.069,21.691L32.028,21.683L31.987,21.674L31.946,21.664L31.905,21.653L31.865,21.64L31.826,21.627L31.787,21.612L31.748,21.595L31.71,21.578L31.672,21.559L31.635,21.54L31.599,21.519L31.563,21.497L31.528,21.474L31.494,21.45L31.46,21.425L31.427,21.399L31.395,21.372L31.364,21.344L31.334,21.315L31.304,21.285L31.276,21.254L31.248,21.223L31.221,21.19L31.196,21.157L31.171,21.123L31.148,21.088L31.125,21.053L31.104,21.017L31.084,20.98L31.065,20.943L31.047,20.905L31.03,20.866L31.014,20.827L31,20.788L30.987,20.748L30.975,20.708L30.964,20.667L30.955,20.627L30.946,20.586L30.939,20.544L30.934,20.503L30.929,20.461L30.926,20.419L30.924,20.377L30.923,20.335L30.923,17.096L30.924,17.054L30.926,17.012L30.929,16.97L30.934,16.928L30.939,16.887L30.946,16.845L30.955,16.804L30.964,16.763L30.975,16.723L30.987,16.683L31,16.643L31.014,16.603L31.03,16.565L31.047,16.526L31.065,16.488L31.084,16.451L31.104,16.414L31.125,16.378L31.148,16.343L31.171,16.308L31.196,16.274L31.221,16.241L31.248,16.208L31.276,16.177L31.304,16.146L31.334,16.116L31.364,16.087L31.395,16.059L31.427,16.032L31.46,16.006L31.494,15.981L31.528,15.957L31.563,15.934L31.599,15.912L31.635,15.891L31.672,15.871L31.71,15.853L31.748,15.836L31.787,15.819L31.826,15.804L31.865,15.79L31.905,15.778L31.946,15.767L31.987,15.756L32.028,15.748L32.069,15.74L32.11,15.734L32.152,15.728L32.194,15.725L32.235,15.722L32.277,15.721L32.319,15.721L32.361,15.722Z" style="fill:rgb(21,21,21);"/>
        <g transform="matrix(1,0,0,1,16.4665,0)">
            <path d="M30.405,15.722L30.447,15.725L30.488,15.728L30.53,15.734L30.571,15.74L30.613,15.748L30.654,15.756L30.694,15.767L30.735,15.778L30.775,15.79L30.814,15.804L30.853,15.819L30.892,15.836L30.93,15.853L30.968,15.871L31.005,15.891L31.041,15.912L31.077,15.934L31.112,15.957L31.147,15.981L31.18,16.006L31.213,16.032L31.245,16.059L31.276,16.087L31.307,16.116L31.336,16.146L31.365,16.177L31.392,16.208L31.419,16.241L31.444,16.274L31.469,16.308L31.492,16.343L31.515,16.378L31.536,16.414L31.556,16.451L31.575,16.488L31.593,16.526L31.61,16.565L31.626,16.603L31.64,16.643L31.653,16.683L31.665,16.723L31.676,16.763L31.686,16.804L31.694,16.845L31.701,16.887L31.707,16.928L31.711,16.97L31.714,17.012L31.716,17.054L31.717,17.096L31.717,20.335L31.716,20.377L31.714,20.419L31.711,20.461L31.707,20.503L31.701,20.544L31.694,20.586L31.686,20.627L31.676,20.667L31.665,20.708L31.653,20.748L31.64,20.788L31.626,20.827L31.61,20.866L31.593,20.905L31.575,20.943L31.556,20.98L31.536,21.017L31.515,21.053L31.492,21.088L31.469,21.123L31.444,21.157L31.419,21.19L31.392,21.223L31.365,21.254L31.336,21.285L31.307,21.315L31.276,21.344L31.245,21.372L31.213,21.399L31.18,21.425L31.147,21.45L31.112,21.474L31.077,21.497L31.041,21.519L31.005,21.54L30.968,21.559L30.93,21.578L30.892,21.595L30.853,21.612L30.814,21.627L30.775,21.64L30.735,21.653L30.694,21.664L30.654,21.674L30.613,21.683L30.571,21.691L30.53,21.697L30.488,21.702L30.447,21.706L30.405,21.709L30.363,21.71L30.321,21.71L30.279,21.709L30.237,21.706L30.195,21.702L30.154,21.697L30.112,21.691L30.071,21.683L30.03,21.674L29.989,21.664L29.949,21.653L29.909,21.64L29.869,21.627L29.83,21.612L29.791,21.595L29.753,21.578L29.716,21.559L29.679,21.54L29.642,21.519L29.606,21.497L29.571,21.474L29.537,21.45L29.503,21.425L29.47,21.399L29.438,21.372L29.407,21.344L29.377,21.315L29.348,21.285L29.319,21.254L29.291,21.223L29.265,21.19L29.239,21.157L29.215,21.123L29.191,21.088L29.169,21.053L29.148,21.017L29.127,20.98L29.108,20.943L29.09,20.905L29.073,20.866L29.058,20.827L29.043,20.788L29.03,20.748L29.018,20.708L29.008,20.667L28.998,20.627L28.99,20.586L28.983,20.544L28.977,20.503L28.973,20.461L28.969,20.419L28.967,20.377L28.967,20.335L28.967,17.096L28.967,17.054L28.969,17.012L28.973,16.97L28.977,16.928L28.983,16.887L28.99,16.845L28.998,16.804L29.008,16.763L29.018,16.723L29.03,16.683L29.043,16.643L29.058,16.603L29.073,16.565L29.09,16.526L29.108,16.488L29.127,16.451L29.148,16.414L29.169,16.378L29.191,16.343L29.215,16.308L29.239,16.274L29.265,16.241L29.291,16.208L29.319,16.177L29.348,16.146L29.377,16.116L29.407,16.087L29.438,16.059L29.47,16.032L29.503,16.006L29.537,15.981L29.571,15.957L29.606,15.934L29.642,15.912L29.679,15.891L29.716,15.871L29.753,15.853L29.791,15.836L29.83,15.819L29.869,15.804L29.909,15.79L29.949,15.778L29.989,15.767L30.03,15.756L30.071,15.748L30.112,15.74L30.154,15.734L30.195,15.728L30.237,15.725L30.279,15.722L30.321,15.721L30.363,15.721L30.405,15.722Z" style="fill:rgb(21,21,21);"/>
        </g>
    </g>
    <g id="Layer2">
        <path d="M17.421,43.821C17.404,43.827 33.211,32.012 33.211,32.069L33.201,32.277C33.201,32.277 29.936,50.415 29.856,50.973L29.84,50.96C29.965,51.428 33.107,63.582 33.205,63.582L33.097,63.384C33.097,63.384 33.766,65.998 32.697,67.586C32.528,67.836 0.682,66.673 0.817,65.998C0.858,65.793 1.274,63.582 1.339,63.384C1.351,63.349 1.414,63.219 1.383,63.181L1.414,63.044C1.414,63.044 5.489,51.017 5.489,50.611L5.489,50.601C5.472,50.678 2.045,31.71 2.161,31.826L2.158,32C2.204,32.061 16.762,44.149 16.762,44.149" style="fill:rgb(216,222,224);"/>
        <path d="M33.512,30.727L33.644,30.764L33.772,30.813L33.895,30.876L34.01,30.95L34.118,31.035L34.216,31.131L34.305,31.236L34.383,31.349L34.449,31.469L34.502,31.596L34.543,31.727L34.57,31.862L34.584,31.998L34.584,32.136L34.574,32.344L34.567,32.432L34.554,32.52L34.043,35.363L32.912,41.659L32.303,45.055L31.766,48.058L31.548,49.281L31.377,50.248L31.262,50.906L31.256,50.939L31.348,51.29L31.736,52.783L32.264,54.812L32.559,55.94L32.863,57.098L33.166,58.249L33.459,59.359L33.735,60.394L33.983,61.317L34.094,61.725L34.194,62.092L34.283,62.412L34.359,62.68L34.421,62.891L34.444,62.968L34.462,63.027L34.463,63.03L34.473,63.05L34.52,63.181L34.554,63.316L34.574,63.453L34.58,63.592L34.572,63.731L34.568,63.758L34.581,63.844L34.6,63.988L34.619,64.141L34.636,64.303L34.65,64.473L34.662,64.647L34.668,64.742L34.672,64.835L34.675,64.93L34.677,65.027L34.678,65.125L34.678,65.224L34.677,65.325L34.675,65.427L34.671,65.531L34.666,65.636L34.659,65.742L34.651,65.849L34.641,65.957L34.629,66.066L34.615,66.177L34.6,66.288L34.582,66.4L34.562,66.512L34.54,66.626L34.515,66.74L34.488,66.854L34.458,66.969L34.425,67.085L34.389,67.201L34.35,67.317L34.308,67.433L34.263,67.55L34.214,67.666L34.161,67.782L34.105,67.898L34.044,68.013L33.98,68.127L33.911,68.241L33.85,68.335L33.771,68.445L33.681,68.546L33.581,68.639L33.578,68.642L33.473,68.722L33.361,68.791L33.242,68.849L33.236,68.852L33.151,68.886L33.065,68.913L33.007,68.93L32.903,68.952L32.795,68.967L32.7,68.976L32.614,68.982L32.528,68.986L32.437,68.989L32.337,68.991L32.12,68.994L31.868,68.995L31.581,68.995L31.259,68.992L30.904,68.988L30.517,68.982L30.099,68.974L29.651,68.965L29.174,68.954L28.671,68.942L28.141,68.928L27.587,68.913L26.412,68.878L25.156,68.839L23.832,68.794L22.45,68.745L21.023,68.693L19.562,68.636L18.078,68.576L16.584,68.513L15.09,68.447L14.347,68.413L13.608,68.378L12.876,68.344L12.151,68.308L11.435,68.272L10.729,68.236L10.035,68.2L9.354,68.163L8.687,68.126L8.037,68.088L7.404,68.051L6.79,68.013L6.197,67.976L5.625,67.938L5.076,67.9L4.552,67.862L4.053,67.825L3.581,67.787L3.138,67.749L2.724,67.712L2.342,67.674L2.16,67.655L1.988,67.637L1.823,67.618L1.667,67.599L1.518,67.58L1.377,67.56L1.243,67.541L1.115,67.521L0.994,67.5L0.878,67.477L0.764,67.453L0.65,67.425L0.539,67.394L0.466,67.369L0.394,67.343L0.312,67.309L0.217,67.263L0.159,67.23L0.047,67.157L0.035,67.149L-0.04,67.092L-0.111,67.029L-0.12,67.021L-0.214,66.922L-0.298,66.815L-0.304,66.807L-0.373,66.699L-0.431,66.585L-0.479,66.467L-0.482,66.459L-0.516,66.343L-0.541,66.225L-0.555,66.105L-0.558,65.985L-0.558,65.977L-0.551,65.857L-0.534,65.738L-0.444,65.272L-0.368,64.873L-0.281,64.425L-0.193,63.976L-0.111,63.571L-0.075,63.396L-0.042,63.244L-0.013,63.117L0.007,63.042L0.022,62.989L0.042,62.879L0.073,62.741L0.091,62.672L0.112,62.603L0.287,62.086L0.748,60.719L1.056,59.804L1.4,58.78L1.767,57.682L2.147,56.545L2.526,55.404L2.893,54.293L3.237,53.247L3.395,52.761L3.543,52.303L3.679,51.88L3.801,51.495L3.908,51.155L3.997,50.864L4.068,50.626L4.081,50.58L4.049,50.407L3.984,50.063L3.813,49.136L3.593,47.931L3.333,46.503L3.045,44.908L2.737,43.203L2.422,41.441L2.107,39.68L1.805,37.976L1.524,36.383L1.395,35.645L1.275,34.956L1.165,34.323L1.068,33.752L0.983,33.25L0.913,32.823L0.857,32.478L0.847,32.411L0.834,32.371L0.804,32.241L0.787,32.11L0.783,31.978L0.784,31.9L0.784,31.879L0.784,31.787L0.79,31.694L0.791,31.687L0.812,31.55L0.846,31.415L0.895,31.285L0.956,31.16L1.029,31.042L1.03,31.041L1.11,30.936L1.2,30.84L1.3,30.752L1.407,30.675L1.521,30.608L1.641,30.552L1.765,30.508L1.894,30.476L2.024,30.457L2.156,30.45L2.288,30.456L2.419,30.475L2.548,30.506L2.673,30.55L2.674,30.55L2.799,30.608L2.918,30.678L3.029,30.76L3.132,30.852L3.224,30.954L3.306,31.065L3.377,31.184L3.412,31.26L3.68,31.485L4.403,32.088L5.339,32.867L7.678,34.814L10.356,37.04L15.365,41.202L16.91,42.485L17.271,42.215L19.058,40.878L21.587,38.988L24.488,36.824L25.962,35.725L27.389,34.661L28.725,33.667L29.922,32.778L30.935,32.027L31.717,31.45L32.01,31.235L32.231,31.075L32.384,30.966L32.464,30.912L32.505,30.888L32.609,30.832L32.717,30.785L32.83,30.748L32.832,30.747L32.966,30.716L33.102,30.698L33.24,30.694L33.377,30.704L33.512,30.727ZM30.366,35.874L29.032,36.867L27.605,37.93L26.132,39.028L23.232,41.192L20.704,43.081L18.919,44.416L18.421,44.789L18.247,44.92L18.247,44.919L18.16,44.98L18.039,45.049L17.911,45.105L17.911,45.106L17.782,45.148L17.683,45.17L17.674,45.178L17.566,45.265L17.449,45.341L17.324,45.404L17.195,45.454L17.06,45.492L16.923,45.515L16.784,45.524L16.645,45.519L16.507,45.501L16.372,45.468L16.24,45.422L16.114,45.362L15.995,45.291L15.883,45.207L13.608,43.317L8.598,39.155L5.919,36.928L4.154,35.459L4.232,35.907L4.512,37.497L4.815,39.198L5.129,40.957L5.444,42.716L5.751,44.42L6.039,46.012L6.298,47.437L6.518,48.639L6.688,49.561L6.751,49.898L6.797,50.14L6.824,50.275L6.823,50.27L6.817,50.25L6.817,50.249L6.841,50.352L6.858,50.476L6.864,50.601L6.864,50.655L6.857,50.762L6.842,50.869L6.82,50.977L6.796,51.077L6.77,51.176L6.741,51.281L6.708,51.398L6.63,51.66L6.535,51.97L6.424,52.323L6.299,52.717L6.161,53.147L6.011,53.61L5.851,54.102L5.505,55.153L5.137,56.269L4.756,57.414L4.375,58.554L4.007,59.654L3.663,60.68L3.354,61.597L2.892,62.966L2.757,63.364L2.753,63.413L2.745,63.473L2.722,63.58L2.689,63.697L2.657,63.789L2.651,63.806L2.642,63.845L2.615,63.966L2.583,64.123L2.505,64.512L2.425,64.918L2.452,64.921L2.618,64.938L2.982,64.974L3.378,65.01L3.807,65.046L4.266,65.083L4.754,65.12L5.269,65.157L5.81,65.194L6.374,65.231L6.962,65.269L7.57,65.306L8.197,65.343L8.842,65.38L9.504,65.417L10.181,65.453L10.871,65.49L11.574,65.526L12.286,65.561L13.008,65.597L13.738,65.631L14.473,65.666L15.213,65.699L16.702,65.765L18.192,65.828L19.671,65.888L21.127,65.945L22.55,65.997L23.927,66.046L25.246,66.09L26.495,66.13L27.665,66.164L28.214,66.179L28.74,66.192L29.239,66.205L29.711,66.215L30.153,66.224L30.564,66.232L30.943,66.238L31.287,66.242L31.596,66.245L31.804,66.245L31.819,66.189L31.833,66.129L31.847,66.068L31.859,66.006L31.87,65.943L31.88,65.879L31.889,65.814L31.897,65.749L31.905,65.682L31.911,65.616L31.916,65.548L31.92,65.481L31.924,65.413L31.926,65.346L31.928,65.278L31.928,65.21L31.928,65.143L31.928,65.076L31.926,65.009L31.924,64.943L31.921,64.878L31.918,64.817L31.909,64.687L31.898,64.565L31.886,64.448L31.872,64.337L31.858,64.233L31.844,64.136L31.829,64.048L31.815,63.968L31.802,63.898L31.79,63.839L31.78,63.794L31.766,63.728L31.761,63.709L31.735,63.575L31.726,63.475L31.716,63.439L31.635,63.154L31.543,62.824L31.441,62.449L31.328,62.035L31.078,61.104L30.801,60.065L30.507,58.95L30.203,57.796L29.899,56.637L29.604,55.507L29.074,53.476L28.686,51.983L28.51,51.307L28.482,51.171L28.467,51.033L28.467,50.895L28.48,50.757L28.508,50.622L28.536,50.529L28.552,50.437L28.669,49.771L28.841,48.8L29.059,47.575L29.596,44.57L30.205,41.173L31.279,35.196L30.366,35.874ZM0.109,63.725L0.194,63.871L0.135,63.757L0.086,63.638L0.073,63.596L0.109,63.725ZM2.637,63.842L2.641,63.83L2.642,63.83L2.637,63.842ZM0.031,63.441L0.043,63.486L0.029,63.413L0.031,63.441ZM34.446,62.995L34.426,62.948L34.413,62.926L34.446,62.995Z"/>
        <path d="M12.69,51.197C12.688,51.203 12.686,51.21 12.684,51.216" style="fill:rgb(255,28,28);"/>
        <path d="M12.694,49.772L12.734,49.772L12.774,49.774L12.814,49.777L12.853,49.781L12.893,49.786L12.932,49.793L12.971,49.8L13.01,49.808L13.049,49.818L13.088,49.828L13.126,49.84L13.163,49.853L13.201,49.866L13.238,49.881L13.275,49.897L13.311,49.914L13.346,49.932L13.381,49.951L13.416,49.971L13.45,49.991L13.484,50.013L13.516,50.036L13.549,50.059L13.58,50.084L13.611,50.109L13.641,50.135L13.67,50.162L13.699,50.19L13.727,50.219L13.754,50.248L13.78,50.278L13.805,50.309L13.829,50.341L13.853,50.373L13.875,50.406L13.897,50.439L13.918,50.473L13.938,50.508L13.956,50.543L13.974,50.579L13.991,50.615L14.007,50.652L14.021,50.689L14.035,50.726L14.048,50.764L14.059,50.802L14.07,50.841L14.079,50.879L14.088,50.918L14.095,50.958L14.101,50.997L14.106,51.037L14.11,51.076L14.113,51.116L14.115,51.156L14.115,51.196L14.115,51.199L14.115,51.202L14.115,51.206L14.115,51.209L14.115,51.212L14.115,51.216L14.115,51.219L14.115,51.222L14.115,51.226L14.115,51.229L14.115,51.232L14.115,51.236L14.114,51.239L14.114,51.242L14.114,51.246L14.114,51.249L14.114,51.252L14.114,51.256L14.114,51.259L14.114,51.262L14.113,51.266L14.113,51.269L14.113,51.272L14.113,51.275L14.113,51.279L14.113,51.282L14.112,51.285L14.112,51.289L14.112,51.292L14.112,51.295L14.111,51.299L14.111,51.302L14.111,51.305L14.111,51.309L14.11,51.312L14.11,51.315L14.11,51.319L14.11,51.322L14.109,51.325L14.109,51.329L14.109,51.332L14.108,51.335L14.108,51.338L14.108,51.342L14.107,51.345L14.107,51.348L14.107,51.352L14.106,51.355L14.106,51.358L14.106,51.362L14.105,51.365L14.105,51.368L14.104,51.371L14.104,51.375L14.104,51.378L14.103,51.381L14.103,51.385L14.102,51.388L14.102,51.391L14.101,51.395L14.101,51.398L14.1,51.401L14.1,51.404L14.099,51.408L14.099,51.411L14.098,51.414L14.098,51.418L14.097,51.421L14.097,51.424L14.096,51.427L14.096,51.431L14.095,51.434L14.095,51.437L14.094,51.44L14.094,51.444L14.093,51.447L14.092,51.45L14.092,51.454L14.091,51.457L14.091,51.46L14.09,51.463L14.089,51.467L14.089,51.47L14.088,51.473L14.087,51.476L14.087,51.48L14.086,51.483L14.085,51.486L14.085,51.489L14.084,51.493L14.083,51.496L14.083,51.499L14.082,51.502L14.081,51.506L14.081,51.509L14.08,51.512L14.079,51.515L14.078,51.519L14.078,51.522L14.077,51.525L14.076,51.528L14.075,51.532L14.074,51.535L14.074,51.538L14.073,51.541L14.072,51.544L14.071,51.548L14.07,51.551L14.07,51.554L14.069,51.557L14.068,51.561L14.067,51.564L14.066,51.567L14.065,51.57L14.064,51.573L14.064,51.577L14.063,51.58L14.062,51.583L14.061,51.586L14.06,51.589L14.059,51.593L14.058,51.596L14.057,51.599L14.056,51.602L14.05,51.622L14.05,51.625L14.049,51.628L14.048,51.631L14.047,51.634L14.046,51.637L14.045,51.641L14.044,51.644L14.043,51.647L14.042,51.65L14.041,51.653L14.04,51.657L14.039,51.66L14.038,51.663L14.037,51.666L14.035,51.669L14.034,51.672L14.033,51.675L14.032,51.679L14.031,51.682L14.03,51.685L14.029,51.688L14.028,51.691L14.027,51.694L14.026,51.697L14.025,51.701L14.023,51.704L14.022,51.707L14.021,51.71L14.02,51.713L14.019,51.716L14.018,51.719L14.016,51.722L14.015,51.725L14.014,51.729L14.013,51.732L14.012,51.735L14.01,51.738L14.009,51.741L14.008,51.744L14.007,51.747L14.006,51.75L14.004,51.753L14.003,51.756L14.002,51.759L14,51.762L13.999,51.766L13.998,51.769L13.997,51.772L13.995,51.775L13.994,51.778L13.993,51.781L13.991,51.784L13.99,51.787L13.989,51.79L13.987,51.793L13.986,51.796L13.985,51.799L13.983,51.802L13.982,51.805L13.981,51.808L13.979,51.811L13.978,51.814L13.976,51.817L13.975,51.82L13.974,51.823L13.972,51.826L13.971,51.829L13.969,51.832L13.968,51.835L13.966,51.838L13.965,51.841L13.964,51.844L13.962,51.847L13.961,51.85L13.959,51.853L13.958,51.856L13.956,51.859L13.955,51.862L13.953,51.865L13.952,51.868L13.95,51.871L13.949,51.874L13.947,51.877L13.945,51.88L13.944,51.883L13.942,51.886L13.941,51.889L13.939,51.892L13.938,51.894L13.936,51.897L13.934,51.9L13.933,51.903L13.931,51.906L13.93,51.909L13.928,51.912L13.926,51.915L13.925,51.918L13.923,51.921L13.921,51.923L13.92,51.926L13.918,51.929L13.916,51.932L13.915,51.935L13.913,51.938L13.911,51.941L13.91,51.944L13.908,51.946L13.906,51.949L13.905,51.952L13.903,51.955L13.901,51.958L13.899,51.961L13.898,51.963L13.896,51.966L13.894,51.969L13.892,51.972L13.891,51.975L13.889,51.978L13.887,51.98L13.885,51.983L13.884,51.986L13.882,51.989L13.88,51.992L13.878,51.994L13.876,51.997L13.874,52L13.873,52.003L13.871,52.005L13.869,52.008L13.867,52.011L13.865,52.014L13.863,52.017L13.862,52.019L13.86,52.022L13.858,52.025L13.856,52.027L13.854,52.03L13.852,52.033L13.85,52.036L13.848,52.038L13.846,52.041L13.844,52.044L13.842,52.046L13.841,52.049L13.839,52.052L13.837,52.055L13.835,52.057L13.833,52.06L13.831,52.063L13.829,52.065L13.827,52.068L13.825,52.071L13.823,52.073L13.821,52.076L13.819,52.079L13.817,52.081L13.815,52.084L13.813,52.086L13.811,52.089L13.809,52.092L13.807,52.094L13.805,52.097L13.803,52.1L13.8,52.102L13.798,52.105L13.796,52.107L13.794,52.11L13.792,52.113L13.79,52.115L13.788,52.118L13.786,52.12L13.784,52.123L13.782,52.125L13.779,52.128L13.777,52.131L13.775,52.133L13.773,52.136L13.771,52.138L13.769,52.141L13.767,52.143L13.764,52.146L13.762,52.148L13.76,52.151L13.758,52.153L13.756,52.156L13.754,52.158L13.751,52.161L13.749,52.163L13.747,52.166L13.745,52.168L13.742,52.171L13.74,52.173L13.738,52.176L13.736,52.178L13.734,52.18L13.731,52.183L13.729,52.185L13.727,52.188L13.724,52.19L13.722,52.193L13.72,52.195L13.718,52.197L13.715,52.2L13.713,52.202L13.711,52.205L13.708,52.207L13.706,52.209L13.704,52.212L13.701,52.214L13.699,52.217L13.697,52.219L13.694,52.221L13.692,52.224L13.69,52.226L13.687,52.228L13.685,52.231L13.683,52.233L13.68,52.235L13.678,52.238L13.676,52.24L13.673,52.242L13.671,52.245L13.668,52.247L13.666,52.249L13.664,52.251L13.661,52.254L13.659,52.256L13.656,52.258L13.654,52.261L13.651,52.263L13.649,52.265L13.647,52.267L13.644,52.27L13.642,52.272L13.639,52.274L13.637,52.276L13.634,52.278L13.632,52.281L13.629,52.283L13.627,52.285L13.624,52.287L13.622,52.289L13.619,52.292L13.617,52.294L13.614,52.296L13.612,52.298L13.609,52.3L13.607,52.302L13.604,52.305L13.602,52.307L13.599,52.309L13.596,52.311L13.594,52.313L13.591,52.315L13.589,52.317L13.586,52.32L13.584,52.322L13.581,52.324L13.578,52.326L13.576,52.328L13.573,52.33L13.571,52.332L13.568,52.334L13.565,52.336L13.563,52.338L13.56,52.34L13.558,52.342L13.555,52.344L13.552,52.346L13.55,52.348L13.547,52.35L13.544,52.352L13.542,52.354L13.539,52.356L13.536,52.358L13.534,52.36L13.531,52.362L13.528,52.364L13.526,52.366L13.523,52.368L13.52,52.37L13.518,52.372L13.515,52.374L13.512,52.376L13.51,52.378L13.507,52.38L13.504,52.382L13.501,52.384L13.499,52.386L13.496,52.387L13.493,52.389L13.49,52.391L13.488,52.393L13.485,52.395L13.482,52.397L13.479,52.399L13.477,52.401L13.474,52.402L13.471,52.404L13.468,52.406L13.466,52.408L13.463,52.41L13.46,52.412L13.457,52.413L13.455,52.415L13.452,52.417L13.449,52.419L13.446,52.421L13.443,52.422L13.44,52.424L13.438,52.426L13.435,52.428L13.432,52.429L13.429,52.431L13.426,52.433L13.423,52.435L13.421,52.436L13.418,52.438L13.415,52.44L13.412,52.441L13.409,52.443L13.406,52.445L13.404,52.446L13.401,52.448L13.398,52.45L13.395,52.451L13.392,52.453L13.389,52.455L13.386,52.456L13.383,52.458L13.38,52.46L13.378,52.461L13.375,52.463L13.372,52.464L13.369,52.466L13.366,52.468L13.363,52.469L13.36,52.471L13.357,52.472L13.354,52.474L13.351,52.476L13.348,52.477L13.345,52.479L13.342,52.48L13.339,52.482L13.337,52.483L13.334,52.485L13.331,52.486L13.328,52.488L13.325,52.489L13.322,52.491L13.319,52.492L13.316,52.494L13.313,52.495L13.31,52.497L13.307,52.498L13.304,52.5L13.301,52.501L13.298,52.502L13.295,52.504L13.292,52.505L13.289,52.507L13.286,52.508L13.283,52.509L13.28,52.511L13.277,52.512L13.274,52.514L13.271,52.515L13.268,52.516L13.265,52.518L13.262,52.519L13.259,52.52L13.255,52.522L13.252,52.523L13.249,52.524L13.246,52.526L13.243,52.527L13.24,52.528L13.237,52.53L13.234,52.531L13.231,52.532L13.228,52.533L13.225,52.535L13.222,52.536L13.219,52.537L13.216,52.538L13.213,52.54L13.209,52.541L13.206,52.542L13.203,52.543L13.2,52.545L13.197,52.546L13.194,52.547L13.191,52.548L13.188,52.549L13.185,52.55L13.182,52.552L13.178,52.553L13.175,52.554L13.172,52.555L13.169,52.556L13.166,52.557L13.163,52.558L13.16,52.56L13.157,52.561L13.153,52.562L13.15,52.563L13.147,52.564L13.144,52.565L13.141,52.566L13.138,52.567L13.135,52.568L13.131,52.569L13.128,52.57L13.125,52.571L13.122,52.572L13.119,52.573L13.116,52.574L13.112,52.575L13.109,52.576L13.106,52.577L13.103,52.578L13.1,52.579L13.097,52.58L13.093,52.581L13.09,52.582L13.087,52.583L13.084,52.584L13.081,52.585L13.077,52.586L13.074,52.587L13.071,52.588L13.068,52.589L13.065,52.59L13.061,52.59L13.058,52.591L13.055,52.592L13.052,52.593L13.049,52.594L13.045,52.595L13.042,52.596L13.039,52.596L13.036,52.597L13.032,52.598L13.029,52.599L13.026,52.6L13.023,52.6L13.02,52.601L13.016,52.602L13.013,52.603L13.01,52.604L13.007,52.604L13.003,52.605L13,52.606L12.997,52.607L12.994,52.607L12.99,52.608L12.987,52.609L12.984,52.609L12.981,52.61L12.977,52.611L12.974,52.611L12.971,52.612L12.968,52.613L12.964,52.613L12.961,52.614L12.958,52.615L12.955,52.615L12.951,52.616L12.948,52.617L12.945,52.617L12.942,52.618L12.938,52.618L12.935,52.619L12.932,52.62L12.928,52.62L12.925,52.621L12.922,52.621L12.919,52.622L12.915,52.622L12.912,52.623L12.909,52.623L12.906,52.624L12.902,52.624L12.899,52.625L12.896,52.625L12.892,52.626L12.889,52.626L12.886,52.627L12.883,52.627L12.879,52.628L12.876,52.628L12.873,52.629L12.869,52.629L12.866,52.63L12.863,52.63L12.859,52.63L12.856,52.631L12.853,52.631L12.85,52.632L12.846,52.632L12.843,52.632L12.84,52.633L12.836,52.633L12.833,52.633L12.83,52.634L12.826,52.634L12.823,52.634L12.82,52.635L12.816,52.635L12.813,52.635L12.81,52.636L12.807,52.636L12.803,52.636L12.8,52.637L12.797,52.637L12.793,52.637L12.79,52.637L12.787,52.638L12.783,52.638L12.78,52.638L12.777,52.638L12.773,52.638L12.77,52.639L12.767,52.639L12.763,52.639L12.76,52.639L12.757,52.639L12.754,52.64L12.75,52.64L12.747,52.64L12.744,52.64L12.74,52.64L12.737,52.64L12.734,52.64L12.73,52.64L12.727,52.641L12.724,52.641L12.72,52.641L12.717,52.641L12.714,52.641L12.71,52.641L12.707,52.641L12.704,52.641L12.7,52.641L12.697,52.641L12.694,52.641L12.69,52.641L12.687,52.641L12.684,52.641L12.68,52.641L12.677,52.641L12.674,52.641L12.67,52.641L12.667,52.641L12.664,52.641L12.66,52.641L12.657,52.641L12.654,52.641L12.651,52.641L12.647,52.641L12.644,52.641L12.641,52.641L12.637,52.64L12.634,52.64L12.631,52.64L12.627,52.64L12.624,52.64L12.621,52.64L12.617,52.64L12.614,52.639L12.611,52.639L12.607,52.639L12.604,52.639L12.601,52.639L12.597,52.639L12.594,52.638L12.591,52.638L12.587,52.638L12.584,52.638L12.581,52.637L12.577,52.637L12.574,52.637L12.571,52.637L12.568,52.636L12.564,52.636L12.561,52.636L12.558,52.636L12.554,52.635L12.551,52.635L12.548,52.635L12.544,52.634L12.541,52.634L12.538,52.634L12.534,52.633L12.531,52.633L12.528,52.633L12.525,52.632L12.521,52.632L12.518,52.631L12.515,52.631L12.511,52.631L12.508,52.63L12.505,52.63L12.501,52.629L12.498,52.629L12.495,52.629L12.492,52.628L12.488,52.628L12.485,52.627L12.482,52.627L12.478,52.626L12.475,52.626L12.472,52.625L12.469,52.625L12.465,52.624L12.462,52.624L12.459,52.623L12.455,52.623L12.452,52.622L12.449,52.622L12.446,52.621L12.442,52.62L12.439,52.62L12.436,52.619L12.432,52.619L12.429,52.618L12.426,52.618L12.423,52.617L12.419,52.616L12.416,52.616L12.413,52.615L12.41,52.614L12.406,52.614L12.403,52.613L12.4,52.613L12.397,52.612L12.393,52.611L12.39,52.61L12.387,52.61L12.384,52.609L12.38,52.608L12.377,52.608L12.374,52.607L12.371,52.606L12.367,52.605L12.364,52.605L12.361,52.604L12.358,52.603L12.354,52.602L12.351,52.602L12.348,52.601L12.345,52.6L12.341,52.599L12.338,52.599L12.335,52.598L12.332,52.597L12.329,52.596L12.325,52.595L12.322,52.594L12.319,52.594L12.316,52.593L12.313,52.592L12.309,52.591L12.306,52.59L12.303,52.589L12.3,52.588L12.297,52.587L12.293,52.586L12.29,52.586L12.287,52.585L12.284,52.584L12.281,52.583L12.277,52.582L12.274,52.581L12.271,52.58L12.268,52.579L12.265,52.578L12.261,52.577L12.258,52.576L12.255,52.575L12.252,52.574L12.249,52.573L12.246,52.572L12.242,52.571L12.239,52.57L12.236,52.569L12.233,52.568L12.23,52.567L12.227,52.566L12.224,52.565L12.22,52.564L12.217,52.562L12.214,52.561L12.211,52.56L12.208,52.559L12.205,52.558L12.202,52.557L12.198,52.556L12.195,52.555L12.192,52.554L12.189,52.552L12.186,52.551L12.183,52.55L12.18,52.549L12.177,52.548L12.174,52.547L12.17,52.545L12.167,52.544L12.164,52.543L12.161,52.542L12.158,52.54L12.155,52.539L12.152,52.538L12.149,52.537L12.146,52.535L12.143,52.534L12.14,52.533L12.137,52.532L12.133,52.53L12.13,52.529L12.127,52.528L12.124,52.527L12.121,52.525L12.118,52.524L12.115,52.523L12.112,52.521L12.109,52.52L12.106,52.519L12.103,52.517L12.1,52.516L12.097,52.514L12.094,52.513L12.091,52.512L12.088,52.51L12.085,52.509L12.082,52.508L12.079,52.506L12.076,52.505L12.073,52.503L12.07,52.502L12.067,52.5L12.064,52.499L12.061,52.498L12.058,52.496L12.055,52.495L12.052,52.493L12.049,52.492L12.046,52.49L12.043,52.489L12.04,52.487L12.037,52.486L12.034,52.484L12.031,52.483L12.028,52.481L12.025,52.48L12.022,52.478L12.019,52.476L12.016,52.475L12.013,52.473L12.011,52.472L12.008,52.47L12.005,52.469L12.002,52.467L11.999,52.465L11.996,52.464L11.993,52.462L11.99,52.461L11.987,52.459L11.984,52.457L11.981,52.456L11.979,52.454L11.976,52.452L11.973,52.451L11.97,52.449L11.967,52.447L11.964,52.446L11.961,52.444L11.958,52.442L11.956,52.441L11.953,52.439L11.95,52.437L11.947,52.436L11.944,52.434L11.941,52.432L11.938,52.43L11.936,52.429L11.933,52.427L11.93,52.425L11.927,52.423L11.924,52.422L11.922,52.42L11.919,52.418L11.916,52.416L11.913,52.414L11.91,52.413L11.908,52.411L11.905,52.409L11.902,52.407L11.899,52.405L11.896,52.404L11.894,52.402L11.891,52.4L11.888,52.398L11.885,52.396L11.883,52.394L11.88,52.392L11.877,52.391L11.874,52.389L11.872,52.387L11.869,52.385L11.866,52.383L11.864,52.381L11.861,52.379L11.858,52.377L11.855,52.375L11.853,52.373L11.85,52.371L11.847,52.369L11.845,52.368L11.842,52.366L11.839,52.364L11.837,52.362L11.834,52.36L11.831,52.358L11.829,52.356L11.826,52.354L11.823,52.352L11.821,52.35L11.818,52.348L11.815,52.346L11.813,52.344L11.81,52.342L11.808,52.339L11.805,52.337L11.802,52.335L11.8,52.333L11.797,52.331L11.794,52.329L11.792,52.327L11.789,52.325L11.787,52.323L11.784,52.321L11.782,52.319L11.779,52.317L11.776,52.315L11.774,52.312L11.771,52.31L11.769,52.308L11.766,52.306L11.764,52.304L11.761,52.302L11.759,52.3L11.756,52.297L11.754,52.295L11.751,52.293L11.749,52.291L11.746,52.289L11.744,52.286L11.741,52.284L11.739,52.282L11.736,52.28L11.734,52.278L11.731,52.275L11.729,52.273L11.726,52.271L11.724,52.269L11.721,52.266L11.719,52.264L11.716,52.262L11.714,52.26L11.712,52.257L11.709,52.255L11.707,52.253L11.704,52.251L11.702,52.248L11.699,52.246L11.697,52.244L11.695,52.241L11.692,52.239L11.69,52.237L11.688,52.234L11.685,52.232L11.683,52.23L11.68,52.227L11.678,52.225L11.676,52.223L11.673,52.22L11.671,52.218L11.669,52.216L11.666,52.213L11.664,52.211L11.662,52.209L11.659,52.206L11.657,52.204L11.655,52.201L11.653,52.199L11.65,52.197L11.648,52.194L11.646,52.192L11.643,52.189L11.641,52.187L11.639,52.184L11.637,52.182L11.634,52.18L11.632,52.177L11.63,52.175L11.628,52.172L11.625,52.17L11.623,52.167L11.621,52.165L11.619,52.162L11.617,52.16L11.614,52.157L11.612,52.155L11.61,52.152L11.608,52.15L11.606,52.147L11.603,52.145L11.601,52.142L11.599,52.14L11.597,52.137L11.595,52.135L11.593,52.132L11.591,52.13L11.588,52.127L11.586,52.124L11.584,52.122L11.582,52.119L11.58,52.117L11.578,52.114L11.576,52.112L11.574,52.109L11.572,52.106L11.57,52.104L11.567,52.101L11.565,52.099L11.563,52.096L11.561,52.093L11.559,52.091L11.557,52.088L11.555,52.086L11.553,52.083L11.551,52.08L11.549,52.078L11.547,52.075L11.545,52.072L11.543,52.07L11.541,52.067L11.539,52.064L11.537,52.062L11.535,52.059L11.533,52.056L11.531,52.054L11.529,52.051L11.527,52.048L11.526,52.045L11.524,52.043L11.522,52.04L11.52,52.037L11.518,52.035L11.516,52.032L11.514,52.029L11.512,52.026L11.51,52.024L11.508,52.021L11.506,52.018L11.505,52.015L11.503,52.013L11.501,52.01L11.499,52.007L11.497,52.004L11.495,52.002L11.494,51.999L11.492,51.996L11.49,51.993L11.488,51.991L11.486,51.988L11.484,51.985L11.483,51.982L11.481,51.979L11.479,51.977L11.477,51.974L11.476,51.971L11.474,51.968L11.472,51.965L11.47,51.962L11.469,51.96L11.467,51.957L11.465,51.954L11.463,51.951L11.462,51.948L11.46,51.945L11.458,51.943L11.457,51.94L11.455,51.937L11.453,51.934L11.452,51.931L11.45,51.928L11.448,51.925L11.447,51.922L11.445,51.92L11.443,51.917L11.442,51.914L11.44,51.911L11.439,51.908L11.437,51.905L11.435,51.902L11.434,51.899L11.432,51.896L11.431,51.893L11.429,51.89L11.427,51.887L11.426,51.885L11.424,51.882L11.423,51.879L11.421,51.876L11.42,51.873L11.418,51.87L11.417,51.867L11.415,51.864L11.414,51.861L11.412,51.858L11.411,51.855L11.409,51.852L11.408,51.849L11.406,51.846L11.405,51.843L11.403,51.84L11.402,51.837L11.4,51.834L11.399,51.831L11.397,51.828L11.396,51.825L11.395,51.822L11.393,51.819L11.392,51.816L11.39,51.813L11.389,51.81L11.388,51.807L11.386,51.804L11.385,51.801L11.384,51.798L11.382,51.795L11.381,51.792L11.379,51.789L11.378,51.786L11.377,51.783L11.376,51.78L11.374,51.777L11.373,51.774L11.372,51.771L11.37,51.767L11.369,51.764L11.368,51.761L11.366,51.758L11.365,51.755L11.364,51.752L11.363,51.749L11.361,51.746L11.36,51.743L11.359,51.74L11.358,51.737L11.357,51.734L11.355,51.73L11.354,51.727L11.353,51.724L11.352,51.721L11.351,51.718L11.349,51.715L11.348,51.712L11.347,51.709L11.346,51.706L11.345,51.702L11.344,51.699L11.343,51.696L11.342,51.693L11.34,51.69L11.339,51.687L11.338,51.684L11.337,51.681L11.336,51.677L11.335,51.674L11.334,51.671L11.333,51.668L11.332,51.665L11.331,51.662L11.33,51.658L11.329,51.655L11.328,51.652L11.327,51.649L11.326,51.646L11.325,51.643L11.324,51.639L11.323,51.636L11.322,51.633L11.321,51.63L11.32,51.627L11.319,51.624L11.318,51.62L11.317,51.617L11.316,51.614L11.315,51.611L11.314,51.608L11.313,51.604L11.312,51.601L11.311,51.598L11.311,51.595L11.31,51.592L11.309,51.588L11.308,51.585L11.307,51.582L11.306,51.579L11.305,51.576L11.305,51.572L11.304,51.569L11.303,51.566L11.302,51.563L11.301,51.559L11.301,51.556L11.3,51.553L11.299,51.55L11.298,51.547L11.297,51.543L11.297,51.54L11.296,51.537L11.295,51.534L11.294,51.53L11.294,51.527L11.293,51.524L11.292,51.521L11.292,51.517L11.291,51.514L11.29,51.511L11.289,51.508L11.289,51.504L11.288,51.501L11.287,51.498L11.287,51.495L11.286,51.491L11.286,51.488L11.285,51.485L11.284,51.482L11.284,51.478L11.283,51.475L11.282,51.472L11.282,51.468L11.281,51.465L11.281,51.462L11.28,51.459L11.28,51.455L11.279,51.452L11.278,51.449L11.278,51.446L11.277,51.442L11.277,51.439L11.276,51.436L11.276,51.432L11.275,51.429L11.275,51.426L11.274,51.423L11.274,51.419L11.273,51.416L11.273,51.413L11.273,51.409L11.272,51.406L11.272,51.403L11.271,51.4L11.271,51.396L11.27,51.393L11.27,51.39L11.27,51.386L11.269,51.383L11.269,51.38L11.268,51.376L11.268,51.373L11.268,51.37L11.267,51.367L11.267,51.363L11.267,51.36L11.266,51.357L11.266,51.353L11.266,51.35L11.265,51.347L11.265,51.343L11.265,51.34L11.264,51.337L11.264,51.333L11.264,51.33L11.264,51.327L11.263,51.323L11.263,51.32L11.263,51.317L11.263,51.314L11.262,51.31L11.262,51.307L11.262,51.304L11.262,51.3L11.262,51.297L11.261,51.294L11.261,51.29L11.261,51.287L11.261,51.284L11.261,51.28L11.261,51.277L11.261,51.274L11.26,51.27L11.26,51.267L11.26,51.264L11.26,51.26L11.26,51.257L11.26,51.254L11.26,51.25L11.26,51.247L11.26,51.244L11.26,51.241L11.26,51.237L11.259,51.234L11.259,51.231L11.259,51.227L11.259,51.224L11.259,51.221L11.259,51.217L11.259,51.214L11.259,51.211L11.259,51.207L11.259,51.204L11.259,51.201L11.259,51.197L11.26,51.194L11.26,51.191L11.26,51.187L11.26,51.184L11.26,51.181L11.26,51.177L11.26,51.174L11.26,51.171L11.26,51.167L11.26,51.164L11.26,51.161L11.261,51.157L11.261,51.154L11.261,51.151L11.261,51.147L11.261,51.144L11.261,51.141L11.262,51.138L11.262,51.134L11.262,51.131L11.262,51.128L11.262,51.124L11.263,51.121L11.263,51.118L11.263,51.114L11.263,51.111L11.263,51.108L11.264,51.104L11.264,51.101L11.264,51.098L11.265,51.094L11.265,51.091L11.265,51.088L11.265,51.084L11.266,51.081L11.266,51.078L11.266,51.075L11.267,51.071L11.267,51.068L11.267,51.065L11.268,51.061L11.268,51.058L11.269,51.055L11.269,51.051L11.269,51.048L11.27,51.045L11.27,51.042L11.271,51.038L11.271,51.035L11.271,51.032L11.272,51.028L11.272,51.025L11.273,51.022L11.273,51.018L11.274,51.015L11.274,51.012L11.275,51.009L11.275,51.005L11.276,51.002L11.276,50.999L11.277,50.995L11.277,50.992L11.278,50.989L11.278,50.986L11.279,50.982L11.279,50.979L11.28,50.976L11.28,50.973L11.281,50.969L11.281,50.966L11.282,50.963L11.283,50.959L11.283,50.956L11.284,50.953L11.285,50.95L11.285,50.946L11.286,50.943L11.286,50.94L11.287,50.937L11.288,50.933L11.288,50.93L11.289,50.927L11.29,50.924L11.29,50.92L11.291,50.917L11.292,50.914L11.293,50.911L11.293,50.907L11.294,50.904L11.295,50.901L11.295,50.898L11.296,50.894L11.297,50.891L11.298,50.888L11.298,50.885L11.299,50.881L11.3,50.878L11.301,50.875L11.302,50.872L11.302,50.868L11.303,50.865L11.304,50.862L11.305,50.859L11.306,50.856L11.307,50.852L11.307,50.849L11.308,50.846L11.309,50.843L11.31,50.84L11.311,50.836L11.312,50.833L11.313,50.83L11.314,50.827L11.315,50.824L11.315,50.82L11.316,50.817L11.317,50.814L11.318,50.811L11.324,50.791L11.325,50.788L11.326,50.785L11.327,50.782L11.328,50.779L11.329,50.775L11.33,50.772L11.331,50.769L11.332,50.766L11.333,50.763L11.334,50.76L11.335,50.756L11.336,50.753L11.337,50.75L11.338,50.747L11.339,50.744L11.34,50.741L11.341,50.738L11.342,50.734L11.343,50.731L11.344,50.728L11.345,50.725L11.347,50.722L11.348,50.719L11.349,50.716L11.35,50.712L11.351,50.709L11.352,50.706L11.353,50.703L11.355,50.7L11.356,50.697L11.357,50.694L11.358,50.691L11.359,50.688L11.36,50.684L11.362,50.681L11.363,50.678L11.364,50.675L11.365,50.672L11.366,50.669L11.368,50.666L11.369,50.663L11.37,50.66L11.371,50.657L11.373,50.654L11.374,50.651L11.375,50.647L11.377,50.644L11.378,50.641L11.379,50.638L11.38,50.635L11.382,50.632L11.383,50.629L11.384,50.626L11.386,50.623L11.387,50.62L11.388,50.617L11.39,50.614L11.391,50.611L11.393,50.608L11.394,50.605L11.395,50.602L11.397,50.599L11.398,50.596L11.399,50.593L11.401,50.59L11.402,50.587L11.404,50.584L11.405,50.581L11.407,50.578L11.408,50.575L11.41,50.572L11.411,50.569L11.412,50.566L11.414,50.563L11.415,50.56L11.417,50.557L11.418,50.554L11.42,50.551L11.421,50.548L11.423,50.545L11.424,50.542L11.426,50.539L11.427,50.536L11.429,50.533L11.431,50.53L11.432,50.527L11.434,50.524L11.435,50.521L11.437,50.519L11.438,50.516L11.44,50.513L11.442,50.51L11.443,50.507L11.445,50.504L11.446,50.501L11.448,50.498L11.45,50.495L11.451,50.492L11.453,50.49L11.455,50.487L11.456,50.484L11.458,50.481L11.46,50.478L11.461,50.475L11.463,50.472L11.465,50.469L11.466,50.467L11.468,50.464L11.47,50.461L11.472,50.458L11.473,50.455L11.475,50.452L11.477,50.45L11.479,50.447L11.48,50.444L11.482,50.441L11.484,50.438L11.486,50.435L11.487,50.433L11.489,50.43L11.491,50.427L11.493,50.424L11.495,50.421L11.496,50.419L11.498,50.416L11.5,50.413L11.502,50.41L11.504,50.408L11.505,50.405L11.507,50.402L11.509,50.399L11.511,50.396L11.513,50.394L11.515,50.391L11.517,50.388L11.519,50.386L11.52,50.383L11.522,50.38L11.524,50.377L11.526,50.375L11.528,50.372L11.53,50.369L11.532,50.367L11.534,50.364L11.536,50.361L11.538,50.358L11.54,50.356L11.542,50.353L11.544,50.35L11.546,50.348L11.548,50.345L11.55,50.342L11.552,50.34L11.554,50.337L11.556,50.334L11.558,50.332L11.56,50.329L11.562,50.327L11.564,50.324L11.566,50.321L11.568,50.319L11.57,50.316L11.572,50.313L11.574,50.311L11.576,50.308L11.578,50.306L11.58,50.303L11.582,50.3L11.584,50.298L11.587,50.295L11.589,50.293L11.591,50.29L11.593,50.288L11.595,50.285L11.597,50.282L11.599,50.28L11.601,50.277L11.604,50.275L11.606,50.272L11.608,50.27L11.61,50.267L11.612,50.265L11.614,50.262L11.617,50.26L11.619,50.257L11.621,50.255L11.623,50.252L11.625,50.25L11.628,50.247L11.63,50.245L11.632,50.242L11.634,50.24L11.636,50.237L11.639,50.235L11.641,50.232L11.643,50.23L11.645,50.228L11.648,50.225L11.65,50.223L11.652,50.22L11.655,50.218L11.657,50.216L11.659,50.213L11.661,50.211L11.664,50.208L11.666,50.206L11.668,50.204L11.671,50.201L11.673,50.199L11.675,50.196L11.678,50.194L11.68,50.192L11.682,50.189L11.685,50.187L11.687,50.185L11.689,50.182L11.692,50.18L11.694,50.178L11.697,50.175L11.699,50.173L11.701,50.171L11.704,50.168L11.706,50.166L11.709,50.164L11.711,50.162L11.713,50.159L11.716,50.157L11.718,50.155L11.721,50.152L11.723,50.15L11.726,50.148L11.728,50.146L11.73,50.143L11.733,50.141L11.735,50.139L11.738,50.137L11.74,50.135L11.743,50.132L11.745,50.13L11.748,50.128L11.75,50.126L11.753,50.124L11.755,50.121L11.758,50.119L11.76,50.117L11.763,50.115L11.765,50.113L11.768,50.11L11.77,50.108L11.773,50.106L11.775,50.104L11.778,50.102L11.781,50.1L11.783,50.098L11.786,50.096L11.788,50.093L11.791,50.091L11.793,50.089L11.796,50.087L11.799,50.085L11.801,50.083L11.804,50.081L11.806,50.079L11.809,50.077L11.812,50.075L11.814,50.073L11.817,50.071L11.819,50.069L11.822,50.067L11.825,50.065L11.827,50.063L11.83,50.061L11.833,50.059L11.835,50.057L11.838,50.055L11.841,50.053L11.843,50.051L11.846,50.049L11.849,50.047L11.851,50.045L11.854,50.043L11.857,50.041L11.859,50.039L11.862,50.037L11.865,50.035L11.868,50.033L11.87,50.031L11.873,50.029L11.876,50.027L11.879,50.026L11.881,50.024L11.884,50.022L11.887,50.02L11.889,50.018L11.892,50.016L11.895,50.014L11.898,50.012L11.9,50.011L11.903,50.009L11.906,50.007L11.909,50.005L11.912,50.003L11.914,50.001L11.917,50L11.92,49.998L11.923,49.996L11.926,49.994L11.928,49.992L11.931,49.991L11.934,49.989L11.937,49.987L11.94,49.985L11.942,49.984L11.945,49.982L11.948,49.98L11.951,49.978L11.954,49.977L11.957,49.975L11.96,49.973L11.962,49.972L11.965,49.97L11.968,49.968L11.971,49.967L11.974,49.965L11.977,49.963L11.98,49.962L11.982,49.96L11.985,49.958L11.988,49.957L11.991,49.955L11.994,49.953L11.997,49.952L12,49.95L12.003,49.949L12.006,49.947L12.009,49.945L12.012,49.944L12.014,49.942L12.017,49.941L12.02,49.939L12.023,49.937L12.026,49.936L12.029,49.934L12.032,49.933L12.035,49.931L12.038,49.93L12.041,49.928L12.044,49.927L12.047,49.925L12.05,49.924L12.053,49.922L12.056,49.921L12.059,49.919L12.062,49.918L12.065,49.916L12.068,49.915L12.071,49.913L12.074,49.912L12.077,49.911L12.08,49.909L12.083,49.908L12.086,49.906L12.089,49.905L12.092,49.904L12.095,49.902L12.098,49.901L12.101,49.899L12.104,49.898L12.107,49.897L12.11,49.895L12.113,49.894L12.116,49.893L12.119,49.891L12.122,49.89L12.125,49.889L12.128,49.887L12.131,49.886L12.134,49.885L12.137,49.883L12.14,49.882L12.143,49.881L12.147,49.88L12.15,49.878L12.153,49.877L12.156,49.876L12.159,49.875L12.162,49.873L12.165,49.872L12.168,49.871L12.171,49.87L12.174,49.868L12.177,49.867L12.18,49.866L12.184,49.865L12.187,49.864L12.19,49.863L12.193,49.861L12.196,49.86L12.199,49.859L12.202,49.858L12.205,49.857L12.209,49.856L12.212,49.855L12.215,49.853L12.218,49.852L12.221,49.851L12.224,49.85L12.227,49.849L12.23,49.848L12.234,49.847L12.237,49.846L12.24,49.845L12.243,49.844L12.246,49.843L12.249,49.842L12.253,49.841L12.256,49.84L12.259,49.839L12.262,49.838L12.265,49.837L12.268,49.836L12.272,49.835L12.275,49.834L12.278,49.833L12.281,49.832L12.284,49.831L12.288,49.83L12.291,49.829L12.294,49.828L12.297,49.827L12.3,49.826L12.303,49.825L12.307,49.824L12.31,49.823L12.313,49.823L12.316,49.822L12.319,49.821L12.323,49.82L12.326,49.819L12.329,49.818L12.332,49.817L12.336,49.817L12.339,49.816L12.342,49.815L12.345,49.814L12.348,49.813L12.352,49.813L12.355,49.812L12.358,49.811L12.361,49.81L12.365,49.809L12.368,49.809L12.371,49.808L12.374,49.807L12.378,49.806L12.381,49.806L12.384,49.805L12.387,49.804L12.391,49.804L12.394,49.803L12.397,49.802L12.4,49.802L12.404,49.801L12.407,49.8L12.41,49.8L12.413,49.799L12.417,49.798L12.42,49.798L12.423,49.797L12.426,49.796L12.43,49.796L12.433,49.795L12.436,49.795L12.439,49.794L12.443,49.793L12.446,49.793L12.449,49.792L12.453,49.792L12.456,49.791L12.459,49.791L12.462,49.79L12.466,49.79L12.469,49.789L12.472,49.789L12.476,49.788L12.479,49.788L12.482,49.787L12.485,49.787L12.489,49.786L12.492,49.786L12.495,49.785L12.499,49.785L12.502,49.784L12.505,49.784L12.508,49.783L12.512,49.783L12.515,49.783L12.518,49.782L12.522,49.782L12.525,49.781L12.528,49.781L12.532,49.781L12.535,49.78L12.538,49.78L12.541,49.78L12.545,49.779L12.548,49.779L12.551,49.779L12.555,49.778L12.558,49.778L12.561,49.778L12.565,49.777L12.568,49.777L12.571,49.777L12.575,49.776L12.578,49.776L12.581,49.776L12.584,49.776L12.588,49.775L12.591,49.775L12.594,49.775L12.598,49.775L12.601,49.775L12.604,49.774L12.608,49.774L12.611,49.774L12.614,49.774L12.618,49.774L12.621,49.773L12.624,49.773L12.628,49.773L12.631,49.773L12.634,49.773L12.638,49.773L12.641,49.773L12.644,49.773L12.648,49.772L12.651,49.772L12.654,49.772L12.658,49.772L12.661,49.772L12.664,49.772L12.667,49.772L12.671,49.772L12.674,49.772L12.677,49.772L12.681,49.772L12.684,49.772L12.687,49.772L12.691,49.772L12.694,49.772Z" style="fill:rgb(21,21,21);"/>
        <path d="M20.532,49.298L20.565,49.299L20.598,49.3L20.631,49.302L20.664,49.305L20.697,49.308L20.73,49.313L20.763,49.318L20.795,49.324L20.828,49.33L20.86,49.338L20.892,49.346L20.924,49.355L20.956,49.364L20.987,49.375L21.019,49.386L21.05,49.398L21.08,49.41L21.111,49.423L21.141,49.437L21.171,49.452L21.2,49.467L21.229,49.483L21.258,49.5L21.286,49.517L21.314,49.535L21.341,49.554L21.368,49.573L21.395,49.593L21.421,49.613L21.446,49.634L21.471,49.656L21.496,49.678L21.52,49.701L21.543,49.724L21.566,49.748L21.589,49.773L21.611,49.798L21.632,49.823L21.653,49.849L21.673,49.876L21.692,49.902L21.711,49.93L21.729,49.957L21.746,49.986L21.766,50.018L21.782,50.047L21.797,50.076L21.812,50.106L21.826,50.136L21.839,50.166L21.852,50.196L21.864,50.227L21.875,50.258L21.886,50.29L21.892,50.311L21.902,50.344L21.911,50.376L21.919,50.409L21.927,50.441L21.933,50.473L21.939,50.506L21.944,50.539L21.948,50.572L21.952,50.605L21.955,50.638L21.957,50.671L21.958,50.704L21.958,50.737L21.958,50.743L21.958,50.749L21.958,50.754L21.958,50.76L21.958,50.765L21.958,50.771L21.958,50.776L21.958,50.782L21.958,50.787L21.957,50.793L21.957,50.798L21.957,50.804L21.957,50.809L21.956,50.815L21.956,50.82L21.956,50.826L21.956,50.832L21.955,50.837L21.955,50.843L21.954,50.848L21.954,50.854L21.953,50.859L21.953,50.865L21.953,50.87L21.952,50.876L21.951,50.881L21.951,50.887L21.95,50.892L21.95,50.898L21.949,50.903L21.948,50.909L21.948,50.914L21.947,50.92L21.946,50.925L21.946,50.931L21.945,50.936L21.944,50.942L21.943,50.947L21.943,50.953L21.942,50.958L21.941,50.963L21.94,50.969L21.939,50.974L21.938,50.98L21.937,50.985L21.936,50.991L21.935,50.996L21.934,51.002L21.933,51.007L21.932,51.012L21.931,51.018L21.93,51.021L21.93,51.026L21.929,51.032L21.928,51.037L21.927,51.043L21.926,51.048L21.924,51.053L21.923,51.059L21.922,51.064L21.921,51.07L21.92,51.075L21.919,51.081L21.918,51.086L21.916,51.091L21.915,51.097L21.914,51.102L21.913,51.108L21.911,51.113L21.91,51.118L21.909,51.124L21.907,51.129L21.906,51.134L21.905,51.14L21.903,51.145L21.902,51.15L21.9,51.156L21.899,51.161L21.897,51.166L21.896,51.172L21.894,51.177L21.893,51.182L21.891,51.188L21.889,51.193L21.888,51.198L21.886,51.204L21.885,51.209L21.883,51.214L21.881,51.219L21.879,51.225L21.878,51.23L21.876,51.235L21.874,51.24L21.872,51.246L21.87,51.251L21.869,51.256L21.867,51.261L21.865,51.266L21.863,51.272L21.861,51.277L21.859,51.282L21.857,51.287L21.855,51.292L21.853,51.297L21.851,51.303L21.849,51.308L21.847,51.313L21.845,51.318L21.843,51.323L21.841,51.328L21.838,51.333L21.836,51.338L21.834,51.343L21.832,51.349L21.83,51.354L21.827,51.359L21.825,51.364L21.823,51.369L21.821,51.374L21.818,51.379L21.816,51.384L21.814,51.389L21.811,51.394L21.809,51.399L21.806,51.404L21.804,51.409L21.801,51.414L21.799,51.419L21.796,51.424L21.794,51.429L21.791,51.433L21.789,51.438L21.786,51.443L21.784,51.448L21.781,51.453L21.778,51.458L21.776,51.463L21.773,51.468L21.77,51.472L21.768,51.477L21.765,51.482L21.762,51.487L21.759,51.492L21.757,51.496L21.754,51.501L21.751,51.506L21.748,51.511L21.745,51.515L21.742,51.52L21.74,51.525L21.737,51.53L21.734,51.534L21.731,51.539L21.728,51.544L21.725,51.548L21.722,51.553L21.719,51.558L21.716,51.562L21.713,51.567L21.71,51.571L21.706,51.576L21.703,51.581L21.7,51.585L21.697,51.59L21.694,51.594L21.691,51.599L21.688,51.603L21.684,51.608L21.681,51.612L21.678,51.617L21.675,51.621L21.671,51.626L21.668,51.63L21.665,51.635L21.661,51.639L21.658,51.643L21.655,51.648L21.651,51.652L21.648,51.656L21.644,51.661L21.641,51.665L21.637,51.669L21.634,51.674L21.631,51.678L21.627,51.682L21.623,51.687L21.62,51.691L21.616,51.695L21.613,51.699L21.609,51.704L21.606,51.708L21.602,51.712L21.598,51.716L21.595,51.72L21.591,51.724L21.587,51.729L21.584,51.733L21.58,51.737L21.576,51.741L21.572,51.745L21.569,51.749L21.565,51.753L21.561,51.757L21.557,51.761L21.553,51.765L21.55,51.769L21.546,51.773L21.542,51.777L21.538,51.781L21.534,51.785L21.53,51.789L21.526,51.793L21.522,51.796L21.518,51.8L21.514,51.804L21.51,51.808L21.506,51.812L21.502,51.816L21.498,51.819L21.494,51.823L21.49,51.827L21.486,51.831L21.482,51.834L21.478,51.838L21.474,51.842L21.47,51.845L21.465,51.849L21.461,51.853L21.457,51.856L21.453,51.86L21.449,51.863L21.444,51.867L21.44,51.871L21.436,51.874L21.432,51.878L21.427,51.881L21.423,51.885L21.419,51.888L21.414,51.892L21.41,51.895L21.406,51.898L21.401,51.902L21.397,51.905L21.393,51.909L21.388,51.912L21.384,51.915L21.379,51.919L21.375,51.922L21.371,51.925L21.366,51.928L21.362,51.932L21.357,51.935L21.353,51.938L21.348,51.941L21.344,51.945L21.339,51.948L21.334,51.951L21.33,51.954L21.325,51.957L21.321,51.96L21.316,51.963L21.312,51.966L21.307,51.969L21.302,51.972L21.298,51.975L21.293,51.978L21.288,51.981L21.284,51.984L21.279,51.987L21.274,51.99L21.269,51.993L21.265,51.996L21.26,51.999L21.255,52.002L21.25,52.004L21.246,52.007L21.241,52.01L21.236,52.013L21.231,52.016L21.227,52.018L21.222,52.021L21.217,52.024L21.212,52.026L21.207,52.029L21.202,52.032L21.197,52.034L21.193,52.037L21.188,52.039L21.183,52.042L21.178,52.045L21.173,52.047L21.168,52.05L21.163,52.052L21.158,52.054L21.153,52.057L21.148,52.059L21.143,52.062L21.138,52.064L21.133,52.066L21.128,52.069L21.123,52.071L21.118,52.073L21.113,52.076L21.108,52.078L21.103,52.08L21.098,52.082L21.093,52.085L21.088,52.087L21.083,52.089L21.078,52.091L21.072,52.093L21.067,52.095L21.062,52.098L21.057,52.1L21.052,52.102L21.047,52.104L21.042,52.106L21.036,52.108L21.031,52.11L21.026,52.112L21.021,52.114L21.016,52.115L21.01,52.117L21.005,52.119L21,52.121L20.995,52.123L20.99,52.125L20.984,52.126L20.979,52.128L20.974,52.13L20.969,52.132L20.963,52.133L20.958,52.135L20.953,52.137L20.948,52.138L20.942,52.14L20.937,52.142L20.932,52.143L20.926,52.145L20.921,52.146L20.916,52.148L20.91,52.149L20.905,52.151L20.9,52.152L20.894,52.154L20.889,52.155L20.884,52.157L20.878,52.158L20.873,52.159L20.868,52.161L20.862,52.162L20.857,52.163L20.851,52.165L20.846,52.166L20.841,52.167L20.835,52.168L20.83,52.169L20.824,52.171L20.819,52.172L20.814,52.173L20.808,52.174L20.803,52.175L20.797,52.176L20.792,52.177L20.786,52.178L20.781,52.179L20.776,52.18L20.77,52.181L20.765,52.182L20.759,52.183L20.754,52.184L20.748,52.185L20.743,52.186L20.737,52.186L20.732,52.187L20.726,52.188L20.721,52.189L20.715,52.189L20.71,52.19L20.704,52.191L20.699,52.192L20.693,52.192L20.688,52.193L20.682,52.193L20.677,52.194L20.671,52.195L20.666,52.195L20.66,52.196L20.655,52.196L20.649,52.197L20.644,52.197L20.638,52.198L20.633,52.198L20.627,52.198L20.622,52.199L20.616,52.199L20.611,52.2L20.605,52.2L20.6,52.2L20.594,52.2L20.589,52.201L20.583,52.201L20.578,52.201L20.572,52.201L20.567,52.201L20.561,52.202L20.555,52.202L20.55,52.202L20.544,52.202L20.539,52.202L20.533,52.202L20.528,52.202L20.522,52.202L20.517,52.202L20.511,52.202L20.506,52.202L20.5,52.202L20.495,52.202L20.489,52.202L20.484,52.201L20.478,52.201L20.472,52.201L20.467,52.201L20.461,52.201L20.456,52.2L20.45,52.2L20.445,52.2L20.439,52.199L20.434,52.199L20.428,52.199L20.423,52.198L20.417,52.198L20.412,52.197L20.406,52.197L20.401,52.196L20.395,52.196L20.39,52.195L20.384,52.195L20.379,52.194L20.373,52.194L20.368,52.193L20.362,52.193L20.357,52.192L20.351,52.191L20.346,52.191L20.34,52.19L20.335,52.189L20.329,52.188L20.324,52.188L20.318,52.187L20.313,52.186L20.307,52.185L20.302,52.184L20.296,52.183L20.291,52.182L20.285,52.182L20.28,52.181L20.275,52.18L20.269,52.179L20.264,52.178L20.258,52.177L20.253,52.176L20.247,52.174L20.242,52.173L20.237,52.172L20.231,52.171L20.226,52.17L20.22,52.169L20.215,52.168L20.21,52.166L20.204,52.165L20.199,52.164L20.193,52.163L20.188,52.161L20.183,52.16L20.177,52.159L20.172,52.157L20.167,52.156L20.161,52.154L20.156,52.153L20.15,52.152L20.145,52.15L20.14,52.149L20.135,52.147L20.129,52.146L20.124,52.144L20.119,52.142L20.113,52.141L20.108,52.139L20.103,52.138L20.097,52.136L20.092,52.134L20.087,52.133L20.082,52.131L20.076,52.129L20.071,52.127L20.066,52.126L20.061,52.124L20.055,52.122L20.05,52.12L20.045,52.118L20.04,52.116L20.035,52.114L20.029,52.113L20.024,52.111L20.019,52.109L20.014,52.107L20.009,52.105L20.004,52.103L19.998,52.101L19.993,52.099L19.988,52.096L19.983,52.094L19.978,52.092L19.973,52.09L19.968,52.088L19.963,52.086L19.958,52.084L19.952,52.081L19.947,52.079L19.942,52.077L19.937,52.075L19.932,52.072L19.927,52.07L19.922,52.068L19.917,52.065L19.912,52.063L19.907,52.06L19.902,52.058L19.897,52.056L19.892,52.053L19.887,52.051L19.882,52.048L19.878,52.046L19.873,52.043L19.868,52.041L19.863,52.038L19.858,52.035L19.853,52.033L19.848,52.03L19.843,52.028L19.838,52.025L19.834,52.022L19.829,52.02L19.824,52.017L19.819,52.014L19.814,52.011L19.81,52.009L19.805,52.006L19.8,52.003L19.795,52L19.791,51.997L19.786,51.994L19.781,51.991L19.776,51.989L19.772,51.986L19.767,51.983L19.762,51.98L19.758,51.977L19.753,51.974L19.748,51.971L19.744,51.968L19.739,51.965L19.734,51.962L19.73,51.959L19.725,51.955L19.721,51.952L19.716,51.949L19.712,51.946L19.707,51.943L19.703,51.94L19.698,51.936L19.694,51.933L19.689,51.93L19.685,51.927L19.68,51.923L19.676,51.92L19.671,51.917L19.667,51.914L19.662,51.91L19.658,51.907L19.654,51.903L19.649,51.9L19.645,51.897L19.641,51.893L19.636,51.89L19.632,51.886L19.628,51.883L19.623,51.879L19.619,51.876L19.615,51.872L19.611,51.869L19.606,51.865L19.602,51.862L19.598,51.858L19.594,51.854L19.59,51.851L19.585,51.847L19.581,51.843L19.577,51.84L19.573,51.836L19.569,51.832L19.565,51.829L19.561,51.825L19.557,51.821L19.553,51.817L19.549,51.814L19.545,51.81L19.541,51.806L19.537,51.802L19.533,51.798L19.529,51.794L19.525,51.79L19.521,51.787L19.517,51.783L19.513,51.779L19.509,51.775L19.505,51.771L19.501,51.767L19.498,51.763L19.494,51.759L19.49,51.755L19.486,51.751L19.482,51.747L19.479,51.743L19.475,51.739L19.471,51.735L19.467,51.73L19.464,51.726L19.46,51.722L19.456,51.718L19.453,51.714L19.449,51.71L19.445,51.705L19.442,51.701L19.438,51.697L19.435,51.693L19.431,51.689L19.428,51.684L19.424,51.68L19.421,51.676L19.417,51.671L19.414,51.667L19.41,51.663L19.407,51.658L19.403,51.654L19.4,51.65L19.397,51.645L19.393,51.641L19.39,51.637L19.387,51.632L19.383,51.628L19.38,51.623L19.377,51.619L19.373,51.614L19.37,51.61L19.367,51.605L19.364,51.601L19.361,51.596L19.357,51.592L19.354,51.587L19.351,51.583L19.348,51.578L19.345,51.574L19.342,51.569L19.339,51.564L19.336,51.56L19.333,51.555L19.33,51.55L19.327,51.546L19.324,51.541L19.321,51.536L19.318,51.532L19.315,51.527L19.312,51.522L19.309,51.518L19.306,51.513L19.303,51.508L19.301,51.503L19.298,51.499L19.295,51.494L19.292,51.489L19.289,51.484L19.287,51.479L19.284,51.475L19.281,51.47L19.279,51.465L19.276,51.46L19.273,51.455L19.271,51.45L19.268,51.445L19.265,51.441L19.263,51.436L19.26,51.431L19.258,51.426L19.255,51.421L19.253,51.416L19.25,51.411L19.248,51.406L19.245,51.401L19.243,51.396L19.241,51.391L19.238,51.386L19.236,51.381L19.234,51.376L19.231,51.371L19.229,51.366L19.227,51.361L19.224,51.356L19.222,51.351L19.22,51.346L19.218,51.341L19.216,51.336L19.213,51.331L19.211,51.325L19.209,51.32L19.207,51.315L19.205,51.31L19.203,51.305L19.201,51.3L19.199,51.295L19.197,51.29L19.195,51.284L19.193,51.279L19.191,51.274L19.189,51.269L19.187,51.264L19.185,51.258L19.183,51.253L19.182,51.248L19.18,51.243L19.178,51.238L19.176,51.232L19.174,51.227L19.173,51.222L19.171,51.216L19.169,51.211L19.168,51.206L19.166,51.201L19.164,51.195L19.163,51.19L19.161,51.185L19.16,51.179L19.158,51.174L19.156,51.169L19.155,51.164L19.153,51.158L19.152,51.153L19.151,51.148L19.149,51.142L19.148,51.137L19.146,51.131L19.145,51.126L19.144,51.121L19.142,51.115L19.141,51.11L19.14,51.105L19.138,51.099L19.137,51.094L19.136,51.088L19.135,51.083L19.134,51.078L19.132,51.072L19.131,51.067L19.13,51.061L19.129,51.056L19.128,51.051L19.127,51.045L19.126,51.04L19.125,51.034L19.124,51.029L19.123,51.023L19.122,51.018L19.121,51.012L19.12,51.007L19.119,51.001L19.118,50.996L19.118,50.991L19.117,50.985L19.116,50.98L19.115,50.974L19.114,50.969L19.114,50.963L19.113,50.958L19.112,50.952L19.112,50.947L19.111,50.941L19.11,50.936L19.11,50.93L19.109,50.925L19.109,50.919L19.108,50.914L19.108,50.908L19.107,50.903L19.107,50.897L19.106,50.892L19.106,50.886L19.105,50.881L19.105,50.875L19.105,50.87L19.104,50.864L19.104,50.859L19.104,50.853L19.103,50.847L19.103,50.842L19.103,50.836L19.103,50.831L19.102,50.825L19.102,50.82L19.101,50.793L19.101,50.765L19.101,50.76L19.101,50.754L19.1,50.749L19.1,50.743L19.1,50.738L19.1,50.732L19.1,50.727L19.1,50.722L19.1,50.716L19.101,50.711L19.101,50.705L19.101,50.7L19.101,50.694L19.101,50.689L19.101,50.683L19.101,50.678L19.102,50.672L19.102,50.667L19.102,50.661L19.102,50.656L19.103,50.65L19.103,50.645L19.103,50.639L19.104,50.632L19.104,50.627L19.105,50.621L19.105,50.616L19.106,50.61L19.106,50.605L19.106,50.599L19.107,50.594L19.108,50.588L19.108,50.583L19.109,50.577L19.109,50.572L19.11,50.566L19.11,50.561L19.111,50.555L19.112,50.55L19.112,50.544L19.113,50.539L19.114,50.533L19.115,50.528L19.115,50.522L19.116,50.517L19.117,50.511L19.118,50.506L19.119,50.5L19.12,50.495L19.121,50.489L19.121,50.484L19.122,50.479L19.123,50.473L19.124,50.468L19.125,50.462L19.126,50.457L19.127,50.451L19.129,50.446L19.13,50.441L19.131,50.435L19.132,50.43L19.133,50.424L19.134,50.419L19.135,50.414L19.137,50.408L19.138,50.403L19.139,50.397L19.14,50.392L19.142,50.387L19.143,50.381L19.144,50.376L19.146,50.371L19.147,50.365L19.149,50.36L19.15,50.355L19.151,50.349L19.153,50.344L19.154,50.339L19.156,50.333L19.156,50.331L19.158,50.326L19.16,50.321L19.161,50.315L19.163,50.31L19.164,50.305L19.166,50.3L19.168,50.294L19.169,50.289L19.171,50.284L19.173,50.279L19.174,50.273L19.176,50.268L19.178,50.263L19.18,50.258L19.182,50.252L19.183,50.247L19.185,50.242L19.187,50.237L19.189,50.232L19.191,50.226L19.193,50.221L19.195,50.216L19.197,50.211L19.199,50.206L19.201,50.201L19.203,50.195L19.205,50.19L19.207,50.185L19.209,50.18L19.211,50.175L19.213,50.17L19.216,50.165L19.218,50.16L19.22,50.155L19.222,50.15L19.224,50.145L19.227,50.14L19.229,50.134L19.231,50.129L19.234,50.124L19.236,50.119L19.238,50.114L19.241,50.109L19.243,50.104L19.245,50.099L19.248,50.095L19.25,50.09L19.253,50.085L19.255,50.08L19.258,50.075L19.26,50.07L19.263,50.065L19.265,50.06L19.268,50.055L19.271,50.05L19.273,50.045L19.276,50.041L19.278,50.036L19.281,50.031L19.284,50.026L19.287,50.021L19.289,50.016L19.292,50.012L19.295,50.007L19.298,50.002L19.3,49.997L19.303,49.993L19.306,49.988L19.309,49.983L19.312,49.978L19.315,49.974L19.318,49.969L19.321,49.964L19.324,49.96L19.327,49.955L19.33,49.95L19.333,49.946L19.336,49.941L19.339,49.936L19.342,49.932L19.345,49.927L19.348,49.923L19.351,49.918L19.354,49.914L19.357,49.909L19.36,49.905L19.364,49.9L19.367,49.895L19.37,49.891L19.373,49.887L19.377,49.882L19.38,49.878L19.383,49.873L19.386,49.869L19.39,49.864L19.393,49.86L19.396,49.856L19.4,49.851L19.403,49.847L19.407,49.842L19.41,49.838L19.413,49.834L19.417,49.829L19.42,49.825L19.424,49.821L19.427,49.817L19.431,49.812L19.434,49.808L19.438,49.804L19.442,49.8L19.445,49.795L19.449,49.791L19.452,49.787L19.456,49.783L19.46,49.779L19.463,49.775L19.467,49.771L19.471,49.766L19.475,49.762L19.478,49.758L19.482,49.754L19.486,49.75L19.49,49.746L19.493,49.742L19.497,49.738L19.501,49.734L19.505,49.73L19.509,49.726L19.513,49.722L19.516,49.718L19.52,49.715L19.524,49.711L19.528,49.707L19.532,49.703L19.536,49.699L19.54,49.695L19.544,49.691L19.548,49.688L19.552,49.684L19.556,49.68L19.56,49.676L19.564,49.673L19.568,49.669L19.573,49.665L19.577,49.661L19.581,49.658L19.585,49.654L19.589,49.65L19.593,49.647L19.597,49.643L19.602,49.64L19.606,49.636L19.61,49.632L19.614,49.629L19.619,49.625L19.623,49.622L19.627,49.618L19.631,49.615L19.636,49.611L19.64,49.608L19.644,49.605L19.649,49.601L19.653,49.598L19.657,49.594L19.662,49.591L19.666,49.588L19.671,49.584L19.675,49.581L19.679,49.578L19.684,49.574L19.688,49.571L19.693,49.568L19.697,49.565L19.702,49.562L19.706,49.558L19.711,49.555L19.715,49.552L19.72,49.549L19.725,49.546L19.729,49.543L19.734,49.54L19.738,49.537L19.743,49.533L19.748,49.53L19.752,49.527L19.757,49.524L19.761,49.521L19.766,49.518L19.771,49.516L19.776,49.513L19.78,49.51L19.785,49.507L19.79,49.504L19.794,49.501L19.799,49.498L19.804,49.495L19.809,49.493L19.813,49.49L19.818,49.487L19.823,49.484L19.824,49.484L19.829,49.481L19.833,49.479L19.838,49.476L19.843,49.473L19.848,49.471L19.853,49.468L19.858,49.465L19.863,49.463L19.867,49.46L19.872,49.458L19.877,49.455L19.882,49.453L19.887,49.45L19.892,49.448L19.897,49.445L19.902,49.443L19.907,49.44L19.912,49.438L19.917,49.436L19.922,49.433L19.927,49.431L19.932,49.429L19.937,49.426L19.942,49.424L19.947,49.422L19.952,49.419L19.957,49.417L19.962,49.415L19.967,49.413L19.972,49.411L19.977,49.409L19.983,49.406L19.988,49.404L19.993,49.402L19.998,49.4L20.003,49.398L20.008,49.396L20.013,49.394L20.018,49.392L20.024,49.39L20.029,49.388L20.034,49.386L20.039,49.384L20.044,49.383L20.05,49.381L20.055,49.379L20.06,49.377L20.065,49.375L20.07,49.373L20.076,49.372L20.081,49.37L20.086,49.368L20.091,49.367L20.097,49.365L20.102,49.363L20.107,49.362L20.113,49.36L20.118,49.358L20.123,49.357L20.128,49.355L20.134,49.354L20.139,49.352L20.144,49.351L20.15,49.349L20.155,49.348L20.16,49.346L20.166,49.345L20.171,49.344L20.176,49.342L20.182,49.341L20.187,49.339L20.192,49.338L20.198,49.337L20.203,49.336L20.209,49.334L20.214,49.333L20.219,49.332L20.225,49.331L20.23,49.33L20.236,49.328L20.241,49.327L20.246,49.326L20.252,49.325L20.257,49.324L20.263,49.323L20.268,49.322L20.274,49.321L20.279,49.32L20.284,49.319L20.29,49.318L20.295,49.317L20.301,49.316L20.306,49.316L20.312,49.315L20.317,49.314L20.323,49.313L20.328,49.312L20.334,49.312L20.339,49.311L20.344,49.31L20.35,49.309L20.355,49.309L20.361,49.308L20.366,49.307L20.372,49.307L20.377,49.306L20.383,49.306L20.388,49.305L20.394,49.305L20.399,49.304L20.405,49.304L20.41,49.303L20.416,49.303L20.421,49.302L20.427,49.302L20.432,49.301L20.438,49.301L20.443,49.301L20.449,49.3L20.454,49.3L20.46,49.3L20.466,49.3L20.471,49.299L20.477,49.299L20.482,49.299L20.488,49.299L20.493,49.299L20.499,49.299L20.504,49.298L20.51,49.298L20.515,49.298L20.521,49.298L20.526,49.298L20.532,49.298ZM19.214,51.298L19.255,51.369L19.254,51.368L19.252,51.363L19.249,51.358L19.247,51.353L19.245,51.348L19.242,51.343L19.24,51.338L19.238,51.333L19.235,51.328L19.233,51.323L19.231,51.318L19.229,51.313L19.226,51.308L19.224,51.303L19.222,51.297L19.22,51.292L19.218,51.287L19.216,51.282L19.213,51.277L19.211,51.272L19.209,51.267L19.207,51.262L19.205,51.256L19.203,51.251L19.201,51.246L19.199,51.241L19.197,51.236L19.196,51.231L19.194,51.225L19.192,51.22L19.19,51.215L19.188,51.21L19.186,51.204L19.184,51.199L19.183,51.194L19.181,51.189L19.179,51.183L19.177,51.178L19.176,51.173L19.174,51.168L19.172,51.162L19.171,51.157L19.214,51.298Z" style="fill:rgb(21,21,21);"/>
    </g>
</svg>
