<?xml version="1.0" encoding="UTF-8" standalone="no"?>
<!DOCTYPE svg PUBLIC "-//W3C//DTD SVG 1.1//EN" "http://www.w3.org/Graphics/SVG/1.1/DTD/svg11.dtd">
<svg width="100%" height="100%" viewBox="0 0 64 64" version="1.1" xmlns="http://www.w3.org/2000/svg" xmlns:xlink="http://www.w3.org/1999/xlink" xml:space="preserve" xmlns:serif="http://www.serif.com/" style="fill-rule:evenodd;clip-rule:evenodd;stroke-linejoin:round;stroke-miterlimit:2;">
    <g id="Layer2">
    </g>
    <g id="Layer1" transform="matrix(0.0334274,0,0,0.0445699,-3.25802,-7.77194)">
        <g transform="matrix(29.9155,0,0,22.4367,-26.2039,116.791)">
            <text x="10.342px" y="62.597px" style="font-family:'Helvetica';font-size:12.833px;fill:#fff;">R</text>
            <text x="19.61px" y="62.597px" style="font-family:'Helvetica';font-size:9.356px;fill:#fff;">EDESIGN</text>
        </g>
        <g transform="matrix(26.4962,0,0,23.9942,199.594,117.619)">
            <path d="M54.061,6.601L54.16,6.623L54.253,6.658L54.339,6.705L54.413,6.763L54.476,6.831L54.523,6.906L54.556,6.987L54.571,7.071L54.57,7.156L54.552,7.239L54.518,7.319L54.468,7.393L54.404,7.46L54.328,7.517L54.324,7.519L54.248,7.576L54.101,7.69L53.893,7.853L53.628,8.062L53.31,8.314L52.519,8.943L51.538,9.727L50.382,10.652L49.066,11.706L47.607,12.876L44.323,15.514L40.657,18.463L36.735,21.619L32.683,24.882L28.629,28.149L24.7,31.317L21.021,34.284L17.72,36.948L14.924,39.206L12.759,40.957L11.953,41.609L11.353,42.097L10.975,42.405L10.878,42.485L10.858,42.502L10.874,42.486L10.802,42.547L10.719,42.597L10.627,42.635L10.529,42.66L10.428,42.672L10.325,42.669L10.225,42.653L10.129,42.623L10.04,42.58L9.961,42.526L9.894,42.462L9.841,42.389L9.802,42.31L9.78,42.227L9.775,42.142L9.786,42.058L9.814,41.976L9.859,41.9L9.917,41.83L9.934,41.814L9.995,41.762L10.101,41.674L10.483,41.363L11.085,40.874L11.891,40.221L14.057,38.47L16.854,36.211L20.155,33.547L23.833,30.58L27.763,27.412L31.817,24.145L35.869,20.882L39.791,17.725L43.458,14.776L46.743,12.138L48.202,10.967L49.518,9.912L50.676,8.986L51.658,8.202L52.451,7.571L52.771,7.318L53.038,7.107L53.25,6.941L53.407,6.819L53.512,6.74L53.566,6.703L53.593,6.687L53.675,6.647L53.762,6.618L53.854,6.6L53.856,6.599L53.959,6.593L54.061,6.601ZM54.303,7.53L54.307,7.529L54.32,7.521L54.303,7.53Z" style="fill:#fff;"/>
        </g>
        <g transform="matrix(26.4962,0,0,23.9942,147.477,82.5825)">
            <path d="M59.995,12.329L60.093,12.354L60.185,12.392L60.268,12.442L60.34,12.502L60.34,12.503L60.397,12.569L60.44,12.643L60.469,12.721L60.483,12.803L60.48,12.884L60.462,12.965L60.429,13.042L60.428,13.044L60.381,13.116L60.376,13.122L60.343,13.16L60.315,13.189L60.269,13.234L60.213,13.286L60.065,13.42L59.864,13.601L59.61,13.827L59.304,14.096L58.95,14.408L58.547,14.761L57.605,15.582L56.494,16.547L55.229,17.643L53.825,18.856L52.297,20.173L50.66,21.58L48.93,23.065L47.121,24.614L45.249,26.213L44.294,27.027L43.329,27.849L42.355,28.677L41.375,29.51L40.391,30.345L39.404,31.181L38.416,32.016L37.429,32.849L36.446,33.678L35.467,34.501L34.495,35.317L33.532,36.124L32.58,36.92L31.64,37.704L30.715,38.474L29.806,39.228L28.915,39.965L28.044,40.683L27.195,41.38L26.37,42.055L25.57,42.706L24.799,43.332L24.056,43.93L23.697,44.218L23.345,44.499L23.002,44.772L22.667,45.038L22.341,45.295L22.024,45.544L21.716,45.785L21.418,46.017L21.129,46.24L20.85,46.454L20.581,46.659L20.323,46.855L20.075,47.041L19.837,47.217L19.611,47.383L19.395,47.539L19.191,47.685L18.997,47.821L18.815,47.946L18.645,48.06L18.486,48.163L18.41,48.212L18.337,48.257L18.266,48.3L18.198,48.34L18.132,48.378L18.068,48.413L18.005,48.446L17.944,48.477L17.882,48.506L17.82,48.533L17.755,48.558L17.685,48.581L17.634,48.595L17.576,48.608L17.549,48.613L17.49,48.621L17.454,48.624L17.418,48.626L17.359,48.625L17.349,48.625L17.28,48.618L17.27,48.617L17.19,48.601L17.182,48.599L17.095,48.57L17.087,48.567L17.042,48.547L16.998,48.523L16.992,48.52L16.949,48.492L16.909,48.461L16.904,48.456L16.838,48.391L16.786,48.318L16.75,48.238L16.73,48.155L16.727,48.07L16.74,47.986L16.771,47.905L16.817,47.829L16.877,47.76L16.95,47.701L17.034,47.652L17.127,47.615L17.225,47.592L17.327,47.582L17.33,47.582L17.35,47.572L17.39,47.551L17.435,47.526L17.485,47.498L17.539,47.466L17.598,47.43L17.66,47.392L17.725,47.35L17.87,47.256L18.028,47.15L18.2,47.032L18.384,46.903L18.581,46.763L18.79,46.611L19.011,46.449L19.244,46.276L19.487,46.094L19.742,45.901L20.007,45.699L20.283,45.487L20.569,45.266L20.865,45.036L21.17,44.797L21.485,44.55L21.809,44.294L22.142,44.03L22.484,43.758L22.833,43.478L23.191,43.191L23.931,42.595L24.701,41.972L25.498,41.323L26.321,40.649L27.169,39.953L28.038,39.237L28.927,38.501L29.835,37.748L30.76,36.979L31.698,36.196L32.65,35.4L33.612,34.594L34.582,33.779L35.56,32.957L36.543,32.128L37.529,31.296L38.516,30.461L39.502,29.626L40.486,28.791L41.466,27.959L42.439,27.132L43.403,26.31L44.358,25.496L46.229,23.898L48.037,22.35L49.766,20.866L51.402,19.46L52.929,18.144L54.332,16.932L55.596,15.837L56.705,14.873L57.645,14.053L58.046,13.702L58.4,13.391L58.703,13.124L58.954,12.901L59.15,12.726L59.288,12.599L59.332,12.558L59.354,12.537L59.36,12.529L59.427,12.465L59.506,12.41L59.594,12.367L59.69,12.337L59.791,12.32L59.893,12.318L59.995,12.329ZM17.79,47.736L17.758,47.709L17.724,47.689L17.79,47.736ZM17.697,47.673L17.677,47.661L17.661,47.654L17.697,47.673ZM59.353,12.538L59.315,12.586L59.296,12.621L59.297,12.623L59.307,12.601L59.354,12.538L59.353,12.538Z" style="fill:#fff;"/>
        </g>
        <g transform="matrix(26.4962,0,0,18.5725,199.594,155.894)">
            <path d="M53.885,6.395L53.912,6.396L53.94,6.398L53.967,6.401L53.994,6.406L54.021,6.412L54.047,6.419L54.073,6.428L54.078,6.429L54.104,6.439L54.13,6.45L54.154,6.462L54.179,6.475L54.194,6.483L54.219,6.498L54.243,6.515L54.277,6.539L54.317,6.57L54.342,6.59L54.366,6.612L54.389,6.635L54.411,6.659L54.431,6.685L54.451,6.711L54.469,6.739L54.486,6.767L54.501,6.797L54.515,6.827L54.525,6.851L54.573,6.905L54.678,7.021L54.801,7.155L54.939,7.304L55.253,7.639L55.606,8.013L55.985,8.412L56.766,9.231L57.488,9.99L57.796,10.314L58.049,10.585L58.154,10.697L58.24,10.792L58.311,10.872L58.358,10.927L58.378,10.953L58.397,10.979L58.415,11.007L58.432,11.036L58.447,11.065L58.461,11.095L58.473,11.126L58.484,11.158L58.493,11.19L58.501,11.223L58.507,11.256L58.512,11.289L58.515,11.323L58.516,11.356L58.516,11.39L58.515,11.423L58.511,11.457L58.506,11.49L58.5,11.523L58.492,11.556L58.483,11.588L58.472,11.619L58.459,11.65L58.445,11.68L58.43,11.71L58.413,11.738L58.395,11.766L58.376,11.792L58.355,11.818L58.333,11.842L58.31,11.865L58.287,11.887L58.262,11.908L58.236,11.927L58.209,11.945L58.181,11.961L58.153,11.976L58.124,11.989L58.095,12L58.065,12.01L58.034,12.019L58.003,12.025L57.972,12.03L57.941,12.034L57.909,12.035L57.878,12.035L57.847,12.033L57.815,12.03L57.784,12.025L57.753,12.018L57.723,12.009L57.693,11.999L57.663,11.987L57.635,11.974L57.606,11.959L57.579,11.943L57.552,11.925L57.527,11.905L57.502,11.885L57.478,11.863L57.455,11.839L57.434,11.815L57.399,11.774L57.346,11.714L57.268,11.629L57.17,11.523L56.921,11.258L56.617,10.937L55.896,10.18L55.115,9.36L54.734,8.959L54.378,8.582L54.059,8.242L53.917,8.089L53.789,7.949L53.676,7.825L53.579,7.716L53.498,7.621L53.432,7.539L53.394,7.487L53.371,7.452L53.357,7.43L53.345,7.407L53.333,7.384L53.322,7.36L53.317,7.349L53.305,7.322L53.295,7.294L53.286,7.265L53.278,7.236L53.271,7.207L53.266,7.177L53.262,7.147L53.259,7.117L53.257,7.087L53.257,7.084L53.257,7.052L53.258,7.02L53.261,6.988L53.265,6.956L53.27,6.924L53.277,6.893L53.285,6.862L53.295,6.832L53.306,6.802L53.318,6.773L53.332,6.744L53.347,6.716L53.363,6.689L53.381,6.663L53.399,6.638L53.419,6.614L53.44,6.59L53.441,6.589L53.463,6.566L53.486,6.545L53.511,6.525L53.536,6.506L53.561,6.489L53.588,6.473L53.615,6.458L53.643,6.445L53.672,6.433L53.701,6.423L53.731,6.415L53.76,6.408L53.791,6.402L53.821,6.398L53.851,6.396L53.882,6.395L53.885,6.395Z" style="fill:#fff;"/>
        </g>
        <g transform="matrix(28.7823,0,0,22.3267,75.9694,126.308)">
            <path d="M57.713,4.659L57.776,4.662L57.84,4.666L57.904,4.671L57.967,4.678L58.031,4.686L58.095,4.696L58.159,4.708L58.222,4.721L58.286,4.736L58.349,4.753L58.412,4.771L58.475,4.791L58.537,4.813L58.6,4.836L58.661,4.861L58.723,4.888L58.784,4.917L58.845,4.947L58.905,4.979L58.964,5.013L59.023,5.048L59.082,5.086L59.14,5.125L59.197,5.165L59.253,5.207L59.309,5.251L59.364,5.297L59.419,5.345L59.473,5.394L59.526,5.444L59.578,5.497L59.63,5.551L59.68,5.606L59.731,5.663L59.78,5.722L59.829,5.783L59.877,5.845L59.924,5.909L59.97,5.975L60.016,6.042L60.061,6.111L60.106,6.181L60.149,6.253L60.192,6.327L60.234,6.403L60.276,6.48L60.317,6.56L60.357,6.64L60.396,6.723L60.435,6.808L60.474,6.895L60.499,6.955L60.523,7.017L60.546,7.079L60.567,7.14L60.586,7.202L60.604,7.264L60.62,7.326L60.634,7.387L60.648,7.449L60.659,7.51L60.669,7.572L60.677,7.633L60.684,7.694L60.69,7.755L60.694,7.815L60.697,7.876L60.698,7.936L60.698,7.996L60.697,8.055L60.694,8.114L60.69,8.173L60.685,8.232L60.679,8.29L60.671,8.348L60.662,8.405L60.653,8.462L60.642,8.518L60.63,8.575L60.617,8.63L60.603,8.685L60.588,8.74L60.572,8.795L60.556,8.848L60.537,8.904L60.5,9.007L60.46,9.111L60.416,9.213L60.37,9.313L60.321,9.411L60.27,9.507L60.217,9.601L60.162,9.694L60.105,9.784L60.047,9.873L59.987,9.96L59.927,10.045L59.865,10.129L59.802,10.21L59.739,10.29L59.675,10.368L59.611,10.444L59.546,10.518L59.482,10.59L59.417,10.661L59.353,10.729L59.289,10.796L59.226,10.862L59.103,10.984L58.983,11.1L58.869,11.207L58.762,11.306L58.576,11.474L58.499,11.544L58.438,11.601L58.392,11.646L58.39,11.647L58.385,11.657L58.364,11.687L58.342,11.716L58.318,11.744L58.291,11.77L58.264,11.794L58.234,11.816L58.203,11.837L58.171,11.855L58.138,11.872L58.103,11.886L58.068,11.898L58.032,11.908L57.996,11.915L57.959,11.92L57.921,11.923L57.884,11.924L57.846,11.922L57.809,11.917L57.773,11.911L57.736,11.902L57.701,11.891L57.666,11.877L57.632,11.862L57.6,11.844L57.568,11.824L57.538,11.803L57.51,11.779L57.483,11.754L57.458,11.727L57.435,11.698L57.414,11.669L57.395,11.637L57.378,11.605L57.363,11.572L57.351,11.538L57.34,11.503L57.333,11.468L57.327,11.432L57.324,11.396L57.324,11.36L57.326,11.324L57.33,11.288L57.337,11.252L57.347,11.217L57.358,11.183L57.363,11.17L57.375,11.141L57.388,11.113L57.403,11.085L57.412,11.071L57.427,11.047L57.443,11.024L57.466,10.992L57.501,10.95L57.535,10.913L57.57,10.877L57.637,10.812L57.712,10.743L57.793,10.669L57.976,10.502L58.076,10.411L58.18,10.312L58.288,10.208L58.399,10.098L58.454,10.042L58.509,9.983L58.565,9.924L58.62,9.863L58.675,9.802L58.73,9.739L58.784,9.675L58.837,9.61L58.89,9.544L58.941,9.477L58.991,9.41L59.04,9.341L59.087,9.272L59.133,9.202L59.177,9.132L59.219,9.061L59.259,8.99L59.297,8.919L59.333,8.847L59.366,8.775L59.397,8.703L59.425,8.631L59.452,8.556L59.463,8.522L59.474,8.486L59.485,8.45L59.495,8.414L59.504,8.378L59.512,8.342L59.52,8.306L59.527,8.27L59.533,8.234L59.538,8.198L59.543,8.162L59.547,8.127L59.55,8.091L59.552,8.055L59.554,8.019L59.555,7.983L59.555,7.947L59.554,7.911L59.552,7.875L59.55,7.839L59.547,7.803L59.543,7.767L59.538,7.731L59.532,7.695L59.525,7.658L59.517,7.621L59.508,7.585L59.499,7.548L59.488,7.51L59.476,7.473L59.463,7.435L59.45,7.397L59.435,7.359L59.418,7.32L59.387,7.249L59.355,7.179L59.322,7.111L59.29,7.045L59.257,6.982L59.224,6.92L59.19,6.86L59.157,6.803L59.123,6.747L59.089,6.693L59.055,6.641L59.021,6.591L58.987,6.543L58.953,6.497L58.919,6.452L58.884,6.41L58.85,6.369L58.816,6.329L58.781,6.292L58.747,6.256L58.713,6.222L58.678,6.189L58.644,6.158L58.61,6.128L58.576,6.1L58.542,6.073L58.508,6.048L58.474,6.024L58.441,6.001L58.407,5.979L58.373,5.959L58.339,5.94L58.306,5.922L58.272,5.905L58.238,5.89L58.205,5.875L58.171,5.861L58.137,5.848L58.103,5.837L58.069,5.826L58.035,5.816L58.001,5.807L57.966,5.799L57.931,5.792L57.896,5.785L57.861,5.78L57.826,5.775L57.79,5.771L57.754,5.768L57.717,5.766L57.68,5.764L57.643,5.764L57.606,5.764L57.568,5.765L57.53,5.767L57.491,5.769L57.452,5.773L57.413,5.777L57.374,5.782L57.334,5.788L57.294,5.795L57.253,5.803L57.212,5.811L57.171,5.82L57.13,5.83L57.088,5.841L57.046,5.853L57.004,5.865L56.961,5.878L56.918,5.892L56.875,5.907L56.834,5.922L56.745,5.955L56.658,5.992L56.57,6.03L56.482,6.072L56.393,6.116L56.304,6.163L56.215,6.212L56.126,6.264L56.038,6.317L55.949,6.373L55.861,6.43L55.774,6.49L55.686,6.551L55.6,6.613L55.514,6.677L55.429,6.742L55.345,6.808L55.262,6.876L55.18,6.944L55.099,7.012L55.019,7.082L54.94,7.152L54.863,7.222L54.788,7.292L54.713,7.362L54.641,7.433L54.57,7.503L54.499,7.574L54.472,7.599L54.444,7.623L54.414,7.645L54.382,7.664L54.35,7.682L54.316,7.698L54.281,7.711L54.246,7.722L54.209,7.731L54.173,7.738L54.135,7.742L54.098,7.744L54.061,7.743L54.023,7.741L53.986,7.735L53.95,7.728L53.914,7.718L53.878,7.706L53.844,7.692L53.811,7.675L53.779,7.657L53.748,7.636L53.718,7.614L53.691,7.59L53.664,7.564L53.64,7.536L53.618,7.507L53.597,7.477L53.579,7.446L53.563,7.413L53.549,7.379L53.538,7.345L53.528,7.31L53.521,7.274L53.517,7.238L53.515,7.202L53.516,7.166L53.518,7.13L53.524,7.094L53.532,7.059L53.542,7.024L53.554,6.99L53.569,6.957L53.586,6.924L53.605,6.893L53.626,6.864L53.649,6.835L53.674,6.808L53.749,6.733L53.828,6.655L53.909,6.577L53.991,6.499L54.075,6.421L54.162,6.342L54.249,6.264L54.339,6.186L54.43,6.109L54.523,6.032L54.617,5.956L54.713,5.88L54.81,5.806L54.909,5.732L55.009,5.66L55.111,5.589L55.214,5.519L55.318,5.451L55.423,5.385L55.53,5.32L55.638,5.258L55.747,5.198L55.858,5.14L55.969,5.084L56.082,5.031L56.196,4.98L56.311,4.933L56.425,4.889L56.486,4.868L56.545,4.847L56.604,4.828L56.663,4.81L56.723,4.792L56.783,4.776L56.843,4.76L56.904,4.745L56.965,4.732L57.026,4.719L57.087,4.708L57.149,4.697L57.21,4.688L57.273,4.68L57.335,4.673L57.397,4.668L57.46,4.663L57.523,4.66L57.586,4.658L57.649,4.658L57.713,4.659ZM58.419,11.593L58.414,11.602L58.421,11.591L58.433,11.559L58.419,11.593Z" style="fill:#fff;"/>
        </g>
        <g transform="matrix(26.4962,0,0,23.9942,199.594,117.619)">
            <path d="M10.23,41.773L10.272,41.777L10.314,41.782L10.355,41.79L10.396,41.8L10.435,41.813L10.474,41.828L10.511,41.845L10.547,41.864L10.581,41.885L10.613,41.907L10.643,41.932L10.671,41.958L10.697,41.986L10.721,42.015L10.742,42.046L10.761,42.077L10.777,42.11L10.79,42.143L10.8,42.177L10.808,42.212L10.813,42.246L10.815,42.282L10.814,42.317L10.81,42.352L10.803,42.386L10.793,42.421L10.781,42.454L10.707,42.633L10.623,42.827L10.532,43.031L10.435,43.245L10.333,43.467L10.227,43.697L10.004,44.173L9.774,44.664L9.658,44.912L9.544,45.16L9.431,45.406L9.322,45.649L9.216,45.889L9.114,46.123L9.019,46.35L8.929,46.57L8.888,46.675L8.848,46.779L8.811,46.879L8.775,46.977L8.742,47.071L8.712,47.161L8.684,47.248L8.659,47.331L8.636,47.409L8.621,47.469L8.751,47.442L9.146,47.359L9.572,47.271L10.023,47.179L10.495,47.084L11.479,46.886L12.485,46.685L13.473,46.488L14.403,46.303L15.234,46.136L15.275,46.129L15.317,46.124L15.36,46.122L15.402,46.122L15.444,46.125L15.486,46.129L15.528,46.137L15.569,46.146L15.609,46.158L15.648,46.172L15.685,46.188L15.721,46.207L15.756,46.227L15.789,46.249L15.82,46.273L15.849,46.299L15.875,46.326L15.9,46.355L15.922,46.385L15.941,46.416L15.958,46.448L15.972,46.481L15.984,46.515L15.992,46.55L15.998,46.584L16.001,46.619L16.001,46.655L15.998,46.69L15.992,46.724L15.983,46.759L15.972,46.793L15.957,46.826L15.94,46.858L15.921,46.889L15.899,46.919L15.874,46.948L15.847,46.975L15.818,47L15.787,47.024L15.754,47.046L15.72,47.067L15.683,47.085L15.646,47.101L15.607,47.115L15.567,47.127L15.526,47.136L14.694,47.303L13.764,47.488L12.776,47.685L11.771,47.885L10.789,48.083L10.319,48.178L9.871,48.27L9.448,48.357L9.057,48.438L8.702,48.514L8.379,48.584L8.325,48.594L8.257,48.603L8.185,48.608L8.138,48.608L8.109,48.608L8.08,48.606L8.06,48.605L8.028,48.602L7.997,48.597L7.978,48.594L7.945,48.588L7.912,48.58L7.894,48.575L7.861,48.566L7.828,48.555L7.811,48.548L7.779,48.535L7.747,48.521L7.731,48.513L7.701,48.497L7.672,48.48L7.657,48.471L7.63,48.453L7.605,48.433L7.591,48.423L7.568,48.403L7.546,48.383L7.534,48.371L7.515,48.351L7.497,48.331L7.486,48.317L7.471,48.298L7.457,48.278L7.435,48.245L7.406,48.194L7.383,48.143L7.365,48.095L7.352,48.048L7.341,48.002L7.333,47.958L7.328,47.915L7.325,47.872L7.323,47.83L7.323,47.788L7.324,47.747L7.327,47.703L7.334,47.622L7.346,47.538L7.361,47.452L7.379,47.364L7.401,47.274L7.425,47.182L7.452,47.088L7.481,46.99L7.513,46.891L7.548,46.789L7.584,46.685L7.623,46.579L7.663,46.47L7.706,46.36L7.751,46.246L7.844,46.017L7.943,45.78L8.048,45.538L8.157,45.293L8.269,45.044L8.383,44.794L8.499,44.543L8.615,44.293L8.846,43.801L9.068,43.327L9.173,43.1L9.274,42.882L9.368,42.673L9.455,42.476L9.535,42.292L9.606,42.119L9.622,42.087L9.639,42.055L9.66,42.024L9.683,41.994L9.708,41.966L9.736,41.939L9.765,41.914L9.797,41.891L9.831,41.87L9.866,41.85L9.902,41.832L9.941,41.817L9.98,41.804L10.02,41.793L10.061,41.784L10.103,41.778L10.145,41.774L10.187,41.772L10.23,41.773Z" style="fill:#fff;"/>
        </g>
        <g transform="matrix(34.2744,0,0,22.7436,118.737,170.223)">
            <path d="M10.849,41.501L10.906,41.504L10.963,41.51L11.02,41.517L11.078,41.525L11.135,41.536L11.193,41.548L11.251,41.562L11.309,41.577L11.367,41.594L11.426,41.613L11.484,41.633L11.543,41.654L11.603,41.677L11.662,41.701L11.721,41.727L11.781,41.754L11.841,41.782L11.901,41.812L11.961,41.843L12.021,41.875L12.081,41.908L12.141,41.943L12.201,41.98L12.26,42.017L12.32,42.056L12.38,42.096L12.439,42.137L12.499,42.179L12.558,42.223L12.617,42.268L12.675,42.314L12.733,42.361L12.791,42.409L12.849,42.459L12.905,42.509L12.962,42.561L13.018,42.614L13.073,42.668L13.128,42.724L13.182,42.78L13.235,42.838L13.288,42.897L13.34,42.956L13.391,43.017L13.441,43.08L13.491,43.143L13.539,43.207L13.586,43.273L13.633,43.339L13.678,43.407L13.721,43.475L13.835,43.657L13.887,43.743L13.935,43.825L13.982,43.904L14.025,43.982L14.067,44.059L14.106,44.135L14.144,44.21L14.179,44.287L14.212,44.363L14.244,44.441L14.273,44.519L14.301,44.599L14.326,44.68L14.351,44.763L14.373,44.847L14.395,44.934L14.416,45.023L14.436,45.116L14.455,45.212L14.475,45.313L14.495,45.419L14.515,45.531L14.557,45.773L14.603,46.046L14.656,46.356L14.695,46.581L14.7,46.594L14.711,46.62L14.721,46.647L14.729,46.674L14.732,46.685L14.737,46.707L14.742,46.729L14.746,46.751L14.748,46.762L14.752,46.792L14.754,46.823L14.755,46.833L14.755,46.854L14.756,46.876L14.755,46.898L14.754,46.907L14.752,46.937L14.748,46.966L14.743,46.996L14.742,47.003L14.735,47.031L14.728,47.059L14.719,47.086L14.708,47.113L14.697,47.139L14.684,47.165L14.682,47.169L14.667,47.194L14.651,47.219L14.634,47.242L14.616,47.265L14.597,47.286L14.577,47.306L14.556,47.324L14.533,47.341L14.511,47.357L14.487,47.372L14.486,47.372L14.461,47.385L14.436,47.397L14.411,47.406L14.385,47.414L14.359,47.421L14.332,47.426L14.305,47.429L14.278,47.43L14.251,47.43L14.225,47.428L14.223,47.428L14.195,47.424L14.168,47.418L14.141,47.411L14.114,47.401L14.088,47.39L14.063,47.378L14.038,47.363L14.014,47.347L14.012,47.346L13.99,47.329L13.968,47.311L13.948,47.291L13.928,47.271L13.91,47.249L13.908,47.246L13.89,47.223L13.874,47.198L13.859,47.173L13.845,47.146L13.841,47.138L13.829,47.114L13.819,47.089L13.81,47.064L13.799,47.028L13.785,46.97L13.775,46.921L13.713,46.562L13.66,46.251L13.614,45.98L13.573,45.743L13.554,45.638L13.536,45.541L13.519,45.45L13.502,45.367L13.485,45.29L13.468,45.218L13.452,45.153L13.435,45.091L13.419,45.034L13.402,44.98L13.384,44.928L13.365,44.878L13.345,44.828L13.323,44.778L13.299,44.726L13.273,44.673L13.243,44.617L13.211,44.557L13.175,44.494L13.136,44.426L13.093,44.353L13.046,44.276L12.939,44.104L12.906,44.052L12.872,44.001L12.837,43.951L12.801,43.902L12.764,43.853L12.727,43.804L12.688,43.756L12.648,43.709L12.608,43.663L12.567,43.617L12.525,43.571L12.482,43.527L12.439,43.483L12.395,43.44L12.35,43.398L12.305,43.357L12.26,43.316L12.214,43.276L12.168,43.238L12.121,43.2L12.074,43.163L12.027,43.127L11.98,43.092L11.932,43.058L11.885,43.025L11.837,42.993L11.79,42.963L11.742,42.933L11.695,42.905L11.648,42.877L11.601,42.851L11.554,42.826L11.508,42.802L11.462,42.779L11.417,42.758L11.372,42.737L11.328,42.718L11.285,42.701L11.242,42.684L11.2,42.669L11.159,42.655L11.119,42.643L11.08,42.631L11.042,42.621L11.005,42.612L10.97,42.605L10.936,42.599L10.904,42.594L10.873,42.59L10.844,42.587L10.817,42.586L10.792,42.585L10.769,42.586L10.748,42.587L10.729,42.589L10.713,42.591L10.699,42.594L10.688,42.597L10.68,42.6L10.674,42.602L10.67,42.603L10.67,42.604L10.659,42.612L10.634,42.629L10.609,42.644L10.584,42.657L10.557,42.669L10.53,42.679L10.502,42.687L10.475,42.693L10.446,42.698L10.418,42.7L10.39,42.701L10.361,42.699L10.333,42.696L10.305,42.691L10.277,42.684L10.25,42.675L10.223,42.664L10.197,42.652L10.171,42.638L10.146,42.622L10.122,42.604L10.099,42.585L10.078,42.565L10.057,42.543L10.037,42.519L10.019,42.495L10.002,42.469L9.986,42.442L9.972,42.414L9.96,42.385L9.948,42.356L9.939,42.326L9.931,42.295L9.925,42.263L9.92,42.232L9.917,42.2L9.915,42.168L9.916,42.135L9.918,42.103L9.922,42.071L9.927,42.04L9.934,42.009L9.943,41.978L9.953,41.948L9.965,41.919L9.978,41.89L9.993,41.863L10.009,41.836L10.026,41.811L10.045,41.787L10.065,41.764L10.087,41.743L10.109,41.723L10.132,41.704L10.171,41.675L10.226,41.641L10.282,41.61L10.338,41.585L10.395,41.563L10.452,41.545L10.509,41.53L10.566,41.519L10.622,41.51L10.679,41.504L10.736,41.501L10.793,41.5L10.849,41.501ZM14.156,47.347L14.199,47.351L14.171,47.347L14.143,47.342L14.13,47.338L14.156,47.347ZM14.07,47.317L14.081,47.321L14.064,47.314L14.07,47.317Z" style="fill:#fff;"/>
        </g>
        <g transform="matrix(26.3526,0,0,24.3265,201.803,103.569)">
            <path d="M54.15,10.866L54.247,10.881L54.339,10.907L54.425,10.945L54.426,10.945L54.498,10.99L54.562,11.042L54.616,11.101L54.658,11.166L54.689,11.235L54.707,11.308L54.712,11.381L54.703,11.454L54.703,11.455L54.686,11.517L54.659,11.576L54.624,11.632L54.621,11.636L54.569,11.696L54.543,11.722L54.498,11.763L54.446,11.808L54.313,11.921L54.129,12.074L53.897,12.264L53.617,12.493L52.922,13.058L52.054,13.758L51.03,14.583L49.863,15.52L48.566,16.56L47.155,17.69L45.644,18.899L42.377,21.509L38.88,24.3L35.265,27.183L31.648,30.065L28.141,32.857L24.86,35.469L21.917,37.809L19.428,39.788L17.505,41.315L16.262,42.299L15.931,42.561L15.841,42.631L15.808,42.656L15.753,42.693L15.694,42.725L15.63,42.751L15.63,42.752L15.537,42.778L15.441,42.792L15.343,42.793L15.246,42.782L15.152,42.759L15.064,42.724L14.983,42.679L14.913,42.623L14.854,42.56L14.808,42.49L14.776,42.414L14.759,42.336L14.757,42.256L14.77,42.178L14.799,42.101L14.842,42.03L14.898,41.965L14.957,41.915L14.953,41.917L14.981,41.896L15.063,41.831L15.391,41.572L16.632,40.589L18.555,39.063L21.044,37.084L23.986,34.744L27.267,32.133L30.773,29.341L34.391,26.459L38.005,23.577L41.502,20.785L44.768,18.175L46.279,16.967L47.69,15.837L48.985,14.799L50.152,13.862L51.175,13.038L52.04,12.339L52.733,11.776L53.011,11.55L53.239,11.362L53.416,11.215L53.539,11.111L53.576,11.079L53.591,11.065L53.622,11.032L53.693,10.978L53.773,10.932L53.861,10.898L53.955,10.875L54.052,10.865L54.15,10.866ZM53.471,11.289L53.472,11.29L53.473,11.285L53.471,11.289ZM53.55,11.113L53.55,11.114L53.552,11.11L53.55,11.113ZM53.57,11.086L53.567,11.091L53.589,11.067L53.57,11.086Z" style="fill:#fff;"/>
        </g>
    </g>
    <g id="Layer3">
        <g transform="matrix(0.000115259,-0.347714,0.437098,0.000144888,7.79341,26.9863)">
            <path d="M56.342,5.758L56.311,5.892L56.261,6.023L56.194,6.148L56.11,6.267L56.011,6.378L55.897,6.48L9.063,44.012L8.936,44.104L8.797,44.184L8.648,44.251L8.491,44.305L8.328,44.346L8.16,44.372L7.989,44.384L7.818,44.38L7.648,44.363L7.482,44.33L7.321,44.284L7.167,44.224L7.022,44.151L6.889,44.066L6.767,43.97L6.659,43.864L6.566,43.749L6.49,43.627L6.43,43.5L6.388,43.368L6.364,43.233L6.359,43.097L6.372,42.961L6.404,42.827L6.454,42.696L6.521,42.571L6.605,42.452L6.704,42.341L6.818,42.24L53.652,4.707L53.779,4.615L53.918,4.535L54.066,4.468L54.223,4.414L54.387,4.373L54.555,4.347L54.726,4.335L54.897,4.339L55.067,4.356L55.233,4.389L55.394,4.435L55.548,4.495L55.692,4.568L55.826,4.653L55.948,4.749L56.056,4.855L56.148,4.97L56.225,5.092L56.285,5.219L56.327,5.351L56.35,5.486L56.356,5.623L56.342,5.758Z" style="fill:#fff;"/>
        </g>
        <g transform="matrix(0.000100768,-0.303996,0.381144,0.000126341,33.7175,50.238)">
            <path d="M56.579,5.699L56.556,5.844L56.515,5.987L56.456,6.125L56.38,6.258L56.287,6.384L56.179,6.502L56.057,6.611L9.223,44.144L9.087,44.242L8.94,44.329L8.782,44.403L8.616,44.465L8.442,44.512L8.264,44.546L8.082,44.565L7.899,44.569L7.716,44.558L7.536,44.532L7.359,44.493L7.189,44.439L7.026,44.371L6.873,44.291L6.731,44.199L6.601,44.096L6.485,43.983L6.383,43.861L6.298,43.732L6.23,43.596L6.179,43.456L6.146,43.312L6.132,43.166L6.136,43.02L6.159,42.875L6.2,42.732L6.259,42.594L6.335,42.461L6.427,42.335L6.536,42.217L6.658,42.108L53.492,4.575L53.628,4.477L53.775,4.39L53.933,4.316L54.099,4.254L54.272,4.207L54.451,4.173L54.633,4.155L54.816,4.15L54.999,4.161L55.179,4.187L55.355,4.227L55.526,4.28L55.688,4.348L55.842,4.428L55.984,4.52L56.114,4.623L56.23,4.736L56.331,4.858L56.417,4.988L56.485,5.123L56.536,5.264L56.569,5.407L56.583,5.553L56.579,5.699Z" style="fill:#fff;"/>
        </g>
        <g transform="matrix(0.000281348,-0.848772,1.01533,0.000336557,3.51404,55.6595)">
            <path d="M63.059,12.454L63.044,12.511L63.044,12.513L63.027,12.556L63.006,12.598L62.982,12.638L62.953,12.676L62.949,12.681L62.91,12.723L62.884,12.749L62.84,12.789L62.79,12.834L62.66,12.945L62.483,13.095L62.26,13.282L61.991,13.505L61.324,14.058L60.491,14.744L59.505,15.555L57.119,17.512L51.026,22.506L47.511,25.39L45.677,26.895L43.809,28.43L43.757,28.469L43.699,28.503L43.638,28.531L43.573,28.554L43.506,28.571L43.437,28.581L43.367,28.586L43.297,28.584L43.228,28.575L43.16,28.56L43.094,28.54L43.031,28.513L42.973,28.481L42.918,28.444L42.869,28.402L42.826,28.356L42.788,28.307L42.758,28.254L42.734,28.199L42.718,28.142L42.709,28.083L42.708,28.025L42.714,27.966L42.728,27.909L42.749,27.853L42.777,27.799L42.812,27.748L42.854,27.701L42.901,27.658L44.769,26.122L46.603,24.616L50.119,21.732L56.211,16.739L58.596,14.782L59.582,13.972L60.413,13.287L61.078,12.736L61.344,12.515L61.564,12.331L61.735,12.187L61.855,12.083L61.892,12.051L61.906,12.037L61.926,12.016L61.974,11.974L62.027,11.936L62.085,11.903L62.147,11.875L62.213,11.853L62.28,11.838L62.349,11.828L62.419,11.825L62.49,11.828L62.559,11.838L62.626,11.853L62.692,11.875L62.754,11.902L62.812,11.935L62.865,11.973L62.913,12.016L62.956,12.062L62.992,12.113L63.022,12.166L63.044,12.221L63.059,12.279L63.067,12.337L63.067,12.396L63.059,12.454ZM61.899,12.045L61.895,12.05L61.904,12.04L61.899,12.045Z" style="fill:#fff;"/>
        </g>
        <g transform="matrix(0.000244204,-0.736713,0.912546,0.000302488,30.4466,74.1071)">
            <path d="M63.165,12.402L63.157,12.463L63.141,12.523L63.14,12.525L63.122,12.572L63.099,12.617L63.072,12.661L63.041,12.703L63.037,12.708L62.994,12.755L62.964,12.784L62.872,12.867L62.74,12.98L62.562,13.13L62.339,13.317L62.07,13.541L61.402,14.094L60.569,14.78L59.583,15.591L57.197,17.549L51.105,22.542L47.589,25.426L45.756,26.931L43.888,28.466L43.832,28.508L43.772,28.544L43.707,28.576L43.638,28.602L43.567,28.622L43.493,28.636L43.418,28.645L43.343,28.647L43.267,28.643L43.193,28.632L43.12,28.616L43.05,28.594L42.982,28.566L42.919,28.533L42.86,28.495L42.806,28.452L42.757,28.405L42.715,28.354L42.68,28.301L42.651,28.244L42.629,28.185L42.615,28.125L42.609,28.065L42.61,28.004L42.619,27.943L42.636,27.883L42.659,27.825L42.69,27.77L42.728,27.717L42.772,27.667L42.823,27.622L44.691,26.086L46.525,24.58L50.041,21.696L56.133,16.703L58.518,14.746L59.503,13.936L60.335,13.251L61,12.701L61.265,12.479L61.485,12.296L61.655,12.152L61.773,12.05L61.823,12.006L61.834,11.994L61.883,11.948L61.939,11.906L61.999,11.869L62.063,11.837L62.132,11.811L62.203,11.79L62.276,11.775L62.351,11.766L62.426,11.764L62.502,11.768L62.577,11.777L62.65,11.793L62.72,11.815L62.788,11.842L62.852,11.875L62.911,11.913L62.965,11.955L63.014,12.002L63.057,12.052L63.093,12.106L63.122,12.162L63.144,12.221L63.159,12.281L63.166,12.341L63.165,12.402ZM61.813,12.016L61.805,12.027L61.818,12.011L61.813,12.016Z" style="fill:#fff;"/>
        </g>
        <g transform="matrix(0.000307035,-0.926262,0.850995,0.000282085,5.83224,58.6753)">
            <path d="M61.046,12.07L61.042,12.111L61.036,12.152L61.028,12.192L61.017,12.232L61.004,12.271L60.988,12.309L60.971,12.345L60.951,12.381L60.929,12.415L60.906,12.447L60.88,12.478L60.853,12.507L60.824,12.534L60.794,12.559L60.762,12.581L60.729,12.602L60.694,12.62L60.659,12.635L60.623,12.649L60.586,12.659L60.549,12.667L60.511,12.673L60.473,12.675L60.435,12.675L60.397,12.673L60.359,12.668L60.322,12.66L60.285,12.649L60.249,12.636L60.214,12.621L60.179,12.603L60.146,12.583L60.114,12.56L60.084,12.535L60.055,12.509L60.027,12.48L60.002,12.449L59.978,12.417L59.956,12.383L59.974,12.414L59.981,12.422L59.935,12.365L59.753,12.14L59.109,11.352L58.205,10.249L57.171,8.993L56.646,8.356L56.138,7.741L55.662,7.166L55.235,6.653L54.873,6.221L54.594,5.891L54.492,5.772L54.42,5.689L54.394,5.661L54.383,5.652L54.356,5.623L54.329,5.593L54.305,5.561L54.283,5.528L54.262,5.493L54.244,5.456L54.228,5.419L54.214,5.38L54.203,5.341L54.194,5.3L54.187,5.26L54.183,5.218L54.181,5.177L54.181,5.136L54.184,5.094L54.189,5.053L54.197,5.013L54.207,4.973L54.22,4.934L54.235,4.896L54.252,4.858L54.271,4.823L54.292,4.788L54.315,4.755L54.34,4.724L54.367,4.695L54.396,4.667L54.426,4.642L54.457,4.619L54.49,4.598L54.524,4.579L54.559,4.563L54.595,4.549L54.631,4.538L54.669,4.529L54.706,4.523L54.744,4.52L54.782,4.519L54.82,4.521L54.858,4.525L54.896,4.532L54.933,4.542L54.969,4.554L54.971,4.555L55.004,4.569L55.036,4.585L55.068,4.603L55.098,4.623L55.127,4.644L55.131,4.648L55.155,4.668L55.178,4.689L55.204,4.714L55.27,4.787L55.356,4.885L55.465,5.012L55.749,5.348L56.114,5.784L56.543,6.3L57.02,6.876L57.53,7.492L58.055,8.13L59.091,9.388L59.996,10.492L60.642,11.283L60.829,11.514L60.885,11.584L60.909,11.615L60.93,11.644L60.95,11.676L60.97,11.711L60.987,11.748L61.003,11.786L61.016,11.825L61.027,11.864L61.036,11.905L61.042,11.945L61.045,11.987L61.047,12.028L61.046,12.07ZM54.405,5.671L54.406,5.672L54.405,5.671Z" style="fill:#fff;"/>
        </g>
        <g transform="matrix(0.00026031,-0.785302,1.16559,0.000386365,-0.113543,54.0486)">
            <path d="M15.841,48.215L15.837,48.246L15.837,48.246L15.829,48.276L15.819,48.305L15.806,48.333L15.79,48.361L15.772,48.389L15.751,48.415L15.727,48.441L15.702,48.465L15.674,48.489L15.643,48.511L15.611,48.531L15.577,48.551L15.542,48.569L15.504,48.585L15.465,48.599L15.425,48.612L15.384,48.624L15.342,48.633L15.299,48.641L15.255,48.646L15.211,48.65L15.166,48.652L15.122,48.652L15.077,48.65L15.033,48.647L14.99,48.641L14.946,48.634L14.904,48.624L14.863,48.613L14.823,48.6L14.784,48.586L14.746,48.569L14.71,48.552L14.676,48.532L14.66,48.522L14.627,48.501L14.557,48.452L14.324,48.287L13.968,48.032L13.508,47.701L12.357,46.873L11.708,46.407L11.038,45.928L10.369,45.45L9.72,44.99L9.411,44.771L9.114,44.563L8.834,44.367L8.572,44.185L8.332,44.019L8.117,43.872L7.929,43.746L7.771,43.643L7.707,43.602L7.652,43.568L7.621,43.549L7.611,43.546L7.571,43.53L7.533,43.513L7.496,43.494L7.462,43.474L7.429,43.452L7.399,43.429L7.371,43.404L7.346,43.379L7.323,43.352L7.303,43.324L7.285,43.296L7.27,43.267L7.258,43.237L7.249,43.206L7.243,43.176L7.24,43.145L7.24,43.114L7.243,43.083L7.249,43.053L7.258,43.022L7.27,42.993L7.285,42.963L7.302,42.935L7.304,42.932L7.324,42.905L7.346,42.879L7.371,42.854L7.398,42.829L7.428,42.807L7.459,42.785L7.493,42.765L7.528,42.746L7.565,42.729L7.604,42.714L7.644,42.7L7.685,42.688L7.727,42.678L7.77,42.669L7.775,42.669L7.817,42.662L7.86,42.658L7.903,42.655L7.946,42.654L7.989,42.655L8.032,42.658L8.075,42.662L8.117,42.668L8.124,42.669L8.158,42.676L8.191,42.683L8.224,42.692L8.257,42.702L8.266,42.705L8.294,42.714L8.322,42.725L8.348,42.736L8.398,42.758L8.467,42.795L8.53,42.831L8.595,42.87L8.664,42.913L8.741,42.962L8.911,43.074L9.109,43.206L9.331,43.358L9.576,43.526L9.841,43.711L10.125,43.909L10.423,44.119L10.735,44.339L11.386,44.801L12.058,45.281L12.729,45.761L13.379,46.228L14.53,47.056L14.989,47.386L15.342,47.639L15.567,47.798L15.613,47.83L15.642,47.849L15.673,47.872L15.702,47.896L15.728,47.921L15.752,47.948L15.774,47.975L15.792,48.003L15.808,48.032L15.821,48.062L15.831,48.092L15.838,48.122L15.842,48.153L15.843,48.184L15.841,48.215Z" style="fill:#fff;"/>
        </g>
        <g id="Layer31" serif:id="Layer3">
        </g>
        <path d="M18.125,10.244L18.146,10.245L18.166,10.247L18.186,10.25L18.207,10.253L18.227,10.257L18.247,10.262L18.267,10.268L18.286,10.274L18.305,10.282L18.324,10.289L18.343,10.298L18.361,10.307L18.379,10.317L18.397,10.328L18.414,10.339L18.431,10.351L18.447,10.364L18.463,10.377L18.479,10.39L18.493,10.405L18.508,10.419L18.521,10.435L18.534,10.451L18.547,10.467L18.559,10.484L18.57,10.501L18.581,10.519L18.591,10.537L18.6,10.555L18.609,10.574L18.616,10.593L18.624,10.612L18.63,10.631L18.636,10.651L18.641,10.671L18.645,10.691L18.648,10.712L18.651,10.732L18.653,10.752L18.654,10.773L18.654,10.794L18.654,10.814L18.653,10.835L18.651,10.855L18.648,10.876L18.645,10.896L18.641,10.916L18.636,10.936L18.63,10.956L18.624,10.975L18.616,10.995L18.609,11.014L18.6,11.032L18.591,11.051L18.581,11.069L18.57,11.086L18.559,11.103L18.547,11.12L18.534,11.137L18.521,11.152L18.508,11.168L18.493,11.183L16.55,13.126L16.535,13.14L16.52,13.154L16.504,13.167L16.488,13.179L16.471,13.191L16.454,13.202L16.436,13.213L16.418,13.223L16.4,13.232L16.381,13.241L16.362,13.249L16.343,13.256L16.323,13.262L16.304,13.268L16.284,13.273L16.264,13.277L16.243,13.28L16.223,13.283L16.202,13.285L16.182,13.286L16.161,13.287L16.141,13.286L16.12,13.285L16.1,13.283L16.079,13.28L16.059,13.277L16.039,13.273L16.019,13.268L15.999,13.262L15.98,13.256L15.96,13.249L15.941,13.241L15.923,13.232L15.904,13.223L15.886,13.213L15.869,13.202L15.852,13.191L15.835,13.179L15.818,13.167L15.803,13.154L15.787,13.14L15.772,13.126L15.758,13.111L15.744,13.095L15.731,13.08L15.719,13.063L15.707,13.046L15.696,13.029L15.685,13.012L15.675,12.994L15.666,12.975L15.657,12.957L15.649,12.938L15.642,12.918L15.636,12.899L15.63,12.879L15.625,12.859L15.621,12.839L15.618,12.819L15.615,12.798L15.613,12.778L15.612,12.757L15.611,12.737L15.612,12.716L15.613,12.696L15.615,12.675L15.618,12.655L15.621,12.634L15.625,12.614L15.63,12.594L15.636,12.575L15.642,12.555L15.649,12.536L15.657,12.517L15.666,12.498L15.675,12.48L15.685,12.462L15.696,12.444L15.707,12.427L15.719,12.41L15.731,12.394L15.744,12.378L15.758,12.363L15.772,12.348L17.715,10.405L17.73,10.39L17.746,10.377L17.761,10.364L17.778,10.351L17.795,10.339L17.812,10.328L17.829,10.317L17.847,10.307L17.866,10.298L17.884,10.289L17.903,10.282L17.923,10.274L17.942,10.268L17.962,10.262L17.982,10.257L18.002,10.253L18.022,10.25L18.043,10.247L18.063,10.245L18.084,10.244L18.104,10.244L18.125,10.244Z" style="fill:#fff;"/>
        <path d="M24.651,13.354L24.679,13.355L24.706,13.358L24.733,13.362L24.76,13.368L24.787,13.375L24.813,13.383L24.838,13.392L24.864,13.403L24.888,13.415L24.912,13.429L24.936,13.443L24.958,13.459L24.98,13.475L25.001,13.493L25.021,13.512L25.04,13.531L25.058,13.552L25.075,13.574L25.091,13.596L25.106,13.619L25.119,13.643L25.131,13.667L25.143,13.693L25.152,13.718L25.161,13.744L25.168,13.771L25.174,13.797L25.179,13.824L25.182,13.852L25.184,13.879L25.185,13.906L25.184,13.934L25.182,13.961L25.178,13.988L25.173,14.015L25.167,14.042L25.159,14.068L25.15,14.094L25.14,14.12L25.129,14.145L25.116,14.169L25.102,14.193L25.087,14.216L25.071,14.238L25.054,14.259L25.036,14.28L25.016,14.299L21.524,17.667L21.504,17.686L21.483,17.703L21.461,17.72L21.438,17.735L21.414,17.749L21.39,17.762L21.365,17.774L21.34,17.785L21.314,17.794L21.288,17.802L21.261,17.808L21.235,17.814L21.207,17.818L21.18,17.82L21.153,17.821L21.125,17.821L21.098,17.82L21.071,17.817L21.044,17.813L21.017,17.807L20.99,17.8L20.964,17.792L20.938,17.782L20.913,17.771L20.888,17.759L20.864,17.746L20.841,17.732L20.818,17.716L20.797,17.7L20.776,17.682L20.756,17.663L20.737,17.643L20.719,17.623L20.702,17.601L20.686,17.579L20.671,17.556L20.658,17.532L20.645,17.507L20.634,17.482L20.624,17.457L20.616,17.431L20.608,17.404L20.602,17.377L20.598,17.35L20.595,17.323L20.593,17.296L20.592,17.268L20.593,17.241L20.595,17.214L20.599,17.186L20.604,17.159L20.61,17.133L20.617,17.106L20.626,17.08L20.636,17.055L20.648,17.03L20.661,17.006L20.674,16.982L20.689,16.959L20.706,16.937L20.723,16.916L20.741,16.895L20.76,16.876L24.253,13.507L24.273,13.489L24.294,13.471L24.316,13.455L24.339,13.44L24.362,13.425L24.386,13.412L24.411,13.401L24.437,13.39L24.462,13.381L24.489,13.373L24.515,13.366L24.542,13.361L24.569,13.357L24.597,13.355L24.624,13.353L24.651,13.354Z" style="fill:#fff;"/>
        <path d="M27.812,19.026L27.834,19.027L27.856,19.03L27.878,19.033L27.9,19.037L27.922,19.043L27.943,19.049L27.964,19.055L27.985,19.063L28.005,19.072L28.025,19.081L28.045,19.091L28.064,19.102L28.083,19.114L28.101,19.126L28.119,19.139L28.136,19.153L28.153,19.168L28.169,19.183L28.185,19.199L28.199,19.215L28.214,19.232L28.227,19.25L28.24,19.268L28.252,19.287L28.263,19.306L28.273,19.325L28.283,19.345L28.292,19.366L28.3,19.386L28.307,19.407L28.313,19.429L28.319,19.45L28.323,19.472L28.327,19.494L28.33,19.516L28.332,19.538L28.333,19.56L28.333,19.582L28.332,19.604L28.331,19.626L28.328,19.648L28.325,19.67L28.321,19.692L28.315,19.713L28.309,19.735L28.303,19.756L28.295,19.776L28.286,19.797L28.277,19.817L28.267,19.837L28.256,19.856L28.244,19.875L28.232,19.893L28.219,19.911L28.205,19.928L28.19,19.945L28.175,19.961L28.159,19.976L25.882,22.108L25.865,22.123L25.848,22.137L25.831,22.15L25.813,22.163L25.794,22.175L25.775,22.186L25.755,22.197L25.735,22.206L25.715,22.215L25.695,22.223L25.674,22.23L25.652,22.237L25.631,22.242L25.609,22.247L25.587,22.25L25.565,22.253L25.543,22.255L25.521,22.256L25.499,22.256L25.477,22.256L25.455,22.254L25.433,22.251L25.411,22.248L25.389,22.244L25.368,22.239L25.346,22.233L25.325,22.226L25.304,22.218L25.284,22.21L25.264,22.2L25.244,22.19L25.225,22.179L25.206,22.167L25.188,22.155L25.17,22.142L25.153,22.128L25.136,22.113L25.12,22.098L25.105,22.082L25.09,22.066L25.076,22.049L25.062,22.031L25.049,22.013L25.038,21.994L25.026,21.975L25.016,21.956L25.006,21.936L24.997,21.915L24.989,21.895L24.982,21.874L24.976,21.853L24.97,21.831L24.966,21.809L24.962,21.788L24.959,21.766L24.957,21.744L24.956,21.721L24.956,21.699L24.957,21.677L24.958,21.655L24.961,21.633L24.964,21.611L24.969,21.589L24.974,21.568L24.98,21.547L24.987,21.526L24.994,21.505L25.003,21.484L25.012,21.464L25.022,21.445L25.033,21.425L25.045,21.406L25.058,21.388L25.071,21.37L25.085,21.353L25.099,21.336L25.114,21.32L25.13,21.305L27.407,19.173L27.424,19.158L27.441,19.144L27.458,19.131L27.477,19.118L27.495,19.106L27.514,19.095L27.534,19.085L27.554,19.075L27.574,19.066L27.595,19.058L27.616,19.051L27.637,19.045L27.658,19.039L27.68,19.035L27.702,19.031L27.724,19.028L27.746,19.026L27.768,19.025L27.79,19.025L27.812,19.026Z" style="fill:#fff;"/>
        <path d="M38.896,31.165L38.917,31.165L38.938,31.167L38.959,31.17L38.979,31.173L39,31.177L39.02,31.182L39.04,31.187L39.06,31.193L39.079,31.2L39.099,31.208L39.118,31.217L39.136,31.226L39.155,31.236L39.173,31.246L39.19,31.258L39.207,31.27L39.224,31.282L39.24,31.295L39.255,31.309L39.27,31.323L39.285,31.338L39.299,31.354L39.312,31.37L39.325,31.386L39.337,31.403L39.349,31.421L39.359,31.438L39.369,31.457L39.379,31.475L39.388,31.494L39.396,31.513L39.403,31.533L39.409,31.553L39.415,31.573L39.42,31.593L39.424,31.613L39.428,31.634L39.43,31.654L39.432,31.675L39.433,31.696L39.434,31.717L39.433,31.738L39.432,31.758L39.43,31.779L39.427,31.8L39.423,31.82L39.419,31.841L39.414,31.861L39.408,31.881L39.401,31.9L39.394,31.92L39.386,31.939L39.377,31.958L39.367,31.976L39.357,31.994L39.346,32.012L39.334,32.029L39.322,32.046L39.309,32.063L39.296,32.078L39.282,32.094L39.267,32.109L37.258,34.063L37.243,34.077L37.228,34.091L37.211,34.104L37.195,34.116L37.177,34.128L37.16,34.139L37.142,34.15L37.123,34.159L37.105,34.168L37.086,34.177L37.066,34.184L37.047,34.191L37.027,34.197L37.007,34.203L36.986,34.207L36.966,34.211L36.945,34.214L36.925,34.217L36.904,34.218L36.883,34.219L36.862,34.219L36.841,34.218L36.821,34.216L36.8,34.214L36.779,34.21L36.759,34.206L36.739,34.202L36.719,34.196L36.699,34.19L36.679,34.183L36.66,34.175L36.641,34.166L36.622,34.157L36.604,34.147L36.586,34.137L36.568,34.125L36.551,34.114L36.535,34.101L36.519,34.088L36.503,34.074L36.488,34.06L36.473,34.045L36.46,34.029L36.446,34.013L36.433,33.997L36.421,33.98L36.41,33.963L36.399,33.945L36.389,33.927L36.38,33.908L36.371,33.889L36.363,33.87L36.356,33.85L36.349,33.831L36.343,33.811L36.338,33.79L36.334,33.77L36.331,33.749L36.328,33.729L36.326,33.708L36.325,33.687L36.325,33.666L36.325,33.646L36.327,33.625L36.329,33.604L36.332,33.583L36.335,33.563L36.34,33.543L36.345,33.522L36.351,33.503L36.357,33.483L36.365,33.463L36.373,33.444L36.382,33.425L36.391,33.407L36.402,33.389L36.412,33.371L36.424,33.354L36.436,33.337L36.449,33.321L36.463,33.305L36.477,33.289L36.491,33.275L38.5,31.32L38.515,31.306L38.531,31.292L38.547,31.279L38.564,31.267L38.581,31.255L38.599,31.244L38.617,31.234L38.635,31.224L38.654,31.215L38.673,31.206L38.692,31.199L38.712,31.192L38.732,31.186L38.752,31.18L38.772,31.176L38.793,31.172L38.813,31.169L38.834,31.167L38.855,31.165L38.876,31.164L38.896,31.165Z" style="fill:#fff;"/>
        <path d="M45.097,34.609L45.124,34.612L45.151,34.616L45.177,34.621L45.203,34.627L45.229,34.635L45.255,34.644L45.28,34.654L45.304,34.665L45.328,34.678L45.351,34.692L45.374,34.707L45.396,34.723L45.416,34.74L45.437,34.758L45.456,34.777L45.474,34.797L45.491,34.817L45.507,34.839L45.523,34.861L45.537,34.884L45.549,34.908L45.561,34.932L45.572,34.957L45.581,34.983L45.589,35.008L45.595,35.035L45.601,35.061L45.605,35.088L45.608,35.115L45.609,35.142L45.609,35.169L45.608,35.196L45.606,35.222L45.602,35.249L45.597,35.276L45.59,35.302L45.583,35.328L45.574,35.353L45.563,35.378L45.552,35.403L45.539,35.427L45.526,35.45L45.511,35.472L45.495,35.494L45.478,35.515L45.46,35.535L45.441,35.554L42.05,38.817L42.03,38.836L42.009,38.853L41.988,38.869L41.965,38.884L41.942,38.898L41.919,38.911L41.894,38.923L41.869,38.933L41.844,38.942L41.818,38.95L41.792,38.957L41.766,38.963L41.739,38.967L41.712,38.969L41.685,38.971L41.658,38.971L41.631,38.97L41.604,38.967L41.578,38.964L41.551,38.958L41.525,38.952L41.499,38.944L41.473,38.935L41.448,38.925L41.424,38.914L41.4,38.901L41.377,38.887L41.354,38.873L41.333,38.857L41.312,38.84L41.292,38.822L41.272,38.803L41.254,38.783L41.237,38.762L41.221,38.74L41.206,38.718L41.192,38.695L41.179,38.671L41.167,38.647L41.157,38.622L41.147,38.596L41.139,38.571L41.133,38.545L41.127,38.518L41.123,38.491L41.12,38.465L41.119,38.438L41.119,38.411L41.12,38.384L41.122,38.357L41.126,38.33L41.131,38.304L41.138,38.277L41.145,38.251L41.154,38.226L41.165,38.201L41.176,38.176L41.189,38.153L41.202,38.129L41.217,38.107L41.233,38.085L41.25,38.064L41.268,38.044L41.287,38.025L44.678,34.762L44.698,34.743L44.719,34.726L44.74,34.71L44.763,34.695L44.786,34.681L44.81,34.668L44.834,34.656L44.859,34.646L44.884,34.637L44.91,34.629L44.936,34.622L44.963,34.617L44.989,34.613L45.016,34.61L45.043,34.608L45.07,34.608L45.097,34.609Z" style="fill:#fff;"/>
        <path d="M48.965,41.095L48.987,41.097L49.008,41.099L49.029,41.102L49.05,41.106L49.071,41.111L49.091,41.116L49.112,41.123L49.132,41.13L49.152,41.138L49.171,41.146L49.19,41.156L49.209,41.166L49.227,41.177L49.245,41.188L49.263,41.201L49.28,41.213L49.296,41.227L49.312,41.241L49.328,41.256L49.342,41.271L49.357,41.287L49.37,41.304L49.383,41.321L49.395,41.338L49.407,41.356L49.418,41.375L49.428,41.393L49.437,41.412L49.446,41.432L49.454,41.452L49.461,41.472L49.467,41.492L49.473,41.513L49.477,41.534L49.481,41.555L49.484,41.576L49.486,41.597L49.488,41.618L49.489,41.64L49.488,41.661L49.487,41.682L49.485,41.703L49.483,41.725L49.479,41.746L49.475,41.767L49.47,41.787L49.464,41.808L49.457,41.828L49.45,41.848L49.441,41.868L49.432,41.887L49.423,41.906L49.412,41.925L49.401,41.943L49.389,41.96L49.376,41.978L49.363,41.994L49.349,42.011L49.335,42.026L49.018,42.356L48.32,43.082L47.948,43.469L47.624,43.808L47.398,44.047L47.338,44.11L47.334,44.115L47.326,44.125L47.311,44.141L47.296,44.156L47.281,44.17L47.265,44.184L47.248,44.198L47.231,44.211L47.214,44.223L47.196,44.234L47.177,44.245L47.158,44.255L47.139,44.264L47.119,44.272L47.099,44.28L47.079,44.287L47.059,44.293L47.038,44.298L47.017,44.303L46.996,44.306L46.975,44.309L46.954,44.311L46.933,44.313L46.911,44.313L46.89,44.313L46.869,44.311L46.847,44.309L46.826,44.306L46.805,44.303L46.784,44.298L46.764,44.293L46.743,44.287L46.723,44.28L46.703,44.272L46.684,44.264L46.664,44.255L46.646,44.245L46.627,44.234L46.609,44.223L46.592,44.21L46.574,44.198L46.558,44.184L46.542,44.17L46.526,44.156L46.511,44.14L46.497,44.125L46.483,44.108L46.47,44.091L46.458,44.074L46.446,44.056L46.435,44.038L46.425,44.019L46.415,44L46.415,44L46.406,43.98L46.398,43.96L46.391,43.94L46.384,43.92L46.378,43.899L46.374,43.878L46.369,43.857L46.366,43.836L46.364,43.815L46.362,43.793L46.361,43.772L46.361,43.751L46.362,43.729L46.364,43.708L46.366,43.687L46.37,43.665L46.374,43.644L46.379,43.623L46.385,43.603L46.392,43.582L46.399,43.562L46.407,43.543L46.416,43.523L46.426,43.504L46.436,43.485L46.447,43.467L46.459,43.449L46.472,43.432L46.485,43.415L46.499,43.399L46.507,43.39L46.528,43.366L46.597,43.292L46.828,43.049L47.154,42.709L47.527,42.32L48.225,41.593L48.542,41.263L48.557,41.248L48.573,41.234L48.589,41.22L48.606,41.207L48.623,41.194L48.641,41.182L48.659,41.171L48.678,41.161L48.697,41.151L48.716,41.142L48.736,41.134L48.756,41.126L48.776,41.119L48.796,41.114L48.817,41.108L48.838,41.104L48.859,41.101L48.88,41.098L48.901,41.096L48.923,41.095L48.944,41.095L48.965,41.095Z" style="fill:#fff;"/>
    </g>
</svg>
