<?xml version="1.0" encoding="UTF-8" standalone="no"?>
<!DOCTYPE svg PUBLIC "-//W3C//DTD SVG 1.1//EN" "http://www.w3.org/Graphics/SVG/1.1/DTD/svg11.dtd">
<svg width="100%" height="100%" viewBox="0 0 200 150" version="1.1" xmlns="http://www.w3.org/2000/svg" xmlns:xlink="http://www.w3.org/1999/xlink" xml:space="preserve" xmlns:serif="http://www.serif.com/" style="fill-rule:evenodd;clip-rule:evenodd;stroke-linecap:round;stroke-linejoin:round;stroke-miterlimit:1.5;">
    <g id="Artboard1" transform="matrix(0.625,0,0,0.46875,0,0)">
        <rect x="0" y="0" width="320" height="320" style="fill:rgb(180,129,158);"/>
        <g transform="matrix(1.6,0,0,2.13333,0,0)">
            <path d="M78.539,107.913L78.588,107.921L78.636,107.932L78.683,107.948L78.729,107.967L78.773,107.99L78.815,108.016L78.855,108.046L78.892,108.079L78.926,108.115L78.957,108.154L78.984,108.195L79.009,108.238L79.029,108.283L79.046,108.33L79.059,108.378L79.068,108.427L79.073,108.476L79.074,108.525L79.07,108.575L79.063,108.624L79.051,108.672L78.98,108.926L78.907,109.19L78.833,109.464L78.757,109.747L78.6,110.342L78.435,110.969L78.263,111.624L78.173,111.96L78.082,112.303L77.988,112.649L77.892,113.001L77.793,113.356L77.692,113.714L77.589,114.075L77.483,114.438L77.375,114.802L77.263,115.168L77.149,115.535L77.033,115.901L76.973,116.084L76.913,116.267L76.852,116.45L76.79,116.633L76.728,116.815L76.664,116.996L76.6,117.177L76.536,117.358L76.47,117.538L76.403,117.717L76.336,117.896L76.268,118.074L76.199,118.25L76.129,118.426L76.058,118.601L75.987,118.775L75.914,118.948L75.841,119.119L75.767,119.289L75.692,119.456L75.67,119.501L75.645,119.543L75.615,119.583L75.583,119.621L75.548,119.656L75.51,119.688L75.469,119.716L75.427,119.741L75.382,119.763L75.336,119.781L75.288,119.795L75.239,119.804L75.19,119.81L75.141,119.812L75.091,119.81L75.042,119.803L74.993,119.793L74.946,119.778L74.9,119.76L74.856,119.738L74.813,119.712L74.773,119.683L74.735,119.651L74.7,119.616L74.669,119.578L74.64,119.537L74.615,119.495L74.593,119.45L74.576,119.404L74.562,119.356L74.552,119.307L74.546,119.258L74.544,119.209L74.546,119.159L74.553,119.11L74.563,119.061L74.578,119.014L74.596,118.968L74.669,118.805L74.739,118.643L74.809,118.479L74.879,118.314L74.947,118.148L75.015,117.98L75.082,117.811L75.149,117.641L75.214,117.469L75.279,117.297L75.344,117.124L75.407,116.95L75.47,116.775L75.532,116.599L75.594,116.423L75.654,116.246L75.714,116.068L75.774,115.89L75.833,115.712L75.89,115.533L76.005,115.174L76.116,114.816L76.225,114.457L76.332,114.099L76.436,113.742L76.538,113.386L76.637,113.033L76.735,112.682L76.83,112.334L76.923,111.991L77.014,111.651L77.103,111.317L77.275,110.663L77.44,110.036L77.598,109.438L77.675,109.151L77.75,108.873L77.824,108.605L77.896,108.347L77.912,108.3L77.931,108.255L77.954,108.211L77.98,108.169L78.01,108.129L78.043,108.092L78.079,108.058L78.118,108.027L78.159,107.999L78.202,107.975L78.247,107.954L78.294,107.937L78.342,107.925L78.39,107.916L78.44,107.911L78.489,107.91L78.539,107.913Z" style="fill:rgb(195,109,21);"/>
        </g>
        <g transform="matrix(1.6,0,0,2.13333,0,0)">
            <path d="M43.74,107.913L43.789,107.92L43.837,107.931L43.884,107.946L43.93,107.965L43.975,107.987L44.017,108.013L44.057,108.043L44.094,108.075L44.128,108.111L44.16,108.149L44.188,108.19L44.213,108.233L44.234,108.278L44.446,108.785L44.691,109.373L45.259,110.738L46.562,113.878L47.215,115.451L47.815,116.893L48.082,117.533L48.321,118.102L48.525,118.588L48.69,118.978L48.708,119.024L48.721,119.072L48.731,119.121L48.736,119.17L48.738,119.219L48.735,119.269L48.729,119.318L48.718,119.366L48.703,119.414L48.684,119.46L48.662,119.504L48.636,119.546L48.607,119.586L48.574,119.624L48.539,119.658L48.501,119.69L48.46,119.718L48.417,119.743L48.372,119.764L48.326,119.782L48.278,119.795L48.229,119.805L48.18,119.811L48.131,119.812L48.081,119.809L48.032,119.803L47.984,119.792L47.936,119.777L47.89,119.759L47.846,119.736L47.804,119.71L47.764,119.681L47.726,119.648L47.692,119.613L47.66,119.575L47.632,119.534L47.607,119.491L47.586,119.446L47.419,119.055L47.214,118.567L46.975,117.996L46.708,117.355L46.107,115.912L45.454,114.338L44.151,111.198L43.583,109.834L43.339,109.248L43.127,108.742L43.109,108.695L43.096,108.647L43.087,108.599L43.081,108.549L43.08,108.5L43.083,108.45L43.09,108.401L43.101,108.353L43.116,108.305L43.135,108.26L43.157,108.215L43.183,108.173L43.213,108.133L43.246,108.096L43.281,108.062L43.32,108.03L43.36,108.002L43.403,107.977L43.448,107.956L43.495,107.939L43.543,107.926L43.591,107.916L43.641,107.911L43.69,107.91L43.74,107.913Z" style="fill:rgb(233,133,29);"/>
        </g>
        <g transform="matrix(1.16879,0,0,1.55839,88.417,105.232)">
            <circle cx="8.077" cy="22.901" r="62.627" style="fill:url(#_Linear1);stroke:rgb(235,134,30);stroke-opacity:0.01;stroke-width:1.64px;"/>
        </g>
        <g transform="matrix(1.48521,-2.84558e-16,-1.81253e-16,-2.29978,47.0986,553.734)">
            <path d="M61.161,130.193L7.191,130.193L20.684,106.35L47.668,106.35L61.161,130.193Z" style="fill:url(#_Linear2);stroke:rgb(235,134,30);stroke-opacity:0.01;stroke-width:1.19px;"/>
        </g>
        <g transform="matrix(1.6,0,0,2.13333,96.2958,2.62627)">
            <text x="-26.553px" y="81.561px" style="font-family:'Optima-Regular', 'Optima';font-size:32px;fill:white;">Vennpool</text>
        </g>
    </g>
    <defs>
        <linearGradient id="_Linear1" x1="0" y1="0" x2="1" y2="0" gradientUnits="userSpaceOnUse" gradientTransform="matrix(125.255,0,0,125.309,-54.5505,22.9006)"><stop offset="0" style="stop-color:rgb(235,134,30);stop-opacity:1"/><stop offset="0.59" style="stop-color:rgb(212,120,25);stop-opacity:1"/><stop offset="0.8" style="stop-color:rgb(162,89,13);stop-opacity:1"/><stop offset="1" style="stop-color:rgb(113,58,2);stop-opacity:1"/></linearGradient>
        <linearGradient id="_Linear2" x1="0" y1="0" x2="1" y2="0" gradientUnits="userSpaceOnUse" gradientTransform="matrix(53.9693,0,0,23.8533,7.19134,118.272)"><stop offset="0" style="stop-color:rgb(235,134,30);stop-opacity:1"/><stop offset="0.59" style="stop-color:rgb(212,120,25);stop-opacity:1"/><stop offset="0.8" style="stop-color:rgb(162,89,13);stop-opacity:1"/><stop offset="1" style="stop-color:rgb(113,58,2);stop-opacity:1"/></linearGradient>
    </defs>
</svg>
